<?xml version="1.0" encoding="iso-8859-1"?>
<!-- Generator: Adobe Illustrator 19.0.0, SVG Export Plug-In . SVG Version: 6.00 Build 0)  -->
<svg version="1.1" id="Capa_1" xmlns="http://www.w3.org/2000/svg" xmlns:xlink="http://www.w3.org/1999/xlink" x="0px" y="0px"
	 viewBox="0 0 512 512" style="enable-background:new 0 0 512 512;" xml:space="preserve">
<path style="fill:#B77344;" d="M33.21,353.174h202.931c19.113,0,31.527-20.135,22.942-37.211L154.806,108.54
	c-8.319-16.548-31.942-16.548-40.261,0L10.267,315.962C1.682,333.038,14.096,353.174,33.21,353.174z"/>
<path style="fill:#A5663C;" d="M171.637,142.021l87.446,173.941c8.585,17.077-3.829,37.211-22.942,37.211H54.296
	C82.431,245.46,146.075,169.313,171.637,142.021z"/>
<path style="fill:#B3DBF4;" d="M154.806,108.54c-8.319-16.548-31.942-16.548-40.261,0L60.767,215.512l15.867,9.515
	c7.13,4.275,16.035,4.275,23.165,0l34.87-20.911l34.877,20.912c7.129,4.275,16.033,4.275,23.163,0l15.873-9.517L154.806,108.54z"/>
<path style="fill:#94CBED;" d="M114.841,216.006l19.828-11.89l34.877,20.913c7.129,4.275,16.033,4.275,23.163,0l15.873-9.517
	l-36.945-73.491l0,0C159.027,155.484,137.151,180.842,114.841,216.006z"/>
<path style="fill:#B77344;" d="M275.861,356.757h202.931c19.113,0,31.527-20.135,22.942-37.211L397.457,112.123
	c-8.319-16.548-31.942-16.548-40.261,0L252.919,319.545C244.334,336.621,256.748,356.757,275.861,356.757z"/>
<path style="fill:#A5663C;" d="M340.364,145.605l-87.446,173.941c-8.585,17.077,3.829,37.211,22.942,37.211h181.845
	C429.569,249.044,365.926,172.897,340.364,145.605z"/>
<path style="fill:#B3DBF4;" d="M397.457,112.123c-8.319-16.548-31.942-16.548-40.261,0l-53.778,106.972l15.867,9.515
	c7.13,4.275,16.035,4.275,23.165,0l28.071-16.833v30.886c0,7.335,6.002,13.337,13.337,13.337l0,0
	c7.335,0,13.337-6.002,13.337-13.337v-23.047l15.002,8.995c7.129,4.275,16.033,4.275,23.163,0l15.873-9.517L397.457,112.123z"/>
<path style="fill:#94CBED;" d="M383.859,256.001c7.335,0,13.337-6.002,13.337-13.337v-23.025
	c-22.327-35.195-44.215-60.564-56.833-74.034l-36.946,73.491l15.867,9.515c7.13,4.275,16.035,4.275,23.165,0l28.071-16.833v30.886
	C370.522,249.999,376.523,256.001,383.859,256.001z"/>
<path style="fill:#D3874F;" d="M133.921,415.872h252.43c23.775,0,39.217-25.046,28.538-46.288L285.177,111.567
	c-10.348-20.584-39.733-20.584-50.081,0L105.383,369.584C94.704,390.826,110.145,415.872,133.921,415.872z"/>
<path style="fill:#CAE7FC;" d="M285.177,111.567c-10.348-20.584-39.733-20.584-50.081,0l-58.393,116.151l24.974,14.976
	c7.181,4.306,16.151,4.306,23.332,0l35.121-21.062l35.129,21.063c7.181,4.305,16.149,4.305,23.33,0l24.98-14.978L285.177,111.567z"
	/>
<path style="fill:#57565C;" d="M277.003,325.351h-33.734c-6.579,0.021-10.368,1.747-10.271,7.116
	c0.316,17.522,4.049,49.573,27.138,49.573c23.088,0,26.822-32.052,27.138-49.573C287.371,327.098,283.582,325.372,277.003,325.351z"
	/>
<path style="fill:#FCD4DD;" d="M260.137,353.425c-9.281,0-17.54,3.231-22.865,8.256c3.715,11.201,10.524,20.361,22.865,20.361
	s19.15-9.16,22.865-20.361C277.677,356.655,269.417,353.425,260.137,353.425z"/>
<path style="fill:#B3DBF4;" d="M220.442,207.503c-3.7-1.86-5.192-6.369-3.332-10.07l22.58-44.915c1.861-3.7,6.37-5.191,10.07-3.332
	c3.7,1.86,5.192,6.369,3.332,10.07l-22.58,44.915C227.759,209.716,221.523,208.046,220.442,207.503z"/>
<path d="M340.794,310.386c-4.143,0-7.5,3.357-7.5,7.5v12.451c0,4.143,3.357,7.5,7.5,7.5s7.5-3.357,7.5-7.5v-12.451
	C348.294,313.743,344.936,310.386,340.794,310.386z"/>
<path d="M179.479,310.386c-4.143,0-7.5,3.357-7.5,7.5v12.451c0,4.143,3.357,7.5,7.5,7.5c4.143,0,7.5-3.357,7.5-7.5v-12.451
	C186.979,313.743,183.622,310.386,179.479,310.386z"/>
<path d="M277.028,317.851c-0.008,0-0.017,0-0.024,0h-33.759c-4.08,0.014-9.971,0.509-14.014,4.638
	c-1.753,1.791-3.823,4.999-3.731,10.113c0.651,36.186,13.276,56.939,34.637,56.939c21.358,0,33.983-20.753,34.637-56.939
	c0.092-5.114-1.979-8.322-3.731-10.112C286.999,318.36,281.108,317.864,277.028,317.851z M260.136,374.541
	c-16.729,0-19.319-28.454-19.624-41.5c0.575-0.096,38.672-0.096,39.248,0.001C279.455,346.088,276.864,374.541,260.136,374.541z"/>
<path d="M508.434,316.177l-18.928-37.651c-1.861-3.703-6.373-5.193-10.069-3.333c-3.701,1.86-5.193,6.369-3.333,10.069
	l18.928,37.652c2.854,5.677,2.567,12.295-0.768,17.704c-3.334,5.408-9.118,8.638-15.473,8.638h-65.727l-59.581-118.517l9.538-5.72
	v17.644c0,11.489,9.348,20.837,20.838,20.837c11.489,0,20.837-9.348,20.837-20.837v-9.805l3.646,2.186
	c9.522,5.709,21.354,5.71,30.876,0l8.944-5.362l12.501,24.866c2.799,5.516,8.989,3.875,10.07,3.332
	c3.7-1.86,5.192-6.369,3.332-10.07L404.16,108.754c-5.13-10.203-15.412-16.542-26.833-16.542
	c-11.42,0.001-21.701,6.339-26.83,16.542l-29.168,58.021l-29.448-58.577c-6.068-12.071-18.23-19.569-31.74-19.569
	c-0.001,0,0,0-0.001,0c-13.51,0-25.674,7.498-31.742,19.568l-32.682,65.012l-34.204-68.037c-5.129-10.204-15.41-16.543-26.83-16.544
	c-0.001,0,0,0-0.001,0c-11.42,0-21.702,6.34-26.832,16.543L3.566,312.592c-5.209,10.362-4.686,22.443,1.401,32.315
	s16.644,15.766,28.241,15.766h47.997c4.143,0,7.5-3.357,7.5-7.5c0-4.143-3.357-7.5-7.5-7.5H33.21
	c-6.354,0-12.139-3.229-15.473-8.638c-3.335-5.409-3.622-12.028-0.768-17.705l46.87-93.231c0,0,9.591,9.642,24.378,9.642
	c5.338,0,10.678-1.428,15.439-4.283l31.013-18.598c0,0,31.406,18.811,31.596,18.919L98.681,366.216
	c-6.192,12.317-5.569,26.679,1.666,38.414s19.786,18.742,33.573,18.742h252.43c13.787,0,26.369-6.988,33.573-18.742
	c11.882-19.386,0.682-40.373,0.682-40.373h58.186c11.598,0,22.155-5.894,28.241-15.767
	C513.12,338.618,513.643,326.538,508.434,316.177z M363.897,115.491c2.605-5.184,7.626-8.279,13.429-8.279s10.823,3.096,13.43,8.28
	l50.649,100.751l-9.9,5.936c-4.767,2.859-10.686,2.857-15.45,0l-15.002-8.995c-2.316-1.39-5.203-1.424-7.553-0.094
	c-2.351,1.332-3.804,3.825-3.804,6.526v23.047c0,3.219-2.618,5.837-5.837,5.837s-5.838-2.618-5.838-5.837v-30.887
	c0-2.702-1.453-5.194-3.804-6.526c-2.35-1.33-5.235-1.297-7.554,0.095l-19.936,11.956l-17.006-33.827L363.897,115.491z
	 M241.797,114.936c3.56-7.08,10.415-11.308,18.34-11.307c7.925,0,14.78,4.227,18.339,11.307l55.266,109.93l-19.007,11.397
	c-4.816,2.889-10.801,2.889-15.617,0L263.988,215.2c-2.373-1.424-5.339-1.423-7.714,0.001l-35.121,21.062
	c-4.816,2.887-10.801,2.888-15.617-0.001l-19.003-11.395L241.797,114.936z M138.526,197.683c-2.373-1.424-5.339-1.423-7.714,0.001
	l-34.87,20.91c-4.766,2.859-10.686,2.857-15.449,0l-9.896-5.934l50.649-100.75c2.606-5.186,7.627-8.281,13.43-8.281
	c5.803,0.001,10.823,3.096,13.429,8.281l39.212,77.999l-14.304,28.453L138.526,197.683z M407.156,396.758
	c-4.483,7.272-12.261,11.614-20.805,11.614H133.922c-8.544,0-16.321-4.342-20.805-11.614c-4.484-7.272-4.87-16.172-1.032-23.805
	l67.691-134.647l18.044,10.82c9.576,5.742,21.471,5.742,31.047,0l31.264-18.748l31.272,18.751c6.481,4.395,19.363,6.872,31.043,0
	l18.051-10.823l67.692,134.646C412.026,380.586,411.64,389.486,407.156,396.758z"/>
<g>
</g>
<g>
</g>
<g>
</g>
<g>
</g>
<g>
</g>
<g>
</g>
<g>
</g>
<g>
</g>
<g>
</g>
<g>
</g>
<g>
</g>
<g>
</g>
<g>
</g>
<g>
</g>
<g>
</g>
</svg>
