<?xml version="1.0" encoding="iso-8859-1"?>
<!-- Generator: Adobe Illustrator 19.0.0, SVG Export Plug-In . SVG Version: 6.00 Build 0)  -->
<svg xmlns="http://www.w3.org/2000/svg" xmlns:xlink="http://www.w3.org/1999/xlink" version="1.1" id="Layer_1" x="0px" y="0px" viewBox="0 0 512.043 512.043" style="enable-background:new 0 0 512.043 512.043;" xml:space="preserve" width="512" height="512">
<g id="cuckoo_clock_x0A_">
	<g id="fill_48_">
		<path style="fill:#FFDAAA;" d="M300.763,504.543l-17.668-0.06c-8.651-0.03-15.641-7.067-15.611-15.718l0.204-59.684    c0.03-8.651,7.067-15.641,15.718-15.611l17.668,0.06c8.651,0.03,15.641,7.067,15.611,15.718l-0.204,59.684    C316.451,497.583,309.414,504.573,300.763,504.543z"/>
		<path style="fill:#FFB864;" d="M292.151,489.168l0.204-59.688c0.026-7.688,5.592-14.051,12.903-15.353    c-1.332-0.374-2.73-0.592-4.181-0.596l-17.673-0.06c-8.65-0.03-15.686,6.958-15.716,15.609l-0.204,59.688    c-0.029,8.65,6.959,15.686,15.609,15.716l17.673,0.06c0.962,0.003,1.899-0.093,2.813-0.256    C296.969,502.432,292.126,496.367,292.151,489.168z"/>
		<path style="fill:#FFDAAA;" d="M228.606,456.832l-17.668-0.06c-8.651-0.03-15.641-7.067-15.611-15.718l0.162-47.302    c0.03-8.651,7.067-15.641,15.718-15.611l17.668,0.06c8.651,0.03,15.641,7.067,15.611,15.718l-0.162,47.302    C244.295,449.872,237.257,456.861,228.606,456.832z"/>
		<path style="fill:#FFB864;" d="M219.906,441.056l0.162-47.307c0.025-7.403,5.189-13.573,12.098-15.184    c-1.061-0.231-2.159-0.36-3.288-0.364l-17.673-0.061c-8.65-0.03-15.686,6.959-15.716,15.609l-0.162,47.307    c-0.03,8.65,6.959,15.686,15.608,15.716l17.673,0.061c1.247,0.004,2.454-0.153,3.618-0.424    C225.162,454.871,219.881,448.576,219.906,441.056z"/>
		<path style="fill:#E28027;" d="M338.808,329.633l-165.649-0.034c-17.218-0.004-31.172-13.964-31.169-31.182l0.032-154.731    l114.019-93.928l113.98,93.975l-0.032,154.731C369.986,315.681,356.025,329.636,338.808,329.633z"/>
		<path style="fill:#D66E18;" d="M333.138,308.329l-14.892-0.114c-4.142-0.032-7.473-3.414-7.441-7.556    c0.032-4.142,3.414-7.473,7.556-7.441l14.135,0.108l0.004-21.382c0.001-4.142,3.359-7.499,7.5-7.498c0.02,0,0.039,0,0.058,0    c4.115,0.032,7.441,3.377,7.44,7.5l-0.004,22.14c-0.002,3.828-1.498,7.418-4.214,10.112S336.963,308.359,333.138,308.329z"/>
		<path style="fill:#D66E18;" d="M256.041,49.757l-114.019,93.928l-0.032,154.731c-0.003,17.217,13.951,31.178,31.169,31.182    l86.801,0.018c-28.61-91.086-22.399-154.527-12.725-190.899c5.624-21.146,26.855-34.142,48.221-29.423l16.614,3.669l9.358-9.294    L256.041,49.757z"/>
		<circle style="fill:#FFFFFF;" cx="255.995" cy="271.297" r="34.692"/>
		<path style="fill:#CAE7FC;" d="M240.945,240.031c-11.62,5.604-19.639,17.494-19.642,31.259    c-0.004,18.19,13.996,33.103,31.808,34.571C246.779,281.761,242.952,259.824,240.945,240.031z"/>
		<path style="fill:#915B36;" d="M305.633,213.908l-99.252-0.021c-9.296-0.002-16.83-7.539-16.828-16.835l0.006-29.448    c0.002-9.296,7.539-16.83,16.835-16.828l99.252,0.021c9.296,0.002,16.83,7.539,16.828,16.835l-0.006,29.447    C322.466,206.376,314.929,213.91,305.633,213.908z"/>
		<rect x="224.459" y="150.787" style="fill:#57565C;" width="63.111" height="63.111"/>
		<path style="fill:#3E3D42;" d="M267.131,150.789c0,0-17.76,6.53-17.94,29.928c-0.213,27.806,17.455,33.183,17.455,33.183    l-42.195-0.009l0.013-63.111L267.131,150.789z"/>
		<path style="fill:#FFB864;" d="M375.666,166.061c-5.364-0.001-10.733-2.003-14.895-6.025L256.04,58.797L151.266,159.992    c-8.517,8.226-22.092,7.991-30.317-0.527c-8.226-8.517-7.991-22.091,0.527-30.317L241.151,13.562    c8.31-8.027,21.488-8.025,29.797,0.006l119.627,115.637c8.514,8.229,8.743,21.803,0.514,30.317    C386.881,163.874,381.277,166.062,375.666,166.061z"/>
		<path style="fill:#F4A651;" d="M270.72,42.776c-8.309-8.031-21.487-8.033-29.797-0.006L121.247,158.357    c-0.233,0.225-0.436,0.469-0.657,0.702c0.122,0.133,0.229,0.276,0.355,0.407c8.225,8.517,21.8,8.752,30.317,0.527L256.036,58.797    l104.731,101.239c4.162,4.022,9.531,6.024,14.895,6.025c5.61,0.001,11.215-2.187,15.422-6.539    c0.051-0.053,0.094-0.112,0.144-0.165c-0.291-0.317-0.569-0.641-0.883-0.944L270.72,42.776z"/>
	</g>
	<g id="stroke_48_">
		<path d="M404.609,144.129c-0.131-7.729-3.264-14.945-8.821-20.317l-69.855-67.524c-2.979-2.879-7.726-2.798-10.605,0.18    c-2.879,2.979-2.798,7.727,0.18,10.605l69.855,67.524c5.527,5.342,5.677,14.186,0.334,19.712c-2.65,2.742-6.21,4.252-10.025,4.252    c-0.001,0-0.002,0-0.002,0c-3.632-0.001-7.071-1.392-9.684-3.917L261.253,53.405c-2.907-2.809-7.516-2.811-10.423-0.002    L146.056,154.598c-2.679,2.587-6.222,3.952-9.929,3.911c-3.723-0.065-7.198-1.575-9.784-4.253    c-2.586-2.679-3.976-6.204-3.911-9.928c0.065-3.724,1.576-7.198,4.254-9.785L246.363,18.956c5.43-5.246,13.94-5.247,19.372,0.005    l26.204,25.329c2.978,2.877,7.726,2.797,10.605-0.18c2.879-2.979,2.798-7.727-0.18-10.605L276.16,8.176    c-11.275-10.897-28.941-10.902-40.219-0.009L116.266,123.754c-5.561,5.369-8.697,12.584-8.831,20.313    c-0.135,7.729,2.749,15.048,8.119,20.608c5.369,5.561,12.583,8.696,20.313,8.83c7.687,0.143,15.048-2.748,20.608-8.119    l99.563-96.161l99.521,96.203c2.089,2.019,4.433,3.685,6.956,4.975l-0.026,128.059c-0.003,13.053-10.622,23.67-23.675,23.67    c-0.001,0-0.004,0-0.005,0l-165.649-0.034c-13.055-0.003-23.673-10.626-23.67-23.68l0.027-102.144    c0.001-4.142-3.355-7.501-7.498-7.502c-0.001,0-0.001,0-0.002,0c-4.142,0-7.499,3.356-7.5,7.498l-0.027,102.144    c-0.005,21.325,17.341,38.679,38.666,38.684l39.111,0.008l-0.02,33.537c0,0-24.259-1.396-24.259,23.083l-0.162,47.302    c-0.043,12.773,10.313,23.2,23.086,23.243l17.667,0.061c0.028,0,0.056,0,0.083,0c6.157,0,11.95-2.388,16.321-6.728    c4.391-4.36,6.819-10.17,6.841-16.357l0.161-47.301c0-23.68-24.74-23.251-24.74-23.251l0.02-33.586l57.324,0.012l-0.041,68.853    c0,0-24.361-0.558-24.361,23.082l-0.204,59.683c-0.021,6.188,2.368,12.014,6.729,16.403c4.359,4.391,10.169,6.819,16.356,6.841    l17.669,0.061c0.027,0,0.053,0,0.08,0c12.735,0,23.12-10.341,23.163-23.086l0.204-59.684c0-21.82-24.639-23.249-24.639-23.249    l0.041-68.901l39.219,0.008c0.004,0,0.005,0,0.009,0c21.32,0,38.67-17.345,38.675-38.666l0.026-124.969    c7.215-0.448,13.894-3.516,18.966-8.762C401.853,159.176,404.74,151.859,404.609,144.129z M234.615,388.112    c1.537,1.548,2.379,3.601,2.371,5.782l-0.161,47.302c-0.008,2.181-0.863,4.228-2.411,5.765c-1.54,1.53-3.582,2.371-5.752,2.371    c-0.01,0-0.02,0-0.029,0c0,0,0,0-0.001,0l-17.668-0.061c-2.181-0.008-4.229-0.863-5.765-2.411    c-1.537-1.547-2.38-3.601-2.372-5.781l0.162-47.302c0.008-2.181,0.863-4.228,2.411-5.765c1.541-1.53,3.583-2.372,5.754-2.372    c0.009,0,0.019,0,0.028,0l17.667,0.061C231.031,385.708,233.077,386.565,234.615,388.112z M309.185,429.223l-0.204,59.684    c-0.016,4.492-3.675,8.137-8.164,8.137c-0.01,0-0.019,0-0.028,0l-17.669-0.061c-2.181-0.008-4.229-0.863-5.765-2.411    c-1.537-1.547-2.379-3.6-2.371-5.781l0.204-59.684c0.008-2.181,0.863-4.229,2.411-5.765c1.54-1.53,3.582-2.372,5.753-2.372    c0.009,0,0.019,0,0.028,0l17.668,0.061C305.55,421.046,309.2,424.721,309.185,429.223z"/>
		<path d="M305.637,221.408c6.497,0,12.605-2.529,17.201-7.123c4.597-4.595,7.129-10.704,7.13-17.203l0.006-29.448    c0.001-6.499-2.528-12.609-7.123-17.206s-10.704-7.13-17.202-7.131l-99.252-0.021c-0.002,0-0.004,0-0.006,0    c-6.497,0-12.605,2.529-17.201,7.123c-4.597,4.595-7.129,10.704-7.13,17.203l-0.007,29.447c-0.001,6.5,2.528,12.61,7.123,17.207    s10.705,7.129,17.203,7.13l99.252,0.021C305.633,221.408,305.635,221.408,305.637,221.408z M314.974,167.63l-0.006,29.448    c-0.001,2.493-0.972,4.836-2.734,6.599c-1.763,1.762-4.105,2.731-6.597,2.731c-0.001,0-0.002,0-0.002,0l-10.56-0.002v-48.111    l10.569,0.002C310.79,158.298,314.975,162.486,314.974,167.63z M280.075,206.403l-48.11-0.01v-48.111l48.11,0.01V206.403z     M199.784,203.653c-1.762-1.763-2.732-4.106-2.731-6.599l0.007-29.447c0.001-2.493,0.972-4.836,2.734-6.599    c1.763-1.762,4.105-2.731,6.597-2.731c0.001,0,0.002,0,0.002,0l10.572,0.002v48.111l-10.583-0.002    C203.89,206.387,201.547,205.415,199.784,203.653z"/>
		<path d="M255.995,229.104c-23.26,0-42.188,18.923-42.192,42.184c-0.005,23.266,18.919,42.197,42.184,42.202    c0.005,0,0.005,0,0.009,0c23.26,0,42.188-18.923,42.192-42.184c0.005-23.265-18.919-42.196-42.184-42.202    C255.999,229.104,255.999,229.104,255.995,229.104z M283.188,271.302c-0.002,7.264-2.831,14.092-7.969,19.227    c-5.135,5.134-11.962,7.961-19.224,7.961c-0.001,0-0.004,0-0.005,0c-7.264-0.002-14.092-2.831-19.227-7.969    c-5.135-5.137-7.963-11.967-7.961-19.229c0.002-7.264,2.831-14.092,7.969-19.227c5.135-5.134,11.962-7.961,19.223-7.961    c0.002,0,0.004,0,0.006,0C270.994,244.108,283.191,256.309,283.188,271.302z"/>
		<circle cx="255.995" cy="271.297" r="7.499"/>
	</g>
</g>















</svg>
