<?xml version="1.0" encoding="iso-8859-1"?>
<!-- Generator: Adobe Illustrator 19.0.0, SVG Export Plug-In . SVG Version: 6.00 Build 0)  -->
<svg version="1.1" id="Capa_1" xmlns="http://www.w3.org/2000/svg" xmlns:xlink="http://www.w3.org/1999/xlink" x="0px" y="0px"
	 viewBox="0 0 512.001 512.001" style="enable-background:new 0 0 512.001 512.001;" xml:space="preserve">
<path style="fill:#AF3333;" d="M133.704,256c-16.839-32.871-43.185-53.88-65.262-66.656c-20.564-11.901-46.905-4.676-58.781,15.902
	c0,0-4.702,9.003-0.001,17.59l19.136,33.165L9.66,289.163c-4.894,8.738,0.001,17.59,0.001,17.59
	c11.876,20.579,38.217,27.803,58.781,15.902C90.519,309.879,116.865,288.869,133.704,256z"/>
<path style="fill:#C93939;" d="M378.306,256c16.839-32.871,43.185-53.88,65.262-66.656c20.564-11.901,46.905-4.676,58.781,15.902
	c0,0,4.702,9.003,0.001,17.59l-19.136,33.165l19.136,33.165c4.895,8.738-0.001,17.59-0.001,17.59
	c-11.876,20.579-38.217,27.803-58.781,15.902C421.491,309.879,395.145,288.869,378.306,256z"/>
<ellipse style="fill:#E04141;" cx="99.068" cy="256" rx="54.294" ry="61.345"/>
<ellipse style="fill:#F44242;" cx="412.944" cy="256" rx="54.294" ry="61.345"/>
<circle style="fill:#FF737D;" cx="256.001" cy="256" r="174.814"/>
<path style="fill:#FF5555;" d="M229.459,255.999c0.693-70.459,47.589-134.286,100.68-158.349
	c-22.508-10.556-47.629-16.465-74.134-16.465c-96.548,0-174.814,78.267-174.814,174.814c0,96.548,78.267,174.815,174.814,174.815
	c26.505,0,51.625-5.909,74.134-16.465C270.657,386.452,228.77,326.038,229.459,255.999z"/>
<path style="fill:#FFFFFF;" d="M256.006,401.996c-80.502,0-145.997-65.493-145.997-145.996s65.493-145.996,145.996-145.996
	S402,175.497,402,256S336.507,401.996,256.006,401.996z M256.006,125.004c-72.231,0-130.996,58.765-130.996,130.995
	s58.764,130.994,130.995,130.994S386.998,328.23,386.998,256S328.236,125.004,256.006,125.004z"/>
<path style="fill:#CAE7FC;" d="M110.009,256c0,80.502,65.493,145.996,145.996,145.996c14.934,0,29.35-2.258,42.928-6.444
	c-4.889-3.68-9.582-7.61-14.058-11.77c-9.293,2.098-18.954,3.212-28.871,3.212C183.775,386.994,125.01,328.23,125.01,256
	s58.764-130.994,130.995-130.994c10.262,0,20.251,1.189,29.838,3.431c4.359-4.232,8.882-8.193,13.531-11.857
	c-13.707-4.272-28.274-6.576-43.369-6.576C175.504,110.003,110.009,175.496,110.009,256z"/>
<path style="fill:#E9F6FF;" d="M340.021,244.901l-30.922-19.555L256.005,256l53.093,30.653l30.922-19.555
	C348.171,261.943,348.171,250.055,340.021,244.901z"/>
<path style="fill:#CAE7FC;" d="M288.402,177.691l-32.397,17.002V256l53.093-30.653l-1.474-36.557
	C307.236,179.153,296.94,173.208,288.402,177.691z"/>
<path style="fill:#E9F6FF;" d="M204.386,188.788l-1.474,36.557l53.093,30.653v-61.307l-32.397-17.002
	C215.07,173.208,204.774,179.153,204.386,188.788z"/>
<g>
	<path style="fill:#CAE7FC;" d="M244.271,188.534l-20.663-10.844c-8.54-4.481-18.835,1.463-19.224,11.099l-1.474,36.557
		l27.382,15.809C232.157,222.778,237.062,205.034,244.271,188.534z"/>
	<path style="fill:#CAE7FC;" d="M171.989,267.098l30.922,19.555l53.093-30.653l-53.093-30.653L171.989,244.9
		C163.839,250.055,163.839,261.943,171.989,267.098z"/>
</g>
<path style="fill:#B3DBF4;" d="M229.459,255.999c0.049-4.985,0.337-9.937,0.835-14.844l-27.381-15.809L171.99,244.9
	c-8.151,5.154-8.151,17.043,0,22.197l30.922,19.555l27.062-15.624C229.589,266.074,229.409,261.063,229.459,255.999z"/>
<path style="fill:#E9F6FF;" d="M223.608,334.309l32.397-17.002V256l-53.093,30.653l1.474,36.557
	C204.774,332.846,215.07,338.79,223.608,334.309z"/>
<g>
	<path style="fill:#CAE7FC;" d="M229.974,271.028l-27.062,15.624l1.474,36.557c0.388,9.636,10.684,15.58,19.224,11.099
		l19.337-10.148C235.921,307.601,231.431,289.735,229.974,271.028z"/>
	<path style="fill:#CAE7FC;" d="M307.625,323.21l1.474-36.557L256.006,256v61.307l32.397,17.002
		C296.94,338.79,307.236,332.846,307.625,323.21z"/>
</g>
<path d="M316.434,221.11l-1.314-32.624c-0.287-7.11-4.137-13.479-10.3-17.036c-6.162-3.559-13.604-3.707-19.904-0.4l-28.91,15.173
	l-28.91-15.173c-6.299-3.308-13.741-3.158-19.904,0.4c-6.162,3.558-10.013,9.927-10.3,17.037l-1.314,32.623l-27.595,17.451
	c-6.014,3.803-9.605,10.322-9.605,17.438c0,7.117,3.59,13.635,9.605,17.438l27.596,17.451l1.314,32.624
	c0.287,7.11,4.137,13.479,10.3,17.036c3.205,1.851,6.755,2.778,10.311,2.778c3.282,0,6.57-0.791,9.593-2.378l28.91-15.173
	l28.91,15.173c6.301,3.31,13.742,3.159,19.904-0.4c6.162-3.558,10.013-9.927,10.3-17.037l1.314-32.623l27.595-17.451
	c6.014-3.803,9.605-10.322,9.605-17.438c0-7.117-3.59-13.635-9.605-17.438l0,0L316.434,221.11z M291.887,184.331
	c2.479-1.299,4.625-0.356,5.432,0.109c0.808,0.467,2.698,1.853,2.811,4.649l1.291,32.027l-37.915,21.891v-43.782L291.887,184.331z
	 M214.691,184.441c0.505-0.291,2.7-1.471,5.432-0.109l28.381,14.895v43.782l-37.915-21.892l1.29-32.026
	C211.992,186.293,213.883,184.908,214.691,184.441z M175.998,260.758c-2.365-1.496-2.621-3.826-2.621-4.759
	c0-0.933,0.255-3.263,2.621-4.759l27.09-17.131l37.915,21.891l-37.915,21.891L175.998,260.758z M220.123,327.668
	c-2.479,1.3-4.625,0.356-5.432-0.109c-0.808-0.467-2.698-1.853-2.811-4.649l-1.291-32.027l37.915-21.891v43.782L220.123,327.668z
	 M297.319,327.558c-0.808,0.466-2.954,1.408-5.432,0.109l-28.381-14.895v-43.781l37.915,21.891l-1.29,32.026
	C300.018,325.705,298.127,327.091,297.319,327.558z M336.012,260.758l-27.09,17.131l-37.915-21.891l37.915-21.891l27.09,17.131l0,0
	c2.365,1.496,2.621,3.826,2.621,4.759C338.634,256.932,338.378,259.262,336.012,260.758z"/>
<path d="M508.846,285.416L491.874,256l16.972-29.416c0.028-0.048,0.056-0.097,0.083-0.146c5.232-9.556,2.504-20,0.068-24.664
	c-0.049-0.093-0.1-0.186-0.152-0.276c-6.786-11.758-17.743-20.165-30.855-23.672c-13.006-3.48-26.565-1.694-38.18,5.026
	c-3.658,2.118-7.255,4.361-10.735,6.682c-1.212-0.364-2.442-0.678-3.684-0.961c-26.865-67.248-92.663-114.886-169.385-114.886
	c-37.656,0-73.802,11.386-104.53,32.925c-3.392,2.378-4.214,7.056-1.836,10.447c2.378,3.393,7.057,4.215,10.447,1.837
	c28.192-19.763,61.361-30.207,95.92-30.207c92.257,0,167.313,75.057,167.313,167.314s-75.057,167.314-167.313,167.314
	S88.693,348.259,88.693,256.002c0-45.401,17.88-87.89,50.349-119.638c2.961-2.896,3.015-7.646,0.119-10.606
	c-2.896-2.962-7.645-3.015-10.607-0.119c-18.581,18.169-32.771,39.57-42.062,62.961c-1.2,0.276-2.39,0.577-3.562,0.929
	c-3.485-2.322-7.079-4.564-10.728-6.676c-11.614-6.723-25.174-8.508-38.179-5.026c-13.112,3.507-24.07,11.914-30.855,23.672
	c-0.052,0.091-0.103,0.184-0.152,0.276c-2.436,4.664-5.163,15.108,0.068,24.664c0.027,0.05,0.054,0.099,0.083,0.146l16.972,29.416
	L3.117,285.498c-5.475,9.772-2.588,20.241-0.019,24.886c0.022,0.04,0.044,0.079,0.067,0.119
	c6.786,11.758,17.743,20.165,30.855,23.672c4.343,1.162,8.748,1.737,13.122,1.737c8.724,0,17.322-2.287,25.059-6.765
	c3.655-2.116,7.249-4.357,10.727-6.676c1.214,0.365,2.449,0.675,3.693,0.958c26.866,67.246,92.663,114.884,169.384,114.884
	s142.518-47.638,169.384-114.884c28.444-6.473,49.356-34.572,49.356-67.43c0-24.626-11.795-46.631-29.699-58.816
	c0.758-0.453,13.049-9.216,29.068-4.868c9.155,2.484,16.834,8.3,21.624,16.48c0.316,0.693,2.498,5.851,0.067,10.374l-19.087,33.081
	c-1.338,2.319-1.338,5.177,0,7.497l19.089,33.083c2.659,4.745,0.188,9.873-0.01,10.271c-7.293,12.544-21.764,19.542-36.052,17.415
	c-4.095-0.611-7.913,2.217-8.522,6.314c-0.609,4.097,2.218,7.914,6.315,8.522c2.426,0.361,4.854,0.537,7.27,0.537
	c17.858-0.001,34.942-9.628,44.038-25.388c0.022-0.04,0.045-0.079,0.067-0.119C511.481,305.739,514.369,295.27,508.846,285.416z
	 M16.269,303.205c0,0-0.001-0.003-0.002-0.004C16.269,303.204,16.27,303.205,16.269,303.205L16.269,303.205z M37.897,319.683
	c-9.28-2.08-16.874-8.33-21.661-16.544c-0.324-0.654-2.636-5.66-0.079-10.227l19.136-33.165c1.338-2.319,1.338-5.177,0-7.497
	l-19.087-33.082c-2.426-4.516-0.228-9.715,0.072-10.38c4.789-8.178,12.356-14.442,21.62-16.474
	c16.91-3.708,28.304,4.411,29.059,4.862c-17.905,12.171-29.69,34.155-29.69,58.821c0,24.663,11.786,46.648,29.691,58.821
	C66.202,315.272,54.33,323.366,37.897,319.683z M52.267,256c0-21.893,11.454-41.042,28.143-49.39
	c-4.43,15.862-6.72,32.44-6.72,49.39c0,17.128,2.379,33.711,6.816,49.439C63.765,297.116,52.267,277.932,52.267,256z M459.743,256
	c0,21.934-11.498,41.116-28.239,49.439c4.436-15.728,6.816-32.311,6.816-49.439c0-17.127-2.378-33.709-6.815-49.436
	C448.239,214.897,459.743,234.103,459.743,256z"/>
<g>
</g>
<g>
</g>
<g>
</g>
<g>
</g>
<g>
</g>
<g>
</g>
<g>
</g>
<g>
</g>
<g>
</g>
<g>
</g>
<g>
</g>
<g>
</g>
<g>
</g>
<g>
</g>
<g>
</g>
</svg>
