<?xml version="1.0" encoding="iso-8859-1"?>
<!-- Generator: Adobe Illustrator 19.0.0, SVG Export Plug-In . SVG Version: 6.00 Build 0)  -->
<svg version="1.1" id="Capa_1" xmlns="http://www.w3.org/2000/svg" xmlns:xlink="http://www.w3.org/1999/xlink" x="0px" y="0px"
	 viewBox="0 0 512.001 512.001" style="enable-background:new 0 0 512.001 512.001;" xml:space="preserve">
<path style="fill:#309185;" d="M361.427,82.889V38.864c0-21.319-20.835-36.411-41.092-29.763L130.412,71.43
	c-20.834,6.838-34.92,26.284-34.92,48.213v343.085c0,23.071,18.702,41.774,41.774,41.774h237.471
	c23.071,0,41.774-18.702,41.774-41.774v-337.39c0-23.443-19.004-42.448-42.448-42.448H361.427z"/>
<path style="fill:#60C6B7;" d="M111.256,82.889c-9.84,9.371-15.764,22.537-15.764,36.753v343.085
	c0,23.071,18.702,41.774,41.774,41.774h237.471c23.071,0,41.774-18.702,41.774-41.774v-337.39c0-23.443-19.004-42.448-42.448-42.448
	H111.256z"/>
<path style="fill:#4DB5A6;" d="M263.497,462.727V119.642c0-14.215,5.925-27.382,15.764-36.753H111.256
	c-9.84,9.371-15.764,22.537-15.764,36.753v343.085c0,23.071,18.702,41.774,41.774,41.774H305.27
	C282.199,504.501,263.497,485.798,263.497,462.727z"/>
<path style="fill:#FFEB99;" d="M353.417,355.825h-194.83c-14.297,0-25.886-11.59-25.886-25.886V157.314
	c0-14.297,11.59-25.886,25.886-25.886h194.83c14.297,0,25.886,11.59,25.886,25.886v172.624
	C379.303,344.236,367.714,355.825,353.417,355.825z"/>
<path style="fill:#FFDE55;" d="M158.587,131.428c-14.297,0-25.886,11.59-25.886,25.886v172.624c0,14.297,11.59,25.886,25.886,25.886
	h104.91V131.428H158.587z"/>
<path style="fill:#57565C;" d="M291.008,222.696h-70.012V190.09c0-9.823,7.963-17.784,17.784-17.784h34.443
	c9.823,0,17.784,7.963,17.784,17.784V222.696z"/>
<path style="fill:#3E3D42;" d="M263.497,172.306H238.78c-9.823,0-17.784,7.963-17.784,17.784v32.606h42.502v-50.391H263.497z"/>
<circle style="fill:#FF5555;" cx="256.004" cy="266.242" r="65.733"/>
<path style="fill:#E04141;" d="M256.002,200.514c-36.303,0-65.733,29.429-65.733,65.733c0,36.303,29.429,65.733,65.733,65.733
	c2.536,0,5.034-0.158,7.495-0.438v-130.59C261.036,200.672,258.538,200.514,256.002,200.514z"/>
<circle style="fill:#FFFFFF;" cx="256.004" cy="266.242" r="19.999"/>
<g>
	<path style="fill:#99FFF0;" d="M256.002,246.247c-11.046,0-19.999,8.954-19.999,19.999s8.954,19.999,19.999,19.999
		c2.652,0,5.179-0.528,7.495-1.466v-37.068C261.18,246.775,258.654,246.247,256.002,246.247z"/>
	<path style="fill:#99FFF0;" d="M193.292,246.499c-1.961,6.234-3.023,12.866-3.023,19.746c0,6.881,1.062,13.514,3.023,19.747
		c9.607-1.461,16.977-9.732,16.977-19.747C210.268,256.232,202.899,247.96,193.292,246.499z"/>
</g>
<g>
	<path style="fill:#FFFFFF;" d="M318.711,246.499c1.961,6.234,3.023,12.866,3.023,19.746c0,6.881-1.062,13.514-3.023,19.747
		c-9.607-1.461-16.977-9.732-16.977-19.747C301.734,256.232,309.104,247.96,318.711,246.499z"/>
	<path style="fill:#FFFFFF;" d="M355.962,446.552H156.041c-12.891,0-23.341-10.451-23.341-23.341l0,0
		c0-12.891,10.45-23.341,23.341-23.341h199.921c12.891,0,23.341,10.45,23.341,23.341l0,0
		C379.303,436.102,368.854,446.552,355.962,446.552z"/>
</g>
<path style="fill:#99FFF0;" d="M156.041,399.87c-12.891,0-23.341,10.45-23.341,23.341l0,0c0,12.891,10.45,23.341,23.341,23.341
	h107.456V399.87L156.041,399.87L156.041,399.87z"/>
<path d="M374.062,75.389H142.395l180.278-59.163c7.344-2.409,15.146-1.193,21.404,3.342c6.26,4.533,9.85,11.566,9.85,19.295v11.095
	c0,4.143,3.357,7.5,7.5,7.5s7.5-3.357,7.5-7.5V38.864c0-12.595-5.851-24.056-16.051-31.443c-10.201-7.388-22.91-9.372-34.881-5.445
	L128.073,64.304c-23.974,7.868-40.081,30.106-40.081,55.338v343.086c0,27.169,22.103,49.273,49.273,49.273h237.472
	c27.169,0,49.273-22.103,49.273-49.273v-337.39C424.01,97.797,401.604,75.389,374.062,75.389z M409.01,462.727
	c0,18.898-15.375,34.273-34.273,34.273H137.265c-18.898,0-34.273-15.375-34.273-34.273V119.641c0-11.124,4.217-21.464,11.369-29.252
	h259.701c19.27,0,34.948,15.678,34.948,34.948L409.01,462.727L409.01,462.727z"/>
<path d="M353.417,123.927h-194.83c-18.409,0-33.387,14.978-33.387,33.387v172.624c0,18.409,14.978,33.387,33.387,33.387h194.83
	c18.409,0,33.387-14.978,33.387-33.387V157.314C386.803,138.905,371.826,123.927,353.417,123.927z M371.803,329.938
	c0,10.139-8.249,18.387-18.387,18.387H158.587c-10.139,0-18.387-8.249-18.387-18.387V157.314c0-10.139,8.249-18.387,18.387-18.387
	h89.912v25.879h-9.719c-13.942,0-25.284,11.343-25.284,25.284v16.579c-18.581,13.296-30.727,35.038-30.727,59.577
	c0,40.381,32.852,73.232,73.232,73.232c8.154,0,16.165-1.332,23.808-3.959c3.917-1.347,6.002-5.613,4.655-9.53
	c-1.346-3.918-5.612-5.999-9.53-4.655c-6.071,2.087-12.441,3.145-18.933,3.145c-23.428,0-43.657-13.916-52.888-33.908
	c8.841-4.616,14.656-13.8,14.656-24.324c0-10.526-5.815-19.708-14.656-24.324c9.233-19.993,29.46-33.909,52.888-33.909
	s43.657,13.916,52.889,33.909c-8.841,4.616-14.656,13.799-14.656,24.324c0,10.539,5.831,19.732,14.691,24.343
	c-2.722,5.911-6.45,11.378-11.098,16.175c-2.883,2.975-2.808,7.723,0.167,10.605c2.974,2.882,7.723,2.809,10.604-0.168
	c13.307-13.732,20.634-31.828,20.634-50.954c0-24.539-12.146-46.283-30.727-59.577v-16.579c0-13.942-11.343-25.284-25.284-25.284
	h-9.725v-25.879h89.918c10.139,0,18.387,8.249,18.387,18.387L371.803,329.938L371.803,329.938z M283.508,198.394
	c-8.499-3.458-17.779-5.38-27.506-5.38c-9.726,0-19.007,1.922-27.506,5.38v-8.304c0-5.671,4.614-10.285,10.285-10.285h34.442
	c5.671,0,10.285,4.614,10.285,10.285L283.508,198.394L283.508,198.394z M202.768,266.247c0,3.655-1.639,7.013-4.244,9.325
	c-0.491-3.038-0.491-15.612,0-18.649C201.129,259.233,202.768,262.59,202.768,266.247z M309.234,266.247
	c0-3.656,1.639-7.014,4.244-9.325c0.491,3.038,0.491,15.592,0,18.649C310.873,273.26,309.234,269.902,309.234,266.247z"/>
<path d="M355.963,392.37H156.041c-17.005,0-30.841,13.836-30.841,30.841s13.836,30.841,30.841,30.841h199.922
	c17.006,0,30.841-13.836,30.841-30.841S372.967,392.37,355.963,392.37z M355.963,439.052H156.041
	c-8.735,0-15.842-7.106-15.842-15.842c0-8.736,7.106-15.842,15.842-15.842h199.922c8.735,0,15.842,7.106,15.842,15.842
	C371.804,431.946,364.698,439.052,355.963,439.052z"/>
<path d="M256.002,238.748c-15.163,0-27.499,12.337-27.499,27.499c0,15.163,12.337,27.499,27.499,27.499
	c15.163,0,27.499-12.337,27.499-27.499C283.501,251.084,271.164,238.748,256.002,238.748z M256.002,278.747
	c-6.893,0-12.5-5.607-12.5-12.5c0-6.893,5.607-12.5,12.5-12.5c6.893,0,12.5,5.607,12.5,12.5
	C268.501,273.14,262.894,278.747,256.002,278.747z"/>
<g>
</g>
<g>
</g>
<g>
</g>
<g>
</g>
<g>
</g>
<g>
</g>
<g>
</g>
<g>
</g>
<g>
</g>
<g>
</g>
<g>
</g>
<g>
</g>
<g>
</g>
<g>
</g>
<g>
</g>
</svg>
