<?xml version="1.0" encoding="iso-8859-1"?>
<!-- Generator: Adobe Illustrator 19.0.0, SVG Export Plug-In . SVG Version: 6.00 Build 0)  -->
<svg version="1.1" id="Capa_1" xmlns="http://www.w3.org/2000/svg" xmlns:xlink="http://www.w3.org/1999/xlink" x="0px" y="0px"
	 viewBox="0 0 511.999 511.999" style="enable-background:new 0 0 511.999 511.999;" xml:space="preserve">
<g>
	<path style="fill:#C93939;" d="M357.707,246.068c0,0,1.663,87.702,46.561,160.404c5.207,8.431-1.269,19.214-11.156,18.559
		c-18.64-1.233-40.458-2.24-40.458-2.24l-19.184,28.716c-5.383,8.058-17.561,6.927-21.352-1.991
		c-14.815-34.852-41.316-111.865-33.96-203.448C279.165,246.576,357.707,246.068,357.707,246.068z"/>
	<path style="fill:#C93939;" d="M154.293,246.068c0,0-1.663,87.702-46.561,160.404c-5.207,8.431,1.269,19.214,11.156,18.559
		c18.64-1.233,40.458-2.24,40.458-2.24l19.184,28.716c5.383,8.058,17.561,6.927,21.352-1.991
		c14.815-34.852,41.316-111.865,33.96-203.448C232.835,246.576,154.293,246.068,154.293,246.068z"/>
</g>
<g>
	<path style="fill:#AF3333;" d="M154.293,246.068c0,0-1.229,64.793-30.085,129.163c50.167-5.319,85.147-21.248,106.083-34.108
		c4.323-28.697,6.298-60.859,3.551-95.054C232.835,246.576,154.293,246.068,154.293,246.068z"/>
	<path style="fill:#AF3333;" d="M357.707,246.068c0,0,1.229,64.793,30.085,129.163c-50.167-5.319-85.147-21.248-106.083-34.108
		c-4.323-28.697-6.298-60.859-3.551-95.054C279.165,246.576,357.707,246.068,357.707,246.068z"/>
</g>
<path style="fill:#F24040;" d="M214.388,286.087l41.602-43.579l41.622,43.599c66.286,69.434,183.59,36.196,203.026-57.81
	c2.482-12.003,3.862-25.026,3.862-39.148c0-14.98-1.553-28.723-4.326-41.324c-20.417-92.77-136.953-124.36-202.545-55.652
	l-41.62,43.597L214.37,92.153C148.779,23.444,32.244,55.034,11.826,147.804C9.053,160.405,7.5,174.148,7.5,189.128
	c0,14.122,1.38,27.145,3.862,39.148C30.798,322.283,148.103,355.521,214.388,286.087z"/>
<path style="fill:#DD3C3C;" d="M350.575,59.792c-19.19,5.564-37.489,16.172-52.946,32.364l-41.62,43.597L214.37,92.136
	c-15.452-16.186-33.749-26.794-52.932-32.36c-39.821,29.188-65.713,76.282-65.713,129.326c0,53.055,25.937,100.178,65.772,129.365
	c19.154-5.549,37.405-16.177,52.889-32.397l41.603-43.579l41.622,43.599c15.479,16.214,33.722,26.84,52.869,32.391
	c39.846-29.186,65.793-76.315,65.793-129.379C416.273,136.066,390.384,88.981,350.575,59.792z"/>
<g>
	<path style="fill:#C93939;" d="M86.117,116L86.117,116c-6.253,12.432-1.198,27.72,11.234,33.973l77.824,39.145l-77.824,39.145
		c-12.432,6.253-17.487,21.541-11.234,33.973l0,0c6.253,12.432,21.541,17.487,33.973,11.234l121.997-61.363
		c8.869-4.461,13.98-13.521,13.912-22.861c0.001-0.042,0.001-0.085,0.001-0.128c-0.001-0.042,0-0.085-0.001-0.128
		c0.067-9.34-5.043-18.4-13.912-22.861L120.09,104.766C107.657,98.513,92.37,103.569,86.117,116z"/>
	<path style="fill:#C93939;" d="M425.883,116L425.883,116c6.253,12.432,1.198,27.72-11.234,33.973l-77.824,39.145l77.824,39.145
		c12.432,6.253,17.487,21.541,11.234,33.973l0,0c-6.253,12.432-21.541,17.487-33.973,11.234l-121.997-61.363
		c-8.869-4.461-13.98-13.521-13.912-22.861C256,189.204,256,189.161,256,189.118c0.001-0.042,0-0.085,0.001-0.128
		c-0.067-9.34,5.043-18.4,13.912-22.861l121.997-61.363C404.343,98.513,419.63,103.569,425.883,116z"/>
</g>
<g>
	<path style="fill:#AF3333;" d="M255.999,188.99c0.067-9.34-5.043-18.4-13.912-22.861L120.09,104.766
		c-0.079-0.04-0.16-0.074-0.239-0.113c-8.876,14.255-15.575,29.997-19.633,46.762l74.958,37.703l-74.958,37.703
		c4.058,16.764,10.757,32.506,19.633,46.762c0.079-0.039,0.16-0.073,0.239-0.113l121.997-61.363
		c8.869-4.461,13.98-13.521,13.912-22.861C256,189.203,256,189.033,255.999,188.99z"/>
	<path style="fill:#AF3333;" d="M256.001,188.99c-0.067-9.34,5.043-18.4,13.912-22.861l121.997-61.363
		c0.079-0.04,0.16-0.074,0.239-0.113c8.876,14.255,15.575,29.997,19.633,46.762l-74.958,37.703l74.958,37.703
		c-4.058,16.764-10.757,32.506-19.633,46.762c-0.079-0.039-0.16-0.073-0.239-0.113l-121.997-61.363
		c-8.869-4.461-13.98-13.521-13.912-22.861C256,189.203,256,189.033,256.001,188.99z"/>
</g>
<circle style="fill:#FF737D;" cx="256" cy="189.119" r="120.27"/>
<path style="fill:#FF5555;" d="M183.336,135.089c-3.105-2.74-3.402-7.479-0.662-10.586c18.59-21.072,45.316-33.158,73.326-33.158
	c4.143,0,7.5,3.357,7.5,7.5s-3.357,7.5-7.5,7.5c-23.708,0-46.943,9.716-62.078,28.082
	C189.856,139.361,184.762,136.347,183.336,135.089z"/>
<path style="fill:#57565C;" d="M271.079,183.59h-33.734c-6.579,0.021-10.368,1.747-10.271,7.116
	c0.316,17.522,4.049,49.573,27.138,49.573c23.088,0,26.822-32.052,27.138-49.573C281.447,185.337,277.658,183.611,271.079,183.59z"
	/>
<path style="fill:#FCD4DD;" d="M254.213,211.663c-9.281,0-17.54,3.231-22.865,8.256c3.715,11.201,10.524,20.361,22.865,20.361
	c12.341,0,19.15-9.16,22.865-20.361C271.753,214.894,263.493,211.663,254.213,211.663z"/>
<path d="M175.344,168.626c-4.143,0-7.5,3.357-7.5,7.5v12.45c0,4.143,3.357,7.5,7.5,7.5s7.5-3.357,7.5-7.5v-12.45
	C182.844,171.984,179.486,168.626,175.344,168.626z"/>
<path d="M343.56,190.429c3.826,5.138,9.724,2.921,11.12,1.941c3.607-2.535,4.476-7.514,1.941-11.12
	c-4.564-6.494-12.027-10.371-19.964-10.371s-15.4,3.877-19.964,10.371c-2.535,3.606-1.666,8.585,1.941,11.12
	c3.606,2.534,8.584,1.666,11.12-1.941c1.602-2.279,4.118-3.586,6.904-3.586S341.896,188.196,343.56,190.429z"/>
<path d="M271.104,176.09c-0.008,0-0.017,0-0.024,0h-33.758c-4.08,0.014-9.972,0.509-14.015,4.639
	c-1.753,1.79-3.823,4.998-3.731,10.113c0.653,36.185,13.278,56.938,34.637,56.938s33.984-20.753,34.638-56.938
	c0.092-5.114-1.979-8.322-3.731-10.112C281.075,176.599,275.184,176.104,271.104,176.09z M254.212,232.78
	c-16.728,0-19.318-28.454-19.624-41.5c0.575-0.096,38.673-0.096,39.249,0.001C273.531,204.326,270.94,232.78,254.212,232.78z"/>
<path d="M507.499,146.211c-4.828-21.937-14.732-41.241-29.438-57.379c-13.627-14.954-31.092-26.554-50.507-33.545
	c-40.75-14.674-85.076-8.174-119.13,17.314C292.421,65.372,274.672,61.345,256,61.345c-18.663,0-36.404,4.024-52.403,11.247
	c-26.006-19.481-58.04-28.022-90.766-24.06C78.64,52.666,47.36,70.378,27.013,97.124c-2.508,3.297-1.869,8.002,1.428,10.51
	c1.357,1.032,5.985,3.79,10.51-1.428c19.377-22.344,45.492-39.132,75.683-42.783c26.438-3.202,52.367,2.842,74.145,17.082
	c-13.761,8.548-25.788,19.632-35.417,32.601L123.46,98.065c-16.158-8.127-35.914-1.592-44.043,14.564
	c-8.127,16.158-1.593,35.916,14.564,44.043l35.107,17.658c-0.562,4.853-0.861,9.786-0.861,14.787s0.299,9.933,0.86,14.786
	l-35.107,17.66c-7.802,3.925-13.617,10.678-16.375,19.015c-2.757,8.338-2.114,17.227,1.811,25.028
	c5.757,11.444,22.794,23.341,44.043,14.564l29.902-15.04c9.631,12.971,21.661,24.057,35.425,32.606
	c-29.193,19.086-65.649,23.255-99.391,10.941c-17.342-6.328-32.884-16.8-44.947-30.281c-13-14.527-21.66-31.901-25.74-51.638
	C16.247,214.865,15,202.204,15,189.128c0-13.837,1.396-27.198,4.15-39.712c1.341-6.089,3.161-12.045,5.411-17.702
	c1.53-3.85-0.35-8.21-4.198-9.74c-3.846-1.533-8.21,0.348-9.74,4.197c-2.548,6.407-4.607,13.144-6.121,20.021
	C1.515,159.763,0,174.208,0,189.128c0,14.095,1.352,27.777,4.018,40.667c8.918,43.137,38.912,77.893,80.234,92.973
	c14.534,5.305,32.155,7.925,48.261,7.826c-7.811,26.891-18.269,51.059-31.162,71.938c-3.894,6.304-3.94,14.16-0.123,20.503
	c3.814,6.338,10.781,9.972,18.155,9.481c13.498-0.894,28.833-1.675,36.084-2.029l16.826,25.187c3.68,5.509,9.829,8.759,16.369,8.758
	c0.613,0,12.73,0,18.122-11.98c11.02-24.485,28.473-74.511,34.077-136.46c4.966,0.589,10.016,0.901,15.138,0.901
	c18.651,0,36.381-4.019,52.371-11.233c16.5,12.37,35.38,20.262,55.109,23.436c8.331,30.47,19.891,57.814,34.408,81.321
	c1.359,2.2,0.476,4.149,0.033,4.886c-0.441,0.732-1.733,2.419-4.313,2.249c-18.5-1.226-40.389-2.239-40.607-2.249
	c-2.633-0.11-5.123,1.141-6.582,3.326l-19.184,28.715c-1.403,2.103-3.501,2.147-4.345,2.069c-0.836-0.078-2.885-0.511-3.869-2.827
	c-10.004-23.534-23.372-61.542-30.249-108.959c-0.594-4.1-4.411-6.949-8.498-6.346c-4.1,0.594-6.94,4.399-6.346,8.498
	c7.106,49.009,20.671,88.438,31.288,112.675c5.248,11.979,17.509,11.979,18.122,11.979c6.539,0,12.69-3.25,16.369-8.758
	l16.826-25.187c7.251,0.354,22.584,1.136,36.084,2.029c7.394,0.489,14.341-3.145,18.155-9.481
	c3.817-6.343,3.771-14.199-0.123-20.502c-12.891-20.876-23.346-45.033-31.155-71.913c1.3,0.04,26.619-0.494,47.45-7.541
	c42.005-14.209,72.05-49.792,81.038-93.263c2.666-12.89,4.018-26.572,4.018-40.667C512,174.23,510.485,159.783,507.499,146.211z
	 M100.721,143.273c-8.769-4.41-12.314-15.133-7.904-23.902c4.411-8.769,15.133-12.316,23.902-7.904l28.368,14.269
	c-5.885,10.258-10.381,21.409-13.247,33.19L100.721,143.273z M116.719,266.77c-8.766,4.411-19.49,0.865-23.902-7.904
	c-2.124-4.223-2.468-9.045-0.969-13.578c1.499-4.534,4.65-8.2,8.873-10.324l31.119-15.653c2.865,11.782,7.361,22.933,13.247,33.191
	L116.719,266.77z M192.979,446.582c-0.984,2.317-3.033,2.75-3.869,2.828c-0.837,0.081-2.939,0.033-4.345-2.069l-19.184-28.715
	c-1.46-2.186-3.94-3.434-6.582-3.326c-0.219,0.01-22.107,1.023-40.607,2.249c-2.577,0.172-3.871-1.517-4.313-2.249
	c-0.442-0.736-1.326-2.686,0.033-4.887c14.518-23.508,26.08-50.862,34.414-81.344c19.714-3.173,38.583-11.069,55.073-23.424
	c7.157,3.231,14.665,5.814,22.446,7.691C220.764,373.851,203.208,422.52,192.979,446.582z M143.227,189.118
	c0-62.184,50.59-112.773,112.773-112.773s112.773,50.59,112.773,112.773S318.183,301.89,256,301.89S143.227,251.301,143.227,189.118
	z M380.16,219.31l31.119,15.653c8.77,4.411,12.315,15.134,7.904,23.902c-4.411,8.768-15.132,12.315-23.902,7.904L366.914,252.5
	C372.799,242.243,377.295,231.092,380.16,219.31z M366.913,125.735l28.368-14.269c8.768-4.409,19.491-0.865,23.902,7.904
	c4.41,8.77,0.864,19.492-7.904,23.902l-31.119,15.653C377.295,147.144,372.799,135.993,366.913,125.735z M493.293,226.778
	c-7.92,38.306-34.61,69.025-71.398,82.176c-33.616,12.017-69.726,7.747-98.7-11.205c13.773-8.55,25.809-19.641,35.445-32.619
	l29.901,15.04c23.242,10.508,38.286-3.122,44.043-14.564c8.127-16.158,1.594-35.916-14.564-44.043l-35.107-17.659
	c0.562-4.853,0.86-9.785,0.86-14.786c0-5.001-0.299-9.934-0.861-14.787l35.107-17.658c16.157-8.127,22.691-27.885,14.564-44.043
	c-8.128-16.158-27.883-22.69-44.043-14.564l-29.902,15.04c-9.622-12.959-21.638-24.037-35.386-32.582
	c29.129-19.016,65.543-23.25,99.221-11.124c36.417,13.114,62.068,42.286,70.377,80.036c2.754,12.515,4.15,25.876,4.15,39.713
	C497,202.225,495.753,214.885,493.293,226.778z"/>
<g>
</g>
<g>
</g>
<g>
</g>
<g>
</g>
<g>
</g>
<g>
</g>
<g>
</g>
<g>
</g>
<g>
</g>
<g>
</g>
<g>
</g>
<g>
</g>
<g>
</g>
<g>
</g>
<g>
</g>
</svg>
