<?xml version="1.0" encoding="iso-8859-1"?>
<!-- Generator: Adobe Illustrator 19.0.0, SVG Export Plug-In . SVG Version: 6.00 Build 0)  -->
<svg version="1.1" id="Capa_1" xmlns="http://www.w3.org/2000/svg" xmlns:xlink="http://www.w3.org/1999/xlink" x="0px" y="0px"
	 viewBox="0 0 512 512" style="enable-background:new 0 0 512 512;" xml:space="preserve">
<g>
	<path style="fill:#C94536;" d="M66.564,395.482L66.564,395.482c-15.041-13.075-16.65-36.079-3.575-51.121l56.908-65.465
		c13.075-15.041,36.079-16.65,51.121-3.575l0,0c15.041,13.075,16.65,36.079,3.575,51.121l-56.908,65.465
		C104.61,406.948,81.605,408.557,66.564,395.482z"/>
	<path style="fill:#C94536;" d="M445.437,395.482L445.437,395.482c15.041-13.075,16.65-36.079,3.575-51.121l-56.908-65.465
		c-13.075-15.041-36.079-16.65-51.121-3.575l0,0c-15.041,13.075-16.65,36.079-3.575,51.121l56.908,65.465
		C407.392,406.948,430.396,408.557,445.437,395.482z"/>
	<path style="fill:#C94536;" d="M320.086,504.5L320.086,504.5c-15.242,0-27.712-12.471-27.712-27.712v-78.222
		c0-15.242,12.471-27.712,27.712-27.712l0,0c15.242,0,27.712,12.471,27.712,27.712v78.222
		C347.798,492.029,335.327,504.5,320.086,504.5z"/>
	<path style="fill:#C94536;" d="M191.916,504.5L191.916,504.5c-15.242,0-27.712-12.471-27.712-27.712v-78.222
		c0-15.242,12.471-27.712,27.712-27.712l0,0c15.242,0,27.712,12.471,27.712,27.712v78.222
		C219.628,492.029,207.158,504.5,191.916,504.5z"/>
</g>
<path style="fill:#FF7956;" d="M106.265,349.971c0,72.819,67.039,131.85,149.736,131.85s149.736-59.031,149.736-131.85
	s-67.039-194.978-149.736-194.978S106.265,277.152,106.265,349.971z"/>
<g>
	<path style="fill:#FF6243;" d="M277.684,366.344c48.977-37.373,50.348-81.767,50.348-81.767l-23.977-115.883
		c-15.083-8.654-31.245-13.701-48.054-13.701c-82.697,0-149.736,122.159-149.736,194.978s67.039,131.85,149.736,131.85
		c0.214,0,0.426-0.006,0.639-0.007c-6.172-14.23-9.493-28.09-11.037-40.697C242.068,412.27,254.579,383.974,277.684,366.344z"/>
	<path style="fill:#FF6243;" d="M296.144,446.156c-1.424-3.89,0.574-8.197,4.464-9.622c20.203-7.397,37.285-19.539,49.399-35.113
		c2.544-3.27,7.258-3.857,10.524-1.315c3.27,2.543,3.858,7.255,1.315,10.525c-13.843,17.796-33.037,32.187-56.081,39.989
		C301.623,452.023,297.258,449.195,296.144,446.156z"/>
</g>
<path style="fill:#F9CC95;" d="M319.067,213.202c-0.183-0.001-125.949-0.001-126.132,0C105.43,226.739,82.28,280.813,76.664,316.1
	c-2.366,14.867,11.944,26.889,26.15,21.908l41.986-14.719l32.313,34.916c10.119,10.934,26.658,12.957,39.114,4.783l39.774-26.1
	l39.774,26.1c12.456,8.174,28.995,6.151,39.114-4.783l32.313-34.916l41.986,14.719c14.206,4.98,28.516-7.042,26.15-21.908
	C429.721,280.813,406.571,226.739,319.067,213.202z"/>
<path style="fill:#EAB275;" d="M313.264,213.202c-24.722,0-120.17,0-120.329,0C105.43,226.739,82.28,280.813,76.664,316.1
	c-2.366,14.867,11.944,26.889,26.15,21.908l41.986-14.719l32.313,34.916c10.119,10.934,26.658,12.957,39.114,4.783l39.774-26.1
	l31.919,20.946c38.934-35.275,40.113-73.256,40.113-73.256L313.264,213.202z"/>
<path style="fill:#DB543E;" d="M92.019,143.068l84.933-74.171c0,0-41.042-41.423-99.465-57.029
	c-15.721-4.199-30.593,9.017-28.592,25.166C52.166,63.419,62.272,103.484,92.019,143.068z"/>
<path style="fill:#A03527;" d="M98.642,97.455c-7.754-14.972-12.723-29.369-15.887-42.126c-1.215-4.898,3.687-9.109,8.347-7.171
	c15.297,6.364,28.686,14.336,39.245,21.609L98.642,97.455z"/>
<path style="fill:#DB543E;" d="M419.983,143.068L335.05,68.897c0,0,41.042-41.423,99.465-57.029
	c15.721-4.199,30.593,9.017,28.592,25.166C459.836,63.419,449.73,103.484,419.983,143.068z"/>
<path style="fill:#A03527;" d="M413.36,97.455c7.754-14.972,12.723-29.369,15.887-42.126c1.215-4.898-3.687-9.109-8.347-7.171
	c-15.297,6.364-28.686,14.336-39.245,21.609L413.36,97.455z"/>
<path style="fill:#FFE7CA;" d="M456.918,190.205c12.633-4.177,18.665-18.633,12.652-30.503C394.192,10.885,289.773,7.5,256.003,7.5
	S117.81,10.885,42.432,159.702c-6.012,11.87,0.019,26.326,12.652,30.503c11.502,3.803,23.016,7.358,23.016,7.358l-10.656,26.878
	c-4.249,10.719,0.555,22.896,10.99,27.803c29.66,13.947,93.561,38.351,177.569,38.351c84.007,0,147.906-24.404,177.565-38.351
	c10.434-4.907,15.239-17.084,10.99-27.803l-10.656-26.878C433.902,197.563,445.416,194.008,456.918,190.205z"/>
<path style="fill:#F9CC95;" d="M284.852,9.157C272.837,7.645,262.931,7.5,256.003,7.5c-33.77,0-138.193,3.385-213.571,152.202
	c-6.012,11.87,0.019,26.326,12.652,30.503c11.502,3.803,23.016,7.358,23.016,7.358l-10.656,26.878
	c-4.249,10.719,0.555,22.896,10.99,27.803c27.627,12.991,84.978,35.056,160.599,38.019C159.919,178.967,242.345,58.88,284.852,9.157
	z"/>
<path style="fill:#FF7956;" d="M256.003,7.5C223.062,7.5,122.9,10.747,48.04,149.027c2.04-1.506,124.054-90.789,197.738,42.822
	c0.7-1.002,19.748-1.002,20.447,0c73.684-133.611,195.698-44.327,197.738-42.822C389.102,10.747,288.943,7.5,256.003,7.5z"/>
<path style="fill:#FF6243;" d="M256.003,7.5C223.062,7.5,122.9,10.747,48.04,149.027c1.742-1.286,90.947-66.557,162.853-2.445
	C224.055,87.828,260.828,37.258,284.85,9.157C272.839,7.645,262.93,7.5,256.003,7.5z"/>
<circle style="fill:#57565C;" cx="256.001" cy="194.53" r="23.451"/>
<path d="M336.657,191.695c4.143,0,7.5-3.358,7.5-7.5v-12.451c0-4.142-3.357-7.5-7.5-7.5s-7.5,3.358-7.5,7.5v12.451
	C329.157,188.337,332.514,191.695,336.657,191.695z"/>
<path d="M175.345,191.695c4.142,0,7.5-3.358,7.5-7.5v-12.451c0-4.142-3.358-7.5-7.5-7.5s-7.5,3.358-7.5,7.5v12.451
	C167.845,188.337,171.202,191.695,175.345,191.695z"/>
<path d="M178.063,217.982c0-4.142-3.358-7.5-7.5-7.5H136.31c-4.142,0-7.5,3.358-7.5,7.5s3.358,7.5,7.5,7.5h34.253
	C174.705,225.482,178.063,222.124,178.063,217.982z"/>
<path d="M177.88,237.648l-21.37,8.339c-3.859,1.506-5.766,5.854-4.26,9.713c1.156,2.963,5.026,6.076,9.713,4.26l21.37-8.339
	c3.859-1.506,5.766-5.854,4.26-9.713C186.088,238.05,181.739,236.143,177.88,237.648z"/>
<path d="M375.691,210.482h-34.253c-4.143,0-7.5,3.358-7.5,7.5s3.357,7.5,7.5,7.5h34.253c4.143,0,7.5-3.358,7.5-7.5
	S379.834,210.482,375.691,210.482z"/>
<path d="M355.492,245.987l-21.37-8.339c-3.858-1.506-8.208,0.401-9.714,4.26c-1.505,3.859,0.402,8.208,4.261,9.713l21.37,8.339
	c4.826,1.624,8.558-1.297,9.714-4.26C361.258,251.842,359.35,247.493,355.492,245.987z"/>
<path d="M476.261,156.313c-8.479-16.74-17.576-32.16-27.259-46.278c13.879-28.392,19.386-54.638,21.548-72.08
	c1.256-10.138-2.59-20.193-10.288-26.897c-7.61-6.628-17.96-9.034-27.683-6.437c-20.866,5.574-41.722,14.849-62.082,27.581
	c-10.766-6.75-21.942-12.49-33.531-17.174c-3.843-1.553-8.213,0.302-9.764,4.143c-1.553,3.84,0.303,8.212,4.143,9.764
	c43.311,17.506,80.756,50.812,111.672,99.221c-21.742-10.516-54.992-21.702-90.137-15.399
	c-31.625,5.672-58.748,24.301-80.708,55.397c-4.71-2.898-10.248-4.574-16.172-4.574s-11.462,1.676-16.172,4.574
	c-21.86-30.954-48.833-49.555-80.281-55.319c-35.287-6.467-68.712,4.759-90.544,15.314c27.864-43.592,61.087-75.011,99.113-93.616
	C208.036,15,242.884,15,256.003,15c11.276,0,26.558,0.51,44.787,4.491c4.053,0.887,8.044-1.682,8.927-5.727
	c0.884-4.047-1.681-8.044-5.728-8.927C284.359,0.55,268.033,0,256.003,0c-14.068,0-51.439,0-94.479,21.058
	c-6.817,3.335-13.479,7.062-19.994,11.151c-20.377-12.742-41.249-22.016-62.108-27.588c-9.724-2.598-20.073-0.19-27.683,6.438
	c-7.698,6.705-11.544,16.76-10.287,26.897c2.152,17.367,7.653,43.656,21.552,72.083c-9.694,14.122-18.792,29.547-27.265,46.274
	c-3.841,7.584-4.18,16.454-0.93,24.333c3.266,7.914,9.796,13.993,17.918,16.679c5.545,1.833,11.128,3.621,15.422,4.979l-7.68,19.372
	c-5.698,14.372,0.79,30.78,14.771,37.354c3.922,1.844,8.278,3.797,13.032,5.804c-9.66,14.643-16.049,31.437-19.016,50.086
	c-0.565,3.549-0.435,7.075,0.321,10.428l-12.25,14.092c-7.638,8.787-11.395,20.059-10.578,31.741s6.106,22.322,14.893,29.96
	c8.211,7.138,18.44,10.727,28.689,10.727c7.504,0,15.015-1.934,21.751-5.8c10.099,20.27,25.49,38.019,44.619,51.863v18.855
	c0,19.417,15.796,35.212,35.212,35.212c15.97,0,29.482-10.69,33.779-25.287c9.81,1.705,19.941,2.608,30.306,2.608
	c10.365,0,20.496-0.903,30.306-2.608c4.3,14.599,17.812,25.289,33.782,25.289c19.416,0,35.212-15.796,35.212-35.212v-18.855
	c19.124-13.841,34.512-31.585,44.611-51.848c6.72,3.871,14.231,5.821,21.753,5.821c10.207,0,20.428-3.576,28.696-10.764
	c8.786-7.638,14.075-18.278,14.892-29.96s-2.938-22.955-10.577-31.741l-12.25-14.093c0.756-3.353,0.886-6.879,0.322-10.427
	c-2.968-18.649-9.358-35.445-19.018-50.089c4.841-2.041,9.197-3.997,13.033-5.801c13.98-6.574,20.468-22.982,14.77-37.354
	l-7.679-19.372c4.294-1.359,9.877-3.146,15.422-4.979c8.122-2.686,14.653-8.765,17.919-16.68
	C480.442,172.767,480.102,163.898,476.261,156.313z M436.45,19.113c4.972-1.329,10.06-0.142,13.96,3.256
	c3.99,3.475,5.904,8.483,5.253,13.741c-1.83,14.769-6.252,36.311-16.73,59.984c-3.489-4.574-7.052-8.983-10.681-13.239
	c3.331-8.375,6.112-17.005,8.274-25.722c1.248-5.031-0.424-10.259-4.361-13.643c-3.939-3.384-9.359-4.25-14.146-2.258
	c-7.021,2.921-14.119,6.382-21.119,10.266c-4.179-3.524-8.436-6.862-12.762-10.034C401.404,31.295,418.952,23.787,436.45,19.113z
	 M408.742,62.154c4.183-2.185,8.383-4.206,12.556-6.017c-1.261,4.777-2.726,9.519-4.372,14.196
	C414.233,67.526,411.506,64.798,408.742,62.154z M256.001,178.58c8.796,0,15.951,7.155,15.951,15.951s-7.155,15.951-15.951,15.951
	c-8.795,0-15.951-7.156-15.951-15.951S247.205,178.58,256.001,178.58z M95.084,70.36c-1.649-4.686-3.118-9.436-4.381-14.223
	c4.18,1.814,8.383,3.847,12.577,6.038C100.513,64.822,97.781,67.551,95.084,70.36z M56.339,36.111
	c-0.651-5.258,1.263-10.266,5.253-13.741c3.9-3.396,8.99-4.584,13.96-3.256c17.494,4.673,35.054,12.19,52.336,22.37
	c-4.32,3.169-8.568,6.514-12.742,10.033c-7.03-3.902-14.128-7.357-21.163-10.284c-4.788-1.992-10.208-1.127-14.146,2.259
	c-3.938,3.384-5.609,8.612-4.361,13.643c2.164,8.724,4.948,17.361,8.282,25.743c-3.632,4.257-7.197,8.667-10.689,13.24
	C62.568,72.4,58.162,50.824,56.339,36.111z M71.485,389.822c-5.763-5.01-17.077-23.266-2.835-40.54l8.818-10.144
	c0.415,0.391,5.66,8.668,21.347,7.374c-0.031,1.167-1.921,21.477,7.315,45.624C95.455,399.16,81.282,398.337,71.485,389.822z
	 M191.916,497c-11.145,0-20.212-9.067-20.212-20.212v-9.235c12.071,6.821,25.259,12.217,39.26,15.933
	C208.191,491.344,200.711,497,191.916,497z M340.298,476.788c0,11.145-9.067,20.212-20.212,20.212
	c-8.795,0-16.275-5.656-19.048-13.514c14-3.716,27.189-9.112,39.26-15.933V476.788z M256.001,474.321
	c-78.429,0-142.236-55.783-142.236-124.35c0-2.559,0.101-5.224,0.279-7.952l28.594-10.024l28.971,31.305
	c12.659,13.678,33.154,16.183,48.733,5.959l35.659-23.4l35.658,23.4c6.42,4.212,13.671,6.264,20.867,6.263
	c10.27,0,20.424-4.18,27.867-12.222l28.971-31.305l28.595,10.025c0.177,2.724,0.277,5.389,0.277,7.951
	C398.236,418.538,334.429,474.321,256.001,474.321z M440.516,389.822c-9.718,8.449-24.107,9.161-34.64,2.301
	c4.775-13.304,7.359-27.465,7.359-42.152c0-1.138-0.016-2.292-0.047-3.459c15.281,0.819,20.93-6.983,21.345-7.375l8.818,10.145
	C456.781,366.827,446.279,384.812,440.516,389.822z M463.325,174.925c-5.36,10.558-31.521,15.436-31.636,15.472
	c-1.997,0.617-3.646,2.039-4.551,3.924c-0.903,1.885-0.979,4.062-0.208,6.006l10.655,26.878c2.784,7.024-0.382,15.042-7.209,18.252
	c-29.893,14.057-92.297,37.638-174.374,37.638c-11.773,0-23.694-0.496-35.429-1.475c-4.129-0.339-7.753,2.723-8.097,6.851
	s2.723,7.753,6.851,8.097c12.148,1.013,24.487,1.526,36.675,1.526c65.018,0,118.161-14.321,153.448-27.584
	c9.466,13.448,15.676,29.146,18.48,46.767c0.695,4.369-0.91,8.664-4.294,11.49c-3.408,2.846-7.771,3.635-11.968,2.163
	l-41.985-14.719c-2.817-0.989-5.957-0.21-7.986,1.983l-32.313,34.917c-7.66,8.278-20.067,9.793-29.494,3.606l-39.773-26.101
	c-2.5-1.64-5.732-1.639-8.23,0l-39.774,26.101c-9.43,6.188-21.834,4.67-29.495-3.606l-32.313-34.917
	c-2.029-2.193-5.168-2.972-7.986-1.983l-41.985,14.719c-4.199,1.471-8.561,0.682-11.969-2.164c-3.384-2.826-4.989-7.12-4.293-11.489
	c2.804-17.616,9.011-33.31,18.471-46.755c22.098,8.313,50.579,16.598,84.373,22.134c4.94,0.809,7.996-2.541,8.581-6.235
	c0.647-4.091-2.144-7.933-6.235-8.581c-48.302-7.646-85.193-21.832-107.636-32.385c-6.827-3.21-9.994-11.228-7.209-18.251
	l10.655-26.878c0.771-1.944,0.695-4.121-0.209-6.006c-0.903-1.885-2.553-3.308-4.551-3.924c-0.114-0.036-27.669-4.254-31.635-15.471
	c-3.748-10.601,3.55-17.853,5.13-20.802c8.406-5.859,53.993-35.524,103.036-26.536c28.191,5.167,52.504,22.501,72.334,51.53
	c-2.62,4.542-4.128,9.803-4.128,15.413c0,17.066,13.885,30.951,30.951,30.951c17.066,0,30.951-13.885,30.951-30.951
	c0-5.613-1.509-10.876-4.132-15.42c19.915-29.154,44.362-46.505,72.709-51.589c48.907-8.773,94.272,20.753,102.662,26.601
	C459.772,157.072,467.193,167.306,463.325,174.925z"/>
<g>
</g>
<g>
</g>
<g>
</g>
<g>
</g>
<g>
</g>
<g>
</g>
<g>
</g>
<g>
</g>
<g>
</g>
<g>
</g>
<g>
</g>
<g>
</g>
<g>
</g>
<g>
</g>
<g>
</g>
</svg>
