<?xml version="1.0" encoding="iso-8859-1"?>
<!-- Generator: Adobe Illustrator 19.0.0, SVG Export Plug-In . SVG Version: 6.00 Build 0)  -->
<svg version="1.1" id="Capa_1" xmlns="http://www.w3.org/2000/svg" xmlns:xlink="http://www.w3.org/1999/xlink" x="0px" y="0px"
	 viewBox="0 0 512 512" style="enable-background:new 0 0 512 512;" xml:space="preserve">
<g>
	<path style="fill:#B3DBF4;" d="M235.304,101.619c-14.502-31.424-46.284-53.235-83.165-53.235s-68.663,21.811-83.165,53.235
		C34.525,104.637,7.5,133.542,7.5,168.775c0,36.819,29.514,66.726,66.172,67.401v0.032h155.673
		c37.242,0,67.433-30.191,67.433-67.433C296.778,133.542,269.753,104.637,235.304,101.619z"/>
	<path style="fill:#B3DBF4;" d="M443.026,101.619c-14.502-31.424-46.284-53.235-83.165-53.235s-68.663,21.811-83.165,53.235
		c-34.449,3.019-61.474,31.924-61.474,67.156c0,36.819,29.514,66.726,66.172,67.401v0.032h155.673
		c37.242,0,67.433-30.191,67.433-67.433C504.5,133.542,477.475,104.637,443.026,101.619z"/>
</g>
<g>
	<path style="fill:#94CBED;" d="M228.375,236.208c37.041,0,67.897-29.465,68.396-66.503c0.481-35.653-26.716-65.041-61.468-68.087
		c-12.191-26.415-36.593-46.032-65.969-51.616c-1.492,0.902-27.051,13.435-48.56,43.879c-4.558,6.451-11.012,11.281-18.434,13.987
		c-19.925,7.264-37.985,19.232-52.651,35.151c-16.038,17.408-27.01,38.483-32.132,61.167c11.677,18.868,32.393,31.553,56.113,31.99
		v0.032H228.375z"/>
	<path style="fill:#94CBED;" d="M283.625,236.208c-37.041,0-67.897-29.465-68.396-66.503c-0.481-35.653,26.716-65.041,61.468-68.087
		c12.191-26.415,36.593-46.032,65.969-51.616c1.492,0.902,27.051,13.435,48.56,43.879c4.558,6.451,11.012,11.281,18.434,13.987
		c19.925,7.264,37.985,19.232,52.651,35.151c16.038,17.408,27.01,38.483,32.132,61.167c-11.677,18.868-32.393,31.553-56.113,31.99
		v0.032H283.625z"/>
</g>
<path style="fill:#CAE7FC;" d="M371.999,134.137C351.771,90.306,307.442,59.885,256,59.885s-95.772,30.422-115.999,74.252
	c-48.05,4.211-85.745,44.527-85.745,93.67c0,51.356,41.166,93.07,92.297,94.012l217.134,0.045c51.946,0,94.056-42.111,94.056-94.056
	C457.744,178.664,420.049,138.348,371.999,134.137z"/>
<g>
	<path style="fill:#B3DBF4;" d="M176.872,205.97C161.211,94.607,274.274,61.903,275.895,61.44
		c-6.484-1.015-13.126-1.555-19.895-1.555c-51.442,0-95.772,30.422-116,74.252c-48.049,4.211-85.744,44.527-85.744,93.67
		c0,51.356,41.166,93.07,92.297,94.012v0.045h39.102c-16.209-20.613-15.01-45.643-10.859-63.775
		C178.706,241.009,179.312,223.321,176.872,205.97z"/>
	<path style="fill:#B3DBF4;" d="M363.688,299.363c-4.143,0-7.5-3.358-7.5-7.5s3.357-7.5,7.5-7.5c20.364,0,39.255-11.06,49.3-28.864
		c2.035-3.606,6.609-4.883,10.218-2.847c3.607,2.036,4.882,6.61,2.847,10.218C413.352,285.38,389.455,299.363,363.688,299.363z"/>
</g>
<path style="fill:#57565C;" d="M236.88,250.031l-28.95-18.228c-10.272-6.468-13.992-19.964-7.894-30.46
	c6.403-11.02,20.605-14.448,31.297-7.715l14.716,9.266c6.058,3.814,13.767,3.814,19.825,0l14.716-9.266
	c10.465-6.589,24.285-3.447,30.874,7.016c6.588,10.463,3.446,24.286-7.017,30.874l-29.404,18.514
	C263.383,257.374,248.542,257.374,236.88,250.031z"/>
<g>
	<path style="fill:#FF737D;" d="M288.787,241.383c-4.224-10.713-17.298-18.523-32.78-18.523c-15.5,0-28.587,7.829-32.795,18.561
		l13.674,8.61c11.662,7.343,26.503,7.343,38.166,0L288.787,241.383z"/>
	<path style="fill:#FF737D;" d="M148.777,233.619h-19.915c-6.515,0-11.846-5.331-11.846-11.846l0,0
		c0-6.515,5.331-11.846,11.846-11.846h19.915c6.515,0,11.846,5.331,11.846,11.846l0,0
		C160.623,228.288,155.292,233.619,148.777,233.619z"/>
	<path style="fill:#FF737D;" d="M383.139,233.619h-19.915c-6.515,0-11.846-5.331-11.846-11.846l0,0
		c0-6.515,5.331-11.846,11.846-11.846h19.915c6.515,0,11.846,5.331,11.846,11.846l0,0
		C394.985,228.288,389.654,233.619,383.139,233.619z"/>
</g>
<path d="M344.156,198.251V185.8c0-4.142-3.357-7.5-7.5-7.5s-7.5,3.358-7.5,7.5v12.451c0,4.142,3.357,7.5,7.5,7.5
	S344.156,202.393,344.156,198.251z"/>
<path d="M182.844,198.251V185.8c0-4.142-3.357-7.5-7.5-7.5s-7.5,3.358-7.5,7.5v12.451c0,4.142,3.357,7.5,7.5,7.5
	S182.844,202.393,182.844,198.251z"/>
<path d="M232.884,256.377c7.011,4.415,15.043,6.622,23.079,6.621c8.033-0.001,16.069-2.208,23.078-6.621l29.404-18.513
	c13.945-8.781,18.147-27.271,9.367-41.217c-8.781-13.944-27.27-18.147-41.217-9.366l-14.717,9.266
	c-3.594,2.264-8.239,2.263-11.833,0l-14.716-9.266c-22.569-12.924-37.66,3.206-41.779,10.294
	c-7.982,13.741-3.325,31.942,10.383,40.574L232.884,256.377z M206.521,205.111c2.056-3.537,10.448-10.82,20.817-5.137l14.716,9.266
	c8.448,5.32,19.369,5.322,27.817,0l14.717-9.266c6.947-4.374,16.158-2.279,20.531,4.666c4.374,6.947,2.28,16.157-4.666,20.531
	l-29.404,18.513c-9.163,5.77-21.008,5.771-30.173,0l-28.95-18.228C204.972,221.078,202.547,211.951,206.521,205.111z"/>
<path d="M492.197,118.035c-11.709-12.709-27.284-20.915-44.229-23.387c-16.895-32.796-51.02-53.764-88.106-53.764
	c-21.385,0-41.638,6.684-58.741,19.319c-14.276-5.081-29.503-7.818-45.12-7.818c-51.135,0-98.145,29.201-120.952,74.75
	c-23.55,3.077-45.237,14.304-61.454,31.906c-15.941,17.304-25.265,39.393-26.64,62.745C27.489,211.577,15,191.415,15,168.775
	c0-15.083,5.624-29.493,15.835-40.577c10.151-11.02,23.929-17.806,38.793-19.108c2.68-0.235,5.028-1.886,6.155-4.329
	c13.704-29.692,43.675-48.877,76.356-48.877c8.785,0,17.438,1.348,25.716,4.006c3.946,1.266,8.167-0.905,9.434-4.849
	s-0.904-8.167-4.848-9.434c-9.764-3.134-19.958-4.724-30.302-4.724c-37.087,0-71.213,20.967-88.107,53.764
	c-16.945,2.473-32.521,10.678-44.229,23.387C7.033,131.896,0,149.916,0,168.775c0,31.067,18.805,58.408,47.319,69.653
	c1.5,14.297,6.006,28.148,13.266,40.56c2.09,3.576,6.687,4.776,10.26,2.688c3.576-2.091,4.779-6.685,2.688-10.261
	c-7.704-13.172-11.776-28.251-11.776-43.608c0-21.783,8.122-42.595,22.87-58.603c14.661-15.914,34.56-25.714,56.029-27.596
	c2.68-0.235,5.028-1.886,6.155-4.329C166.405,94.82,209.265,67.385,256,67.385s89.595,27.435,109.189,69.895
	c1.127,2.442,3.476,4.094,6.155,4.329c21.47,1.882,41.368,11.682,56.029,27.596c14.748,16.008,22.87,36.82,22.87,58.603
	c0,47.727-38.829,86.556-86.555,86.556l-217.063-0.044c-19.955-0.382-39.297-7.719-54.47-20.662
	c-3.151-2.689-7.886-2.313-10.573,0.839c-2.688,3.151-2.313,7.885,0.839,10.573c17.824,15.205,40.551,23.817,63.991,24.249
	c0.046,0.001,0.092,0.001,0.137,0.001l217.137,0.044c52.406,0,95.666-39.902,101-90.919C493.195,227.193,512,199.839,512,168.775
	C512,149.916,504.967,131.896,492.197,118.035z M465.047,221.803c-1.371-23.359-10.696-45.454-26.641-62.762
	c-16.217-17.602-37.904-28.83-61.454-31.906c-13.093-26.148-34.17-46.892-59.417-59.833c12.783-7.493,27.222-11.417,42.326-11.417
	c32.681,0,62.651,19.186,76.355,48.878c1.127,2.442,3.476,4.094,6.155,4.328c14.864,1.303,28.642,8.089,38.793,19.108
	C491.377,139.282,497,153.692,497,168.775C497,191.415,484.511,211.589,465.047,221.803z"/>
<path d="M318.956,396.947h-3.639l3.364-3.199c3.002-2.854,3.121-7.602,0.267-10.604s-7.602-3.119-10.603-0.267l-14.795,14.069
	h-15.657l23.441-23.441c2.929-2.929,2.929-7.678,0-10.606c-2.93-2.929-7.678-2.929-10.607,0l-23.441,23.441v-15.662l14.065-14.791
	c2.854-3.002,2.735-7.749-0.267-10.604c-3.001-2.854-7.749-2.734-10.603,0.267l-3.196,3.361v-3.636c0-4.142-3.357-7.5-7.5-7.5
	s-7.5,3.358-7.5,7.5v3.639l-3.199-3.364c-2.853-3.001-7.6-3.12-10.604-0.266c-3.001,2.854-3.12,7.602-0.266,10.603l14.068,14.793
	v15.658l-23.44-23.44c-2.93-2.929-7.678-2.929-10.607,0s-2.929,7.678,0,10.606l23.441,23.441h-15.662l-14.791-14.066
	c-3.001-2.854-7.749-2.734-10.603,0.267s-2.735,7.749,0.267,10.604l3.36,3.196h-3.636c-4.143,0-7.5,3.358-7.5,7.5s3.357,7.5,7.5,7.5
	h3.639l-3.363,3.199c-3.002,2.854-3.121,7.602-0.267,10.604c1.474,1.55,3.453,2.332,5.436,2.332c1.856,0,3.716-0.685,5.167-2.065
	l14.794-14.069h15.659l-23.441,23.441c-2.929,2.929-2.929,7.678,0,10.606c1.465,1.464,3.385,2.197,5.304,2.197
	s3.839-0.732,5.304-2.197l23.44-23.44v15.661l-14.065,14.79c-2.854,3.001-2.735,7.749,0.266,10.603
	c1.452,1.38,3.312,2.065,5.168,2.065c1.982,0,3.962-0.781,5.436-2.332l3.196-3.361v3.636c0,4.142,3.357,7.5,7.5,7.5
	c4.143,0,7.5-3.358,7.5-7.5v-3.639l3.199,3.364c2.854,3.002,7.602,3.121,10.603,0.267c3.002-2.854,3.121-7.602,0.267-10.604
	l-14.068-14.794v-15.659l23.441,23.441c1.465,1.464,3.385,2.197,5.304,2.197s3.839-0.732,5.304-2.197
	c2.929-2.929,2.929-7.678,0-10.606l-23.441-23.441h15.661l14.791,14.065c1.451,1.38,3.311,2.065,5.167,2.065
	c1.982,0,3.962-0.782,5.436-2.332c2.854-3.001,2.735-7.749-0.267-10.604l-3.36-3.195h3.635c4.143,0,7.5-3.358,7.5-7.5
	S323.099,396.947,318.956,396.947z"/>
<path d="M150.796,372.897h-16.552v-16.551c0-4.142-3.357-7.5-7.5-7.5s-7.5,3.358-7.5,7.5v16.551h-16.552c-4.143,0-7.5,3.358-7.5,7.5
	s3.357,7.5,7.5,7.5h16.552v16.552c0,4.142,3.357,7.5,7.5,7.5c4.143,0,7.5-3.358,7.5-7.5v-16.552h16.552c4.143,0,7.5-3.358,7.5-7.5
	S154.938,372.897,150.796,372.897z"/>
<path d="M409.308,372.897h-16.552v-16.551c0-4.142-3.357-7.5-7.5-7.5s-7.5,3.358-7.5,7.5v16.551h-16.552c-4.143,0-7.5,3.358-7.5,7.5
	s3.357,7.5,7.5,7.5h16.552v16.552c0,4.142,3.357,7.5,7.5,7.5s7.5-3.358,7.5-7.5v-16.552h16.552c4.143,0,7.5-3.358,7.5-7.5
	S413.45,372.897,409.308,372.897z"/>
<g>
</g>
<g>
</g>
<g>
</g>
<g>
</g>
<g>
</g>
<g>
</g>
<g>
</g>
<g>
</g>
<g>
</g>
<g>
</g>
<g>
</g>
<g>
</g>
<g>
</g>
<g>
</g>
<g>
</g>
</svg>
