<?xml version="1.0" encoding="iso-8859-1"?>
<!-- Generator: Adobe Illustrator 19.0.0, SVG Export Plug-In . SVG Version: 6.00 Build 0)  -->
<svg version="1.1" id="Capa_1" xmlns="http://www.w3.org/2000/svg" xmlns:xlink="http://www.w3.org/1999/xlink" x="0px" y="0px"
	 viewBox="0 0 512 512" style="enable-background:new 0 0 512 512;" xml:space="preserve">
<rect x="90.49" y="131.69" style="fill:#5F4D37;" width="330.01" height="249.48"/>
<g>
	<path style="fill:#E84423;" d="M247.392,381.175c3.737-6.844,5.863-14.694,5.863-23.041c0-26.594-21.559-87.402-48.153-87.402
		s-48.153,60.808-48.153,87.402c0,0.083,0,23.041,23.285,23.041H247.392z"/>
	<path style="fill:#E84423;" d="M269.085,381.175c-3.737-6.844-5.863-14.694-5.863-23.041c0-26.594,21.559-87.402,48.153-87.402
		c26.594,0,48.153,60.808,48.153,87.402c0,0.083,0,23.041-23.285,23.041H269.085z"/>
</g>
<path style="fill:#FF6243;" d="M316.686,381.175c4.724-8.652,7.412-18.576,7.412-29.129c0-33.621-27.255-110.494-60.875-110.494
	s-60.875,76.873-60.875,110.494c0,10.553,2.688,20.476,7.412,29.129H316.686z"/>
<path style="fill:#FFC477;" d="M298.205,381.175c2.235-4.876,3.49-10.294,3.49-16.009c0-21.248-17.225-69.832-38.473-69.832
	s-38.473,48.584-38.473,69.832c0,5.715,1.255,11.133,3.49,16.009H298.205z"/>
<g>
	<rect x="53.3" y="89.86" style="fill:#FFB864;" width="67.93" height="291.32"/>
	<rect x="390.76" y="89.86" style="fill:#FFB864;" width="67.93" height="291.32"/>
</g>
<rect x="121.23" y="131.69" style="fill:#C15C10;" width="269.53" height="74.19"/>
<g>
	<rect x="121.23" y="131.69" style="fill:#A5531C;" width="53.906" height="74.19"/>
	<rect x="229.05" y="131.69" style="fill:#A5531C;" width="53.906" height="74.19"/>
	<rect x="336.86" y="131.69" style="fill:#A5531C;" width="53.906" height="74.19"/>
</g>
<path style="fill:#60C6B7;" d="M471.123,461.604H40.877c-18.434,0-33.377-14.944-33.377-33.377v-27.04
	c0-18.434,14.944-33.377,33.377-33.377h430.245c18.434,0,33.377,14.944,33.377,33.377v27.04
	C504.5,446.661,489.556,461.604,471.123,461.604z"/>
<g>
	<path style="fill:#4DB5A6;" d="M99.604,428.227v-27.04c0-18.434,14.944-33.377,33.377-33.377H40.877
		c-18.434,0-33.377,14.944-33.377,33.377v27.04c0,18.434,14.944,33.377,33.377,33.377h92.104
		C114.547,461.604,99.604,446.661,99.604,428.227z"/>
	<path style="fill:#4DB5A6;" d="M436.662,439.104h-99.803c-4.143,0-7.5-3.358-7.5-7.5s3.357-7.5,7.5-7.5h99.803
		c4.143,0,7.5,3.358,7.5,7.5S440.805,439.104,436.662,439.104z"/>
	<path style="fill:#4DB5A6;" d="M306.128,439.104h-23.854c-4.143,0-7.5-3.358-7.5-7.5s3.357-7.5,7.5-7.5h23.854
		c4.143,0,7.5,3.358,7.5,7.5S310.271,439.104,306.128,439.104z"/>
</g>
<path style="fill:#60C6B7;" d="M456.205,131.691H55.795c-18.609,0-33.695-15.086-33.695-33.695V84.091
	c0-18.609,15.086-33.695,33.695-33.695h400.411c18.609,0,33.695,15.086,33.695,33.695v13.905
	C489.9,116.605,474.815,131.691,456.205,131.691z"/>
<path style="fill:#4DB5A6;" d="M111.752,97.996V84.091c0-18.609,15.086-33.695,33.695-33.695H55.795
	c-18.609,0-33.695,15.086-33.695,33.695v13.905c0,18.609,15.086,33.695,33.695,33.695h89.652
	C126.838,131.691,111.752,116.605,111.752,97.996z"/>
<path style="fill:#FF5555;" d="M117.023,242.02c-7.517,2.306-15.804,2.341-23.808-0.409c-20.139-6.92-30.855-28.856-23.935-48.995
	l5.185-15.089c2.289-6.661,2.409-13.877,0.343-20.611l-12.386-40.377l73.703-22.684l19.262,62.79
	c2.389,7.788,2.25,16.133-0.397,23.838l-12.78,37.193C138.04,229.81,128.418,238.524,117.023,242.02z"/>
<path style="fill:#E04141;" d="M126.91,228.356c-20.139-6.92-30.855-28.856-23.935-48.995l5.185-15.089
	c2.289-6.661,2.409-13.877,0.343-20.611L96.925,105.92l-34.503,10.619l12.387,40.377c2.066,6.734,1.946,13.949-0.344,20.611
	l-5.185,15.089c-6.92,20.139,3.796,42.075,23.935,48.995c8.005,2.75,16.292,2.715,23.809,0.409
	c6.95-2.132,13.245-6.211,18.041-11.818C132.345,229.888,129.605,229.282,126.91,228.356z"/>
<path style="fill:#E9F6FF;" d="M136.796,118.777l-65.612,20.128c-8.93,2.739-18.389-2.279-21.129-11.209l0,0
	c-2.739-8.93,2.279-18.389,11.209-21.129l65.612-20.128c8.93-2.739,18.389,2.279,21.129,11.209l0,0
	C150.744,106.578,145.726,116.038,136.796,118.777z"/>
<path style="fill:#FF5555;" d="M416.634,242.02c-7.517,2.306-15.804,2.341-23.808-0.409c-20.139-6.92-30.855-28.856-23.935-48.995
	l5.185-15.089c2.289-6.661,2.409-13.877,0.343-20.611l-12.387-40.377l73.703-22.684l19.262,62.79
	c2.389,7.788,2.25,16.133-0.397,23.838l-12.78,37.193C437.65,229.81,428.029,238.524,416.634,242.02z"/>
<path style="fill:#E04141;" d="M426.521,228.356c-20.139-6.92-30.855-28.856-23.935-48.995l5.185-15.089
	c2.289-6.661,2.409-13.877,0.343-20.611l-11.578-37.742l-34.503,10.619l12.387,40.377c2.066,6.734,1.946,13.949-0.344,20.611
	l-5.185,15.089c-6.92,20.139,3.796,42.075,23.935,48.995c8.005,2.75,16.292,2.715,23.809,0.409
	c6.95-2.132,13.246-6.213,18.042-11.819C431.957,229.886,429.216,229.282,426.521,228.356z"/>
<path style="fill:#E9F6FF;" d="M436.407,115.219l-65.612,20.128c-8.93,2.739-18.389-2.279-21.129-11.209l0,0
	c-2.739-8.93,2.279-18.389,11.209-21.129l65.612-20.128c8.93-2.739,18.389,2.279,21.129,11.209l0,0
	C450.355,103.02,445.336,112.48,436.407,115.219z"/>
<g>
	<path style="fill:#CAE7FC;" d="M93.377,96.716L93.377,96.716l-32.112,9.851c-8.93,2.739-13.948,12.199-11.209,21.129l0,0
		c2.739,8.93,12.199,13.948,21.129,11.209l33.507-10.279c0,0-13.158,0.521-17.305-11.804C83.24,104.496,93.377,96.716,93.377,96.716
		z"/>
	<path style="fill:#CAE7FC;" d="M392.987,93.158L392.987,93.158l-32.112,9.851c-8.93,2.739-13.948,12.199-11.209,21.129l0,0
		c2.739,8.93,12.199,13.948,21.129,11.209l33.507-10.279c0,0-13.158,0.521-17.305-11.804
		C382.85,100.939,392.987,93.158,392.987,93.158z"/>
</g>
<path d="M471.123,360.31h-72.858V250.659c2.354,0.371,11.098,1.422,20.568-1.469c14.067-4.295,25.306-15.183,30.08-29.077
	l2.279-6.634v124.776c0,4.142,3.357,7.5,7.5,7.5s7.5-3.358,7.5-7.5V137.96c17.904-4.476,31.208-20.693,31.208-39.965V84.091
	c0-22.715-18.48-41.195-41.195-41.195H190.494c-4.143,0-7.5,3.358-7.5,7.5s3.357,7.5,7.5,7.5h265.711
	c14.444,0,26.195,11.751,26.195,26.195v13.905c0,26.961-29.514,26.195-29.514,26.195l-2.859-9.322
	c1.134-1.337,9.034-8.582,4.758-22.979c-1.857-6.251-6.138-11.35-11.898-14.406c-5.762-3.057-12.369-3.686-18.6-1.773
	l-65.611,20.127c-12.156,3.729-19.3,16.142-16.729,28.353H153.276l-2.071-6.75c4.623-6.054,6.369-14.172,3.969-21.992
	c-1.912-6.234-6.138-11.351-11.898-14.407c-5.761-3.056-12.365-3.687-18.6-1.773L59.065,99.396
	c-9.64,2.957-16.131,11.376-17.122,20.824C34.494,115.552,29.6,107.257,29.6,97.996V84.091c0-14.444,11.751-26.195,26.195-26.195
	h103.621c4.143,0,7.5-3.358,7.5-7.5s-3.357-7.5-7.5-7.5H55.795c-22.715,0-41.195,18.48-41.195,41.195v13.905
	c0,19.018,13.131,35.449,31.206,39.963V360.31c0,0-45.806-1.815-45.806,40.877v27.04c0,22.54,18.337,40.877,40.877,40.877h430.246
	c22.54,0,40.877-18.337,40.877-40.877v-27.04C512,378.647,493.663,360.31,471.123,360.31z M366.91,360.31
	c0.108-1.183-4.877-100.228-62.85-96c-15.289-24.549-30.253-30.258-40.838-30.258c-16.83,0-31.514,14.442-42.937,33.874
	c-4.938-3.115-10.022-4.727-15.183-4.694c-39.161,0.249-56.724,77.677-55.535,97.078h-20.832V245.029
	c17.892-10.366,22.805-31.433,22.805-31.433h208.561c2.511,13.323,10.843,25.226,23.163,31.954v114.76H366.91z M308.977,360.31
	c-1.014-12.013-5.486-27.874-11.763-41.219c-9.618-20.448-21.372-31.256-33.992-31.256c-12.619,0-24.373,10.808-33.991,31.256
	c-6.277,13.345-10.749,29.207-11.763,41.219h-6.958c-0.423-2.725-0.663-5.486-0.663-8.264c0-2.837,0.22-6.081,0.652-9.64
	c0.5-4.112-2.429-7.851-6.54-8.351c-4.105-0.496-7.851,2.427-8.351,6.54c-0.506,4.158-0.762,8.011-0.762,11.451
	c0,2.769,0.171,5.529,0.502,8.264h-30.674c0.322-39.796,21.719-82.078,40.427-82.078c2.568,0,5.306,1.025,8.17,3.041
	c-4.07,8.663-7.552,17.818-10.367,26.818c-1.236,3.954,0.966,8.161,4.919,9.397c3.954,1.236,8.16-0.967,9.397-4.919
	c11.698-37.397,30.614-63.517,46.001-63.517c26.581,0,53.376,70.619,53.376,102.994c0,2.778-0.24,5.539-0.663,8.264L308.977,360.31
	L308.977,360.31z M293.925,360.31h-61.406c2.217-21.65,17.788-57.475,30.703-57.475S291.708,338.66,293.925,360.31z
	 M311.726,278.247c36.643,8.651,40.284,80.738,40.075,82.062h-20.705c0.33-2.735,0.613-5.497,0.502-8.264
	C329.862,308.805,312.169,279.152,311.726,278.247z M60.806,146.54c1.033,0.237,2.077,0.404,3.129,0.503l3.704,12.073
	c1.611,5.254,1.519,10.777-0.267,15.974c0,0-6.195,18.342-6.566,19.987V146.54z M76.373,195.053l5.185-15.089
	c2.822-8.213,2.968-16.943,0.421-25.248l-3.162-10.308l59.384-18.217l10.017,32.652c1.937,6.315,1.826,12.955-0.32,19.202
	l-12.78,37.193c-11.869,25.416-33.214,21.427-39.464,19.28c-7.846-2.696-14.172-8.286-17.813-15.74
	C74.197,211.324,73.677,202.899,76.373,195.053z M351.884,139.191c0.804,0.558,3.209,3.582,10.529,4.162l4.836,15.763
	c1.611,5.254,1.519,10.777-0.267,15.974c0,0-4.95,12.224-7.209,23.507h-15.414v-59.405h7.525V139.191z M329.359,198.596h-38.906
	v-59.405h38.906V198.596z M275.453,198.596h-38.906v-59.405h38.906V198.596z M221.547,198.596h-38.906v-59.405h38.906V198.596z
	 M447.507,178.045l-12.779,37.193c-3.22,9.37-10.806,16.701-20.294,19.612c-6.292,1.931-12.921,1.816-19.171-0.332
	c-16.195-5.565-24.844-23.27-19.279-39.465l5.185-15.089c2.822-8.213,2.968-16.943,0.421-25.248l-4.16-13.56l59.384-18.217
	l11.014,35.905C449.764,165.158,449.653,171.798,447.507,178.045z M363.074,110.179l65.612-20.128
	c6.945-1.703,10.85,2.568,11.759,6.238c0.604,2.441,0.311,8.899-6.238,11.759l-65.612,20.128
	c-7.767,1.906-11.021-3.834-11.759-6.238C355.314,116.976,358.112,111.701,363.074,110.179z M167.641,139.191v59.405h-10.946
	l5.387-15.677c3.183-9.263,3.348-19.109,0.475-28.475l-4.679-15.253L167.641,139.191L167.641,139.191z M63.464,113.737
	l65.611-20.127c7.503-2.566,11.022,3.834,11.76,6.238c1.521,4.961-1.277,10.237-6.238,11.759l-65.611,20.127
	c-7.222,2.094-11.022-3.834-11.76-6.238C55.704,120.534,58.502,115.259,63.464,113.737z M60.806,215.263
	c0.784,3.452,1.963,6.839,3.556,10.1c5.4,11.054,14.781,19.343,26.416,23.341c4.885,1.678,14.642,2.91,22.958,1.806v109.8h-52.93
	V215.263z M497,428.227c0,14.269-11.608,25.877-25.877,25.877H40.877C26.608,454.104,15,442.496,15,428.227v-27.04
	c0-14.269,11.608-25.877,25.877-25.877h430.246c14.269,0,25.877,11.608,25.877,25.877V428.227z"/>
<g>
</g>
<g>
</g>
<g>
</g>
<g>
</g>
<g>
</g>
<g>
</g>
<g>
</g>
<g>
</g>
<g>
</g>
<g>
</g>
<g>
</g>
<g>
</g>
<g>
</g>
<g>
</g>
<g>
</g>
</svg>
