<?xml version="1.0" encoding="iso-8859-1"?>
<!-- Generator: Adobe Illustrator 19.0.0, SVG Export Plug-In . SVG Version: 6.00 Build 0)  -->
<svg version="1.1" id="Capa_1" xmlns="http://www.w3.org/2000/svg" xmlns:xlink="http://www.w3.org/1999/xlink" x="0px" y="0px"
	 viewBox="0 0 512 512" style="enable-background:new 0 0 512 512;" xml:space="preserve">
<rect x="237.089" y="108.28" style="fill:#C6C5CA;" width="37.818" height="159.64"/>
<rect x="237.089" y="108.28" style="fill:#ACABB1;" width="18.909" height="159.64"/>
<path style="fill:#F44242;" d="M296.894,342.858h-81.79V253.23c0-13.086,10.608-23.694,23.694-23.694h34.401
	c13.086,0,23.694,10.608,23.694,23.694L296.894,342.858L296.894,342.858z"/>
<path style="fill:#C93939;" d="M273.199,229.536h-34.401c-13.086,0-23.694,10.608-23.694,23.694v89.629h40.895V253.23
	C255.999,232.218,273.199,229.536,273.199,229.536z"/>
<path style="fill:#E0E0E2;" d="M358.037,504.5H153.961c-23.633,0-42.791-19.158-42.791-42.791v-94.513
	c0-47.208,38.27-85.478,85.478-85.478H315.35c47.208,0,85.478,38.27,85.478,85.478v94.513
	C400.827,485.342,381.669,504.5,358.037,504.5z"/>
<path style="fill:#C6C5CA;" d="M215.104,461.709v-94.513c0-47.208,38.27-85.478,85.478-85.478H196.648
	c-47.208,0-85.478,38.27-85.478,85.478v94.513c0,23.633,19.158,42.791,42.791,42.791h103.934
	C234.262,504.5,215.104,485.342,215.104,461.709z"/>
<path style="fill:#ACABB1;" d="M174.022,472.874L174.022,472.874c-10.443,0-18.909-8.466-18.909-18.909v-94.936
	c0-10.443,8.466-18.909,18.909-18.909l0,0c10.443,0,18.909,8.466,18.909,18.909v94.936
	C192.931,464.408,184.465,472.874,174.022,472.874z"/>
<g>
	<path style="fill:#C6C5CA;" d="M255.999,472.874L255.999,472.874c-10.443,0-18.909-8.466-18.909-18.909v-94.936
		c0-10.443,8.466-18.909,18.909-18.909l0,0c10.443,0,18.909,8.466,18.909,18.909v94.936
		C274.908,464.408,266.442,472.874,255.999,472.874z"/>
	<path style="fill:#C6C5CA;" d="M337.975,472.874L337.975,472.874c-10.443,0-18.909-8.466-18.909-18.909v-94.936
		c0-10.443,8.466-18.909,18.909-18.909l0,0c10.443,0,18.909,8.466,18.909,18.909v94.936
		C356.884,464.408,348.418,472.874,337.975,472.874z"/>
</g>
<path style="fill:#F44242;" d="M283.78,7.5h-55.563c-23.135,0-41.89,18.755-41.89,41.89v25.778
	c0,21.156,15.768,38.689,36.167,41.489v24.655c0,7.882,6.39,14.272,14.272,14.272h38.463c7.882,0,14.272-6.39,14.272-14.272v-24.655
	c20.399-2.8,36.167-20.333,36.167-41.489V49.39C325.67,26.255,306.916,7.5,283.78,7.5z M295.67,75.168
	c0,6.556-5.334,11.89-11.89,11.89h-55.563c-6.556,0-11.89-5.334-11.89-11.89V49.39c0-6.556,5.334-11.89,11.89-11.89h55.563
	c6.556,0,11.89,5.334,11.89,11.89V75.168z"/>
<g>
	<path style="fill:#C93939;" d="M283.781,87.058h16.447c6.556,0,11.89-5.334,11.89-11.89V49.39c0-6.556-5.334-11.89-11.89-11.89
		h-16.447c6.556,0,11.89,5.334,11.89,11.89v25.778C295.67,81.724,290.336,87.058,283.781,87.058z"/>
	<path style="fill:#C93939;" d="M238.942,141.313v-19.226c0-7.548-4.929-14.166-12.121-16.455
		c-14.199-4.517-24.046-13.745-24.046-30.464V49.39c0-23.135,18.755-41.89,41.89-41.89h-16.447c-23.135,0-41.89,18.755-41.89,41.89
		v25.778c0,21.156,15.768,38.689,36.167,41.489v24.655c0,7.882,6.39,14.273,14.273,14.273h16.447
		C245.332,155.585,238.942,149.195,238.942,141.313z"/>
</g>
<path d="M315.349,274.218h-10.956V253.23c0-17.201-13.994-31.194-31.194-31.194H244.59v-58.951h22.818v34.662
	c0,4.142,3.357,7.5,7.5,7.5s7.5-3.358,7.5-7.5v-35.884c8.488-2.974,14.595-11.06,14.595-20.551v-18.565
	c21.019-5.854,36.168-25.263,36.168-47.58V49.39C333.171,22.156,311.015,0,283.78,0h-55.563c-27.234,0-49.391,22.156-49.391,49.39
	v25.778c0,22.316,15.149,41.725,36.168,47.579v18.565c0,9.491,6.107,17.578,14.595,20.551v61.56
	c-12.719,3.938-21.986,15.809-21.986,29.806v20.988h-10.956c-28.647,0-55.265,12.912-73.029,35.426
	c-2.566,3.252-2.01,7.968,1.242,10.534c3.253,2.566,7.968,2.01,10.534-1.242c14.902-18.886,37.228-29.717,61.254-29.717h118.701
	c42.997,0,77.979,34.981,77.979,77.978v94.513c0,19.459-15.831,35.291-35.291,35.291H153.961c-19.459,0-35.291-15.831-35.291-35.291
	v-94.513c0-8.454,1.343-16.766,3.992-24.704c1.311-3.929-0.811-8.177-4.74-9.488c-3.932-1.312-8.178,0.812-9.488,4.74
	c-3.161,9.472-4.763,19.381-4.763,29.452v94.513c0,27.73,22.56,50.291,50.291,50.291h204.076c27.73,0,50.291-22.56,50.291-50.291
	v-94.513C408.328,315.928,366.618,274.218,315.349,274.218z M223.515,109.227c-16.925-2.324-29.688-16.966-29.688-34.059V49.39
	c0-18.963,15.428-34.39,34.391-34.39h55.563c18.963,0,34.391,15.427,34.391,34.39v25.778c0,17.093-12.763,31.735-29.688,34.059
	c-3.714,0.51-6.48,3.682-6.48,7.43v24.655c0,3.734-3.038,6.772-6.772,6.772h-38.463c-3.734,0-6.772-3.038-6.772-6.772v-24.655
	C229.995,112.909,227.228,109.737,223.515,109.227z M222.604,253.23c0-8.93,7.265-16.194,16.194-16.194h34.401
	c8.93,0,16.194,7.265,16.194,16.194v20.988h-66.789L222.604,253.23L222.604,253.23z"/>
<path d="M174.022,480.374c14.562,0,26.409-11.847,26.409-26.409v-94.937c0-14.562-11.847-26.409-26.409-26.409
	s-26.409,11.847-26.409,26.409v94.937C147.614,468.527,159.46,480.374,174.022,480.374z M162.614,359.028
	c0-6.291,5.118-11.409,11.409-11.409s11.409,5.118,11.409,11.409v94.937c0,6.291-5.118,11.409-11.409,11.409
	s-11.409-5.118-11.409-11.409V359.028z"/>
<path d="M282.408,453.965v-94.937c0-14.562-11.847-26.409-26.409-26.409c-14.562,0-26.409,11.847-26.409,26.409v94.937
	c0,14.562,11.847,26.409,26.409,26.409C270.561,480.374,282.408,468.527,282.408,453.965z M244.59,453.965v-94.937
	c0-6.291,5.118-11.409,11.409-11.409c6.291,0,11.409,5.118,11.409,11.409v94.937c0,6.291-5.118,11.409-11.409,11.409
	S244.59,460.256,244.59,453.965z"/>
<path d="M364.384,453.965v-94.937c0-14.562-11.847-26.409-26.408-26.409c-14.563,0-26.409,11.847-26.409,26.409v94.937
	c0,14.562,11.847,26.409,26.409,26.409C352.537,480.374,364.384,468.527,364.384,453.965z M326.566,453.965v-94.937
	c0-6.291,5.118-11.409,11.409-11.409c6.29,0,11.408,5.118,11.408,11.409v94.937c0,6.291-5.118,11.409-11.408,11.409
	C331.684,465.374,326.566,460.256,326.566,453.965z"/>
<path d="M303.171,75.168V49.39c0-10.692-8.698-19.39-19.39-19.39h-55.563c-10.692,0-19.391,8.698-19.391,19.39v25.778
	c0,10.692,8.699,19.39,19.391,19.39h55.563C294.472,94.558,303.171,85.86,303.171,75.168z M223.827,75.168V49.39
	c0-2.421,1.97-4.39,4.391-4.39h55.563c2.421,0,4.39,1.969,4.39,4.39v25.778c0,2.421-1.969,4.39-4.39,4.39h-55.563
	C225.797,79.558,223.827,77.589,223.827,75.168z"/>
<g>
</g>
<g>
</g>
<g>
</g>
<g>
</g>
<g>
</g>
<g>
</g>
<g>
</g>
<g>
</g>
<g>
</g>
<g>
</g>
<g>
</g>
<g>
</g>
<g>
</g>
<g>
</g>
<g>
</g>
</svg>
