<?xml version="1.0" encoding="iso-8859-1"?>
<!-- Generator: Adobe Illustrator 19.0.0, SVG Export Plug-In . SVG Version: 6.00 Build 0)  -->
<svg version="1.1" id="Capa_1" xmlns="http://www.w3.org/2000/svg" xmlns:xlink="http://www.w3.org/1999/xlink" x="0px" y="0px"
	 viewBox="0 0 512 512" style="enable-background:new 0 0 512 512;" xml:space="preserve">
<path style="fill:#CAE7FC;" d="M390.723,504.5H121.277c-15.703,0-28.432-12.729-28.432-28.432V35.932
	c0-15.703,12.729-28.432,28.432-28.432h269.447c15.703,0,28.432,12.729,28.432,28.432v440.136
	C419.155,491.771,406.426,504.5,390.723,504.5z"/>
<path style="fill:#B3DBF4;" d="M245.62,476.068V35.932c0-15.703,12.729-28.432,28.432-28.432H121.277
	c-15.703,0-28.432,12.729-28.432,28.432v440.136c0,15.703,12.729,28.432,28.432,28.432h152.776
	C258.35,504.5,245.62,491.771,245.62,476.068z"/>
<path style="fill:#FFFFFF;" d="M307.357,227.032V83.377c0-28.364-22.993-51.357-51.357-51.357l0,0
	c-28.364,0-51.357,22.993-51.357,51.357v143.654c-47.164,20.01-80.247,66.743-80.247,121.204
	c0,72.683,58.921,131.604,131.604,131.604s131.604-58.921,131.604-131.604C387.604,293.775,354.522,247.041,307.357,227.032z"/>
<path style="fill:#DDFFFB;" d="M185.495,384.534c0-45.937,22.243-86.678,56.546-112.043c17.883-13.223,28.367-34.2,28.367-56.441
	V104.272c0-20.908,11.814-39.046,29.124-48.135C290.451,41.656,274.354,32.02,256,32.02l0,0c-28.364,0-51.357,22.993-51.357,51.357
	v143.654c-47.164,20.01-80.247,66.743-80.247,121.204c0,59.598,39.619,109.933,93.954,126.129
	C197.857,450.115,185.495,418.771,185.495,384.534z"/>
<path style="fill:#60C6B7;" d="M204.644,146.77v80.262c-47.164,20.01-80.247,66.743-80.247,121.204
	c0,72.683,58.921,131.604,131.604,131.604s131.604-58.921,131.604-131.604c0-54.461-33.082-101.195-80.247-121.204V146.77H204.644z"
	/>
<g>
	<path style="fill:#4DB5A6;" d="M270.408,216.05v-69.28h-65.765v80.262c-47.164,20.01-80.247,66.743-80.247,121.204
		c0,59.598,39.619,109.933,93.954,126.129c-20.494-24.25-32.856-55.594-32.856-89.831c0-45.937,22.243-86.678,56.546-112.043
		C259.923,259.268,270.408,238.292,270.408,216.05z"/>
	<path style="fill:#4DB5A6;" d="M256,457.34c-4.142,0-7.5-3.358-7.5-7.5s3.358-7.5,7.5-7.5c31.264,0,60.429-15.528,78.015-41.537
		c2.32-3.432,6.982-4.333,10.414-2.012c3.431,2.32,4.332,6.982,2.012,10.414C326.063,439.346,292.251,457.34,256,457.34z"/>
</g>
<circle cx="123.471" cy="34.639" r="7.5"/>
<circle cx="388.53" cy="34.639" r="7.5"/>
<circle cx="123.471" cy="477.36" r="7.5"/>
<circle cx="388.53" cy="477.36" r="7.5"/>
<path d="M183.423,181.221c4.142,0,7.5-3.358,7.5-7.5s-3.358-7.5-7.5-7.5h-9.529c-4.142,0-7.5,3.358-7.5,7.5s3.358,7.5,7.5,7.5
	H183.423z"/>
<path d="M328.578,166.221c-4.142,0-7.5,3.358-7.5,7.5s3.358,7.5,7.5,7.5h9.529c4.142,0,7.5-3.358,7.5-7.5s-3.358-7.5-7.5-7.5
	H328.578z"/>
<path d="M183.423,127.319c4.142,0,7.5-3.358,7.5-7.5s-3.358-7.5-7.5-7.5h-9.529c-4.142,0-7.5,3.358-7.5,7.5s3.358,7.5,7.5,7.5
	H183.423z"/>
<path d="M328.578,112.319c-4.142,0-7.5,3.358-7.5,7.5s3.358,7.5,7.5,7.5h9.529c4.142,0,7.5-3.358,7.5-7.5s-3.358-7.5-7.5-7.5
	H328.578z"/>
<path d="M344.156,335.009v-12.45c0-4.142-3.358-7.5-7.5-7.5s-7.5,3.358-7.5,7.5v12.45c0,4.142,3.358,7.5,7.5,7.5
	S344.156,339.151,344.156,335.009z"/>
<path d="M175.344,342.509c4.142,0,7.5-3.358,7.5-7.5v-12.45c0-4.142-3.358-7.5-7.5-7.5s-7.5,3.358-7.5,7.5v12.45
	C167.844,339.151,171.202,342.509,175.344,342.509z"/>
<path d="M256,350.363c9.707,0,19.414-3.142,27.513-9.424c3.273-2.539,3.868-7.25,1.33-10.523c-2.54-3.273-7.25-3.869-10.523-1.33
	c-10.787,8.367-25.853,8.368-36.64,0c-3.274-2.54-7.985-1.944-10.523,1.33c-2.539,3.273-1.943,7.984,1.33,10.523
	C236.587,347.221,246.294,350.363,256,350.363z"/>
<path d="M144.303,418.266c-3.376,2.399-4.169,7.082-1.77,10.458C168.615,465.427,211.032,487.34,256,487.34
	c76.702,0,139.104-62.402,139.104-139.104c0-54.29-31.334-103.237-80.247-126.073v-13.99h32.115c4.142,0,7.5-3.358,7.5-7.5
	s-3.358-7.5-7.5-7.5h-32.115V154.27h32.111c4.142,0,7.5-3.358,7.5-7.5s-3.358-7.5-7.5-7.5h-32.111v-38.903h32.108
	c4.142,0,7.5-3.358,7.5-7.5s-3.358-7.5-7.5-7.5h-32.108c0,0-0.259-60.847-58.857-60.847s-58.857,60.847-58.857,60.847h-32.121
	c-4.142,0-7.5,3.358-7.5,7.5s3.358,7.5,7.5,7.5h32.121v38.903h-32.118c-4.142,0-7.5,3.358-7.5,7.5s3.358,7.5,7.5,7.5h32.118v38.903
	h-32.115c-4.142,0-7.5,3.358-7.5,7.5s3.358,7.5,7.5,7.5h32.115v13.99c-48.913,22.835-80.247,71.783-80.247,126.073
	c0,17.515,3.215,34.594,9.556,50.764c1.512,3.855,5.862,5.756,9.721,4.244c3.856-1.512,5.756-5.864,4.244-9.721
	c-5.654-14.417-8.521-29.654-8.521-45.287c0-49.931,29.705-94.796,75.676-114.3c2.771-1.176,4.571-3.894,4.571-6.904V83.377
	c0-24.183,19.674-43.857,43.857-43.857s43.857,19.674,43.857,43.857v55.893H238.33c-4.142,0-7.5,3.358-7.5,7.5s3.358,7.5,7.5,7.5
	h61.528v72.762c0,3.01,1.8,5.729,4.571,6.904c45.971,19.504,75.676,64.369,75.676,114.3c0,68.431-55.673,124.104-124.104,124.104
	c-40.121,0-77.967-19.553-101.239-52.305C152.363,416.658,147.68,415.866,144.303,418.266z"/>
<path d="M419.155,119.819c4.142,0,7.5-3.358,7.5-7.5V35.932C426.655,16.119,410.537,0,390.724,0H121.277
	c-19.813,0-35.932,16.119-35.932,35.932v440.136c0,19.813,16.119,35.932,35.932,35.932h269.447
	c19.813,0,35.932-16.119,35.932-35.932v-332.32c0-4.142-3.358-7.5-7.5-7.5s-7.5,3.358-7.5,7.5v332.32
	c0,11.542-9.39,20.932-20.932,20.932H121.277c-11.542,0-20.932-9.39-20.932-20.932V35.932c0-11.542,9.39-20.932,20.932-20.932
	h269.447c11.542,0,20.932,9.39,20.932,20.932v76.387C411.655,116.461,415.013,119.819,419.155,119.819z"/>
<g>
</g>
<g>
</g>
<g>
</g>
<g>
</g>
<g>
</g>
<g>
</g>
<g>
</g>
<g>
</g>
<g>
</g>
<g>
</g>
<g>
</g>
<g>
</g>
<g>
</g>
<g>
</g>
<g>
</g>
</svg>
