<?xml version="1.0" encoding="iso-8859-1"?>
<!-- Generator: Adobe Illustrator 19.0.0, SVG Export Plug-In . SVG Version: 6.00 Build 0)  -->
<svg version="1.1" id="Capa_1" xmlns="http://www.w3.org/2000/svg" xmlns:xlink="http://www.w3.org/1999/xlink" x="0px" y="0px"
	 viewBox="0 0 511.998 511.998" style="enable-background:new 0 0 511.998 511.998;" xml:space="preserve">
<ellipse transform="matrix(-0.8199 -0.5725 0.5725 -0.8199 117.618 840.2526)" style="fill:#3DA094;" cx="190.972" cy="401.626" rx="63.28" ry="35.408"/>
<path style="fill:#247C6F;" d="M211.25,372.605c-4.435-3.097-8.958-5.79-13.476-8.073c0.011,0.038,14.903,52.009-4.605,78.21
	c21.445,8.306,41.385,7.024,49.695-4.876C254.059,421.833,239.905,392.614,211.25,372.605z"/>
<ellipse transform="matrix(-0.7899 -0.6133 0.6133 -0.7899 182.2874 661.3647)" style="fill:#3DA094;" cx="204.448" cy="299.453" rx="63.282" ry="35.409"/>
<path style="fill:#247C6F;" d="M254.427,338.268c11.993-15.446-0.665-45.343-28.271-66.777c-5.339-4.145-10.845-7.662-16.342-10.54
	l0,0c0,0,15.036,43.161-2.381,80.902C227.356,349.952,245.934,349.206,254.427,338.268z"/>
<ellipse transform="matrix(-0.7956 -0.6058 0.6058 -0.7956 268.0937 482.475)" style="fill:#3DA094;" cx="215.436" cy="196.012" rx="63.279" ry="35.408"/>
<path style="fill:#247C6F;" d="M236.884,167.848c-8.849-6.738-18.136-11.785-27.07-15.044c0.001,0.002,21.373,41.365,8.292,85.299
	c20.271,8.222,39.186,7.403,47.676-3.746C277.629,218.798,264.691,189.021,236.884,167.848z"/>
<ellipse transform="matrix(-0.824 -0.5666 0.5666 -0.824 333.7183 276.538)" style="fill:#3DA094;" cx="209.81" cy="86.437" rx="63.28" ry="35.408"/>
<path style="fill:#247C6F;" d="M229.877,57.276c-10.047-6.909-20.521-11.765-30.375-14.484c3.871,11.053,12.664,42.327,4.939,81.367
	c24.366,11.725,48.296,11.557,57.516-1.85C273.038,106.196,258.675,77.08,229.877,57.276z"/>
<path style="fill:#806749;" d="M237.946,504.496c-1.748,0-3.524-0.231-5.291-0.714c-10.658-2.915-16.934-13.919-14.018-24.577
	c39.949-146.025,39.949-300.393,0-446.418c-2.916-10.658,3.361-21.662,14.018-24.577c10.653-2.914,21.661,3.36,24.578,14.018
	c41.838,152.932,41.838,314.603,0,467.535C254.8,498.654,246.738,504.496,237.946,504.496z"/>
<path style="fill:#5F4D37;" d="M242.077,24.728c-2.003-7.318-7.82-12.569-14.719-14.198c-7.317,4.555-11.113,13.518-8.722,22.257
	c39.949,146.025,39.949,300.393,0,446.418c-2.916,10.658,3.361,21.662,14.018,24.577c0.238,0.065,0.476,0.114,0.714,0.17
	c4.121-2.571,7.325-6.635,8.708-11.688C283.915,339.331,283.915,177.66,242.077,24.728z"/>
<g>
	
		<ellipse transform="matrix(0.5368 -0.8437 0.8437 0.5368 75.3152 291.0454)" style="fill:#4DB5A6;" cx="302.726" cy="76.93" rx="63.279" ry="35.408"/>
	
		<ellipse transform="matrix(0.6738 -0.7389 0.7389 0.6738 -34.0382 294.0788)" style="fill:#4DB5A6;" cx="316.061" cy="185.592" rx="63.279" ry="35.408"/>
	
		<ellipse transform="matrix(0.775 -0.632 0.632 0.775 -115.446 271.0283)" style="fill:#4DB5A6;" cx="322.88" cy="297.634" rx="63.282" ry="35.409"/>
	
		<ellipse transform="matrix(0.8401 -0.5424 0.5424 0.8401 -169.7646 233.3191)" style="fill:#4DB5A6;" cx="310.883" cy="404.621" rx="63.279" ry="35.407"/>
</g>
<g>
	<path style="fill:#3DA094;" d="M288.61,38.463c-5.642,5.461-11.011,12.009-15.752,19.461
		c-18.761,29.488-20.594,61.902-4.095,72.399c13.843,8.807,36.19-0.618,54.108-21.294C269.14,106.53,288.585,38.55,288.61,38.463z"
		/>
	<path style="fill:#3DA094;" d="M289.881,161.739c-23.55,25.824-30.929,57.441-16.48,70.618
		c12.903,11.767,38.846,4.838,61.022-15.167c-46.483-1.996-26.598-71.276-26.598-71.276l0,0
		C301.644,150.217,295.552,155.521,289.881,161.739z"/>
	<path style="fill:#3DA094;" d="M273.827,337.627c10.334,12.673,34.385,10.81,57.824-3.052
		c-40.397-19.134-11.723-77.08-11.723-77.08l0,0c-6.537,3.305-13.119,7.548-19.435,12.698
		C273.407,292.281,261.468,322.472,273.827,337.627z"/>
	<path style="fill:#3DA094;" d="M312.142,364.525c-6.777,2.553-13.694,6.009-20.452,10.373
		c-29.362,18.958-44.564,47.645-33.957,64.073c8.465,13.109,30.809,14.439,54.41,4.813
		C286.324,413.21,312.089,364.625,312.142,364.525z"/>
</g>
<path d="M334.435,351.845c-14.448,0.914-30.483,6.526-45.334,15.819c0.595-4.732,1.156-9.466,1.675-14.194
	c1.361,0.118,24.403,5.736,59.212-22.586c30.787-25.05,42.944-59.339,27.738-77.986c-15.156-18.584-50.975-13.632-81.67,11.24
	c0.057-6.339,0.05-12.677-0.026-18.998c16.509-2.199,35.591-12.948,51.718-30.631c12.239-13.421,20.853-28.834,24.252-43.4
	c3.757-16.1,0.823-29.528-8.261-37.813c-16.567-15.109-47.978-7.208-73.823,17.667c-0.421-3.558-0.859-7.115-1.322-10.664
	c4.762-0.989,9.729-2.841,14.799-5.571c13.169-7.093,25.791-19.439,35.542-34.765c1.29-2.028,2.534-4.118,3.697-6.211
	c2.012-3.621,0.708-8.187-2.913-10.199c-3.62-2.013-8.188-0.708-10.198,2.913c-1.021,1.835-2.111,3.668-3.242,5.446
	c-8.396,13.198-19.05,23.713-29.998,29.61c-9.424,5.075-17.986,5.977-23.492,2.474s-8.316-11.641-7.712-22.327
	c0.702-12.415,5.713-26.521,14.11-39.719c8.396-13.198,19.05-23.713,29.998-29.61c9.425-5.075,17.988-5.976,23.491-2.474
	c6.735,4.286,9.325,15.16,6.927,29.089c-0.702,4.082,2.037,7.961,6.119,8.664c4.08,0.706,7.961-2.037,8.664-6.119
	c3.51-20.391-1.468-36.534-13.657-44.29c-10.374-6.6-24.102-5.916-38.656,1.923c-11.111,5.985-21.826,15.719-30.763,27.818
	c-2.153-8.947-4.43-17.879-6.843-26.701c-4.005-14.628-19.165-23.273-33.791-19.272c-7.087,1.938-12.658,6.726-16.636,12.903
	c-6.462,10.035-1.809,23.96-1.398,25.498c-26.138-10.773-50.551-8.454-61.151,6.96c-6.966,10.13-6.774,23.874,0.539,38.7
	c6.617,13.414,18.504,26.47,33.471,36.762c15.459,10.631,32.447,17.075,47.535,18.184c0.815,5.837,1.571,11.68,2.262,17.529
	c-12.788-8.54-26.499-14.145-39.246-15.95c-16.367-2.316-29.485,1.792-36.933,11.573c-14.576,19.143-1.257,52.974,30.321,77.019
	c16.747,12.752,35.498,20.24,51.638,20.879c0.046,7.783-0.017,15.567-0.188,23.349c-3.155-3.073-6.529-6.024-10.135-8.823
	c-14.348-11.14-30.394-18.506-45.183-20.743c-16.346-2.469-29.501,1.515-37.04,11.226c-7.898,10.172-9.026,25.661-0.56,41.208
	c3.067,5.633,8.948,4.076,9.98,3.59c3.748-1.765,5.354-6.233,3.59-9.98c-5.051-10.727-5.475-20.064-1.163-25.619
	c4.002-5.155,12.365-7.195,22.95-5.593c12.295,1.859,25.871,8.166,38.227,17.759c7.201,5.591,13.592,12.067,18.574,18.778
	c-0.693,14.453-1.755,28.893-3.195,43.303c-13.501,1.919-32.898-5.02-49.609-17.994c-3.169-2.46-6.196-5.097-8.997-7.836
	c-2.961-2.895-7.709-2.843-10.606,0.119c-2.896,2.961-2.843,7.709,0.119,10.606c3.207,3.136,6.605,6.233,10.286,8.96
	c31.643,23.451,57.145,21.342,57.145,21.342c-1.008,8.509-2.146,17.007-3.415,25.489c-4.864-4.932-10.35-9.56-16.313-13.725
	c-32.542-22.722-68.824-25.07-82.6-5.344c-7.039,10.08-6.946,23.825,0.262,38.703c6.521,13.461,18.314,26.602,33.207,37.001
	c16.708,11.667,34.882,18.278,50.609,18.719c-1.776,7.251-3.647,14.484-5.62,21.697c-1.938,7.087-0.634,14.308,2.639,20.887
	c6.906,13.884,21.458,13.884,23.906,13.884c12.352,0,23.257-8.329,26.521-20.254c3.17-11.59,6.123-23.364,8.832-35.117
	c3.181,0.608,28.073,5.359,60.873-15.941c33.288-21.618,49.24-54.229,36.189-74.442
	C363.692,355.913,350.922,350.798,334.435,351.845z M305.233,276.002c13.924-11.355,32.29-19.474,45.873-19.474
	c6.364,0,11.679,1.782,14.994,5.848c10.395,12.747-5.146,40.208-25.594,56.882c-12.122,9.886-25.544,16.516-37.791,18.668
	c-10.542,1.853-18.953,0.015-23.077-5.043s-4.232-13.666-0.296-23.619C283.915,297.7,293.11,285.887,305.233,276.002z
	 M342.232,140.461c4.503,0,8.433,1.211,11.4,3.917c4.822,4.397,6.192,12.897,3.76,23.32c-2.825,12.11-10.187,25.145-20.728,36.702
	c-17.777,19.495-46.056,33.494-58.209,22.412c-12.151-11.082-0.811-40.527,16.968-60.022
	C308.859,152.056,328.294,140.461,342.232,140.461z M194,109.44c-12.889-8.863-23.017-19.887-28.518-31.039
	c-4.735-9.599-5.33-18.187-1.632-23.565c7.35-10.687,31.183-9.027,53.637,3.548c5.322,21.948,9.748,44.063,13.271,66.29
	C219.163,123.072,205.953,117.66,194,109.44z M198.526,218.22c-20.991-15.983-37.437-42.912-27.474-55.998
	c3.953-5.192,12.296-7.31,22.896-5.808c12.313,1.743,25.947,7.922,38.394,17.399c1.749,1.332,3.462,2.735,5.118,4.167
	c1.802,19.307,2.935,38.663,3.396,58.032C228.047,235.276,212.415,228.795,198.526,218.22z M175.001,424.511
	c-12.825-8.955-22.874-20.05-28.295-31.242c-4.666-9.632-5.199-18.225-1.463-23.576c9.415-13.485,40.081-6.051,61.713,9.055
	c8.676,6.058,16.139,13.175,21.782,20.715c-2.384,13.735-5.113,27.423-8.187,41.052
	C207.339,441.128,190.384,435.253,175.001,424.511z M249.999,487.783c-2.317,10.798-14.277,9.062-15.365,8.764
	c-6.652-1.819-10.583-8.712-8.763-15.364c40.303-147.319,38.15-302.485,0-450.375c-2.513-9.743,5.541-14.482,8.763-15.364
	c6.653-1.821,13.545,2.111,15.365,8.763c3.702,13.531,7.104,27.318,10.154,41.025c-5.902,11.966-9.412,24.273-10.052,35.588
	c-0.934,16.506,3.167,37.268,23.359,39.482c1.143,8.62,2.163,17.293,3.048,25.909c-20.11,27.158-24.048,57.193-8.159,71.684
	c3.595,3.278,7.889,5.471,12.672,6.645c0.148,11.446,0.077,22.968-0.221,34.395c-6.779,7.916-12.069,16.376-15.406,24.813
	c-6.08,15.374-5.149,29.087,2.62,38.615c2.265,2.778,4.996,5.057,8.132,6.823c-1.108,10.397-2.408,20.845-3.886,31.187
	c-45.616,39.974-16.151,68.468-13.059,70.596C256.397,463.283,252.641,475.47,249.999,487.783z M326.035,428.082
	c-22.165,14.312-53.08,20.63-62.001,6.813c-8.921-13.816,9.56-39.392,31.725-53.704c13.141-8.485,27.211-13.616,39.623-14.376
	c13.326-0.816,19.19,2.626,22.378,7.563C366.681,388.194,348.2,413.77,326.035,428.082z"/>
<g>
</g>
<g>
</g>
<g>
</g>
<g>
</g>
<g>
</g>
<g>
</g>
<g>
</g>
<g>
</g>
<g>
</g>
<g>
</g>
<g>
</g>
<g>
</g>
<g>
</g>
<g>
</g>
<g>
</g>
</svg>
