<?xml version="1.0" encoding="iso-8859-1"?>
<!-- Generator: Adobe Illustrator 19.0.0, SVG Export Plug-In . SVG Version: 6.00 Build 0)  -->
<svg version="1.1" id="Capa_1" xmlns="http://www.w3.org/2000/svg" xmlns:xlink="http://www.w3.org/1999/xlink" x="0px" y="0px"
	 viewBox="0 0 511.998 511.998" style="enable-background:new 0 0 511.998 511.998;" xml:space="preserve">
<rect x="127.989" y="154.969" style="fill:#FF7956;" width="256.018" height="170.669"/>
<path style="fill:#FF5023;" d="M211.208,154.972h-83.218v170.667h91.913C179.833,275.67,188.398,211.695,211.208,154.972z"/>
<path style="fill:#FFEB99;" d="M103.93,443.443l8.975-4.775c6.458-3.436,14.283,1.082,14.536,8.392l0.352,10.16l8.623,5.385
	c6.205,3.875,6.205,12.91,0,16.785l-8.623,5.385l-0.352,10.16c-0.253,7.311-8.078,11.828-14.536,8.392l-8.975-4.775l-8.975,4.775
	c-6.458,3.436-14.283-1.082-14.536-8.392l-0.352-10.16l-8.623-5.385c-6.205-3.875-6.205-12.91,0-16.785l8.623-5.385l0.352-10.16
	c0.253-7.311,8.078-11.828,14.536-8.392L103.93,443.443z"/>
<path style="fill:#FFDE55;" d="M98.257,484.044l-4.791-2.992c-7.434-4.642-7.434-15.468,0-20.11l4.791-2.992
	c7.078-4.683,5.674-14.508,5.674-14.508l-8.975-4.775c-6.458-3.436-14.283,1.082-14.536,8.392l-0.352,10.16l-8.623,5.385
	c-6.204,3.875-6.204,12.91,0,16.785l8.623,5.385l0.352,10.16c0.253,7.311,8.078,11.828,14.536,8.392l8.975-4.775
	C103.93,498.551,104.969,488.591,98.257,484.044z"/>
<path style="fill:#FFEB99;" d="M408.068,443.443l8.975-4.775c6.458-3.436,14.283,1.082,14.536,8.392l0.352,10.16l8.623,5.385
	c6.205,3.875,6.205,12.91,0,16.785l-8.623,5.385l-0.352,10.16c-0.253,7.311-8.078,11.828-14.536,8.392l-8.975-4.775l-8.975,4.775
	c-6.458,3.436-14.283-1.082-14.536-8.392l-0.352-10.16l-8.623-5.385c-6.205-3.875-6.205-12.91,0-16.785l8.623-5.385l0.352-10.16
	c0.253-7.311,8.078-11.828,14.536-8.392L408.068,443.443z"/>
<path style="fill:#FFDE55;" d="M402.394,484.044l-4.791-2.992c-7.434-4.642-7.434-15.468,0-20.11l4.791-2.992
	c7.128-4.134,5.674-14.508,5.674-14.508l-8.975-4.775c-6.458-3.436-14.283,1.082-14.536,8.392l-0.352,10.16l-8.623,5.385
	c-6.204,3.875-6.204,12.91,0,16.785l8.623,5.385l0.352,10.16c0.253,7.311,8.078,11.828,14.536,8.392l8.975-4.775
	C408.068,498.551,409.889,489.14,402.394,484.044z"/>
<path style="fill:#FFB655;" d="M151.538,368.623v-40.637c0-41.811,34.209-76.02,76.02-76.02h56.882
	c41.811,0,76.02,34.209,76.02,76.02v40.637c0,12.24,7.61,23.19,19.083,27.457l12.061,4.486c11.579,4.306,23.901-4.257,23.901-16.611
	V207.518c0-87.727-71.777-159.504-159.504-159.504l0,0c-87.727,0-159.504,71.777-159.504,159.504v176.436
	c0,12.354,12.322,20.917,23.901,16.611l12.061-4.486C143.928,391.813,151.538,380.863,151.538,368.623z"/>
<path style="fill:#FFA733;" d="M303.677,55.336c-15.069-4.754-31.091-7.322-47.677-7.322l0,0
	c-87.727,0-159.504,71.777-159.504,159.504v176.436c0,12.354,12.322,20.917,23.901,16.611l12.061-4.486
	c11.472-4.267,19.083-15.217,19.083-27.457v-40.637c0-29.141,16.628-54.594,40.855-67.341v-55.274
	C192.393,134.941,239.456,74.981,303.677,55.336z"/>
<path style="fill:#CAE7FC;" d="M415.503,383.954V252.002l0,0l-31.781-29.148c-12.099-11.096-30.675-11.096-42.774,0l-10.394,9.533
	c-12.099,11.096-30.675,11.096-42.774,0l-10.394-9.533c-12.099-11.096-30.675-11.096-42.774,0l-10.394,9.533
	c-12.099,11.096-30.675,11.096-42.774,0l-10.394-9.533c-12.099-11.096-30.675-11.096-42.774,0l-31.781,29.148v131.953
	c0,12.354,12.322,20.917,23.901,16.611l12.061-4.486c11.472-4.267,19.083-15.217,19.083-27.457v-40.637
	c0-41.811,34.209-76.02,76.02-76.02h56.882c41.811,0,76.02,34.209,76.02,76.02v40.637c0,12.24,7.61,23.19,19.083,27.457
	l12.061,4.486C403.182,404.872,415.503,396.308,415.503,383.954z"/>
<path style="fill:#B3DBF4;" d="M181.444,232.386l-10.394-9.533c-12.099-11.096-30.675-11.096-42.774,0l-31.781,29.148v131.953
	c0,12.354,12.322,20.917,23.901,16.611l12.061-4.486c11.472-4.267,19.083-15.217,19.083-27.457v-40.637
	c0-29.141,16.628-54.594,40.855-67.341v-21.711C188.442,237.557,184.706,235.379,181.444,232.386z"/>
<g>
	<path style="fill:#FF5555;" d="M366.027,200.376h17.879c7.075,0,12.864-5.789,12.864-12.864l0,0
		c0-7.075-5.789-12.864-12.864-12.864h-17.879c-7.075,0-12.864,5.789-12.864,12.864l0,0
		C353.163,194.587,358.951,200.376,366.027,200.376z"/>
	<path style="fill:#FF5555;" d="M131.667,200.376h17.879c7.075,0,12.864-5.789,12.864-12.864l0,0
		c0-7.075-5.789-12.864-12.864-12.864h-17.879c-7.075,0-12.864,5.789-12.864,12.864l0,0
		C118.803,194.587,124.592,200.376,131.667,200.376z"/>
</g>
<path style="fill:#FFEB99;" d="M255.999,14.911l11.183-5.95c8.047-4.281,17.797,1.348,18.113,10.458l0.439,12.66l10.745,6.71
	c7.731,4.828,7.731,16.087,0,20.915l-10.745,6.71l-0.439,12.66c-0.316,9.11-10.066,14.739-18.113,10.458l-11.183-5.95l-11.183,5.95
	c-8.047,4.281-17.797-1.348-18.113-10.458l-0.439-12.66l-10.745-6.71c-7.731-4.828-7.731-16.087,0-20.915l10.745-6.71l0.439-12.66
	c0.316-9.11,10.066-14.739,18.113-10.458L255.999,14.911z"/>
<path style="fill:#FFDE55;" d="M252.892,76.78c-0.167-4.811-2.714-9.223-6.797-11.773l-5.886-3.676c-8.934-5.58-8.934-18.59,0-24.17
	l5.886-3.676c4.083-2.55,6.631-6.963,6.797-11.773c0,0,0.299-7.83,0.354-8.266l-8.429-4.485
	c-8.047-4.282-17.797,1.348-18.113,10.457l-0.439,12.66l-10.745,6.71c-7.731,4.828-7.731,16.087,0,20.915l10.745,6.71l0.439,12.66
	c0.316,9.11,10.066,14.739,18.113,10.457l8.429-4.485C253.191,84.61,252.892,76.78,252.892,76.78z"/>
<path d="M167.843,147.185v12.451c0,4.142,3.357,7.5,7.5,7.5c4.143,0,7.5-3.358,7.5-7.5v-12.451c0-4.142-3.357-7.5-7.5-7.5
	C171.2,139.685,167.843,143.043,167.843,147.185z"/>
<path d="M272.571,153.713c-10.787,8.367-25.854,8.367-36.641,0c-3.272-2.539-7.985-1.944-10.522,1.33
	c-2.539,3.273-1.944,7.984,1.329,10.523c8.1,6.283,17.807,9.424,27.514,9.424c9.707,0,19.414-3.141,27.514-9.424
	c3.273-2.539,3.868-7.25,1.329-10.523C280.556,151.769,275.843,151.174,272.571,153.713z"/>
<path d="M316.69,152.31c-2.535,3.606-1.666,8.585,1.941,11.12c3.606,2.534,8.584,1.666,11.12-1.941
	c1.602-2.279,4.118-3.586,6.904-3.586c2.786,0,5.24,1.352,6.904,3.586c3.826,5.138,9.724,2.921,11.12,1.941
	c3.607-2.535,4.476-7.514,1.941-11.12c-4.564-6.494-12.027-10.371-19.964-10.371S321.254,145.816,316.69,152.31z"/>
<path d="M444.526,456.244l-5.238-3.271l-0.214-6.173c-0.209-6.036-3.457-11.442-8.687-14.461
	c-4.595-2.652-10.018-3.057-14.884-1.194v-29.254c4.752-4.696,7.5-11.141,7.5-17.938V207.518c0-48.387-21.154-94.424-58.037-126.309
	c-3.133-2.708-7.869-2.365-10.579,0.769c-2.709,3.133-2.364,7.87,0.769,10.579c33.586,29.033,52.848,70.935,52.848,114.961v27.428
	l-19.212-17.62c-15.083-13.832-37.83-13.833-52.913,0l-10.395,9.533c-9.303,8.532-23.333,8.532-32.636,0l-10.394-9.533
	c-15.083-13.832-37.83-13.833-52.913,0l-10.395,9.533c-9.303,8.532-23.333,8.532-32.636,0l-10.394-9.533
	c-15.082-13.832-37.829-13.833-52.913,0l-19.212,17.62v-27.427c0-33.179,10.621-64.762,30.715-91.335
	c18.547-24.528,44.472-43.174,73.367-52.872c1.039,1.028,10.832,7.35,10.832,7.35l0.301,8.671
	c0.238,6.881,3.939,13.044,9.901,16.486c3.084,1.78,11.625,4.025,19.229,0.333l7.661-4.076l7.661,4.076
	c6.077,3.234,13.266,3.108,19.228-0.333c5.962-3.442,9.665-9.605,9.903-16.486l0.301-8.672c0,0,9.79-6.321,10.829-7.348
	c9.052,3.032,17.859,6.934,26.209,11.637c1.164,0.655,2.427,0.966,3.674,0.966c2.62,0,5.165-1.375,6.542-3.821
	c2.032-3.609,0.754-8.183-2.854-10.215c-8.843-4.979-18.151-9.15-27.72-12.43c0-0.068,1.613-10.246-9.32-17.023l-7.359-4.596
	l-0.301-8.673c-0.238-6.881-3.941-13.043-9.903-16.486c-5.961-3.441-13.149-3.566-19.228-0.333l-7.661,4.076l-7.661-4.075
	c-6.078-3.234-13.268-3.109-19.229,0.333c-5.962,3.442-9.663,9.605-9.901,16.486l-0.301,8.672l-7.36,4.597
	c-10.467,5.407-9.32,16.957-9.32,17.027c-31.304,10.753-59.357,31.066-79.483,57.682c-22.079,29.2-33.75,63.912-33.75,100.382
	v176.436c0,6.797,2.748,13.241,7.5,17.938v29.253c-4.865-1.864-10.29-1.459-14.885,1.194c-5.229,3.02-8.478,8.426-8.686,14.461
	l-0.215,6.172l-5.238,3.271c-5.122,3.199-8.181,8.714-8.181,14.753c0,6.04,3.059,11.555,8.181,14.754l5.238,3.271l0.215,6.171
	c0.208,6.036,3.456,11.442,8.687,14.462c2.705,1.562,9.028,4.16,16.866,0.292l5.453-2.901l5.452,2.9
	c5.33,2.837,11.637,2.727,16.866-0.292c5.23-3.02,8.479-8.426,8.688-14.462l0.214-6.172l5.238-3.271
	c5.122-3.199,8.181-8.714,8.181-14.754c0-6.039-3.059-11.555-8.181-14.753l-5.238-3.271l-0.214-6.173
	c-0.209-6.036-3.457-11.442-8.687-14.461c-4.554-2.628-9.922-3.049-14.755-1.242v-22.078c3.844,0.418,7.786-0.038,11.515-1.424
	l12.061-4.485c14.337-5.332,23.969-19.191,23.969-34.486v-40.637c0-37.782,30.738-68.521,68.521-68.521h56.882
	c34.438,0,63.011,25.541,67.802,58.673H182.528c-4.143,0-7.5,3.358-7.5,7.5c0,4.142,3.357,7.5,7.5,7.5h170.431v35.484
	c0,15.295,9.632,29.155,23.969,34.486l12.061,4.486c5.814,1.997,10.61,1.514,11.515,1.415v22.086
	c-4.832-1.808-10.201-1.387-14.756,1.242c-5.229,3.02-8.478,8.426-8.686,14.461l-0.215,6.172l-5.238,3.271
	c-5.122,3.199-8.181,8.714-8.181,14.753c0,6.04,3.059,11.555,8.181,14.754l5.238,3.271l0.215,6.171
	c0.208,6.036,3.456,11.442,8.687,14.462c2.705,1.562,9.896,4.191,16.866,0.292l5.453-2.901l5.452,2.9
	c5.33,2.837,11.637,2.727,16.866-0.292c5.23-3.02,8.479-8.426,8.688-14.462l0.214-6.172l5.238-3.271
	c5.123-3.199,8.182-8.714,8.182-14.754C452.708,464.957,449.649,459.443,444.526,456.244z M219.492,45.15l10.745-6.71
	c2.116-1.321,3.437-3.608,3.522-6.102l0.438-12.66c0.084-2.416,1.715-3.612,2.412-4.015c0.434-0.25,2.767-1.091,4.683-0.081
	l11.184,5.95c2.201,1.172,4.844,1.172,7.045,0l11.184-5.95c2.135-1.136,3.985-0.321,4.683,0.081c0.698,0.403,2.329,1.6,2.413,4.015
	l0.438,12.66c0.086,2.493,1.406,4.78,3.522,6.102l10.744,6.71c2.05,1.28,2.271,3.291,2.271,4.096s-0.222,2.816-2.271,4.096
	l-10.744,6.71c-2.116,1.321-3.437,3.608-3.522,6.102l-0.438,12.66c-0.084,2.416-1.715,3.613-2.413,4.016
	c-0.696,0.402-2.547,1.216-4.683,0.081l-11.184-5.95c-2.201-1.172-4.844-1.172-7.045,0l-11.184,5.95
	c-2.135,1.136-3.986,0.321-4.683-0.081c-0.697-0.403-2.328-1.6-2.412-4.015l-0.438-12.66c-0.086-2.493-1.406-4.78-3.522-6.102
	l-10.745-6.71c-2.05-1.28-2.271-3.291-2.271-4.096S217.442,46.43,219.492,45.15z M118.75,445.33c0.43,0.248,1.156,0.836,1.196,1.99
	l0.352,10.16c0.086,2.494,1.406,4.781,3.522,6.102l8.623,5.385c0.979,0.612,1.126,1.535,1.126,2.031s-0.146,1.419-1.126,2.031
	l-8.623,5.385c-2.116,1.321-3.437,3.608-3.522,6.102l-0.352,10.159c-0.04,1.155-0.767,1.743-1.196,1.991
	c-0.429,0.247-1.298,0.584-2.322,0.04l-8.975-4.775c-2.201-1.172-4.844-1.171-7.045,0l-8.977,4.775
	c-1.019,0.542-1.891,0.208-2.32-0.04c-0.43-0.248-1.156-0.836-1.196-1.991l-0.353-10.16c-0.086-2.493-1.406-4.78-3.522-6.101
	l-8.623-5.385c-0.979-0.612-1.126-1.535-1.126-2.031s0.146-1.419,1.126-2.031l8.623-5.385c2.116-1.321,3.437-3.608,3.522-6.101
	l0.353-10.161c0.04-1.154,0.767-1.742,1.196-1.99c0.26-0.15,1.461-0.573,2.321-0.041l8.976,4.775c2.201,1.172,4.843,1.172,7.046,0
	l8.974-4.775C117.445,444.748,118.32,445.082,118.75,445.33z M144.038,327.986v40.637c0,9.06-5.705,17.269-14.197,20.427
	l-12.061,4.485c-3.182,1.185-6.608,0.751-9.397-1.187c-2.789-1.938-4.389-4.998-4.389-8.395V255.3l29.351-26.919
	c9.302-8.532,23.332-8.531,32.636,0l10.394,9.533c7.478,6.857,16.838,10.31,26.214,10.369
	C168.695,258.924,144.038,290.628,144.038,327.986z M227.559,244.467c-3.046,0-6.051,0.174-9.013,0.494
	c3.837-1.699,7.47-4.046,10.741-7.047l10.395-9.533c9.302-8.532,23.332-8.531,32.636,0l10.394,9.533
	c3.272,3.001,6.905,5.348,10.742,7.047c-2.962-0.319-5.967-0.494-9.013-0.494H227.559z M394.217,393.536l-12.061-4.486
	c-8.492-3.158-14.197-11.367-14.197-20.427v-40.637c0-37.358-24.656-69.063-58.549-79.705c9.377-0.059,18.737-3.512,26.213-10.369
	l10.395-9.533c9.303-8.531,23.333-8.531,32.636,0l29.351,26.919v128.655c0,3.396-1.6,6.456-4.389,8.395
	C400.825,394.289,397.398,394.719,394.217,393.536z M436.581,473.028l-8.623,5.385c-2.116,1.321-3.437,3.608-3.522,6.102
	l-0.352,10.159c-0.04,1.155-0.767,1.743-1.196,1.991c-0.429,0.247-1.298,0.584-2.322,0.04l-8.975-4.775
	c-2.201-1.172-4.844-1.171-7.045,0l-8.977,4.775c-1.018,0.542-1.891,0.208-2.32-0.04c-0.43-0.248-1.156-0.836-1.196-1.991
	l-0.353-10.16c-0.086-2.493-1.406-4.78-3.522-6.101l-8.623-5.385c-0.979-0.612-1.126-1.535-1.126-2.031s0.146-1.419,1.126-2.031
	l8.623-5.385c2.116-1.321,3.437-3.608,3.522-6.101l0.353-10.161c0.04-1.154,0.767-1.742,1.196-1.99
	c0.26-0.15,1.303-0.538,2.321-0.041l8.976,4.775c2.201,1.172,4.843,1.172,7.046,0l8.974-4.775c1.019-0.542,1.893-0.208,2.322,0.04
	c0.429,0.248,1.156,0.836,1.196,1.99l0.352,10.16c0.086,2.494,1.406,4.781,3.522,6.102l8.623,5.385
	c0.98,0.612,1.127,1.535,1.127,2.03C437.708,471.493,437.562,472.416,436.581,473.028z"/>
<g>
</g>
<g>
</g>
<g>
</g>
<g>
</g>
<g>
</g>
<g>
</g>
<g>
</g>
<g>
</g>
<g>
</g>
<g>
</g>
<g>
</g>
<g>
</g>
<g>
</g>
<g>
</g>
<g>
</g>
</svg>
