<?xml version="1.0" encoding="iso-8859-1"?>
<!-- Generator: Adobe Illustrator 19.0.0, SVG Export Plug-In . SVG Version: 6.00 Build 0)  -->
<svg version="1.1" id="Capa_1" xmlns="http://www.w3.org/2000/svg" xmlns:xlink="http://www.w3.org/1999/xlink" x="0px" y="0px"
	 viewBox="0 0 512 512" style="enable-background:new 0 0 512 512;" xml:space="preserve">
<path style="fill:#CAE7FC;" d="M494.906,223.186c-26.407-47.942-99.487-58.344-163.228-23.234s-94.005,102.437-67.597,150.379
	c26.407,47.942,99.487,58.344,163.228,23.234S521.313,271.129,494.906,223.186z M336.86,356.809
	c-11.091-1.579-31.125-6.817-40.677-24.161c-9.554-17.344-3.275-37.075,1.319-47.293c9.392-20.894,28.294-40.321,51.859-53.301
	c23.566-12.98,50.088-18.574,72.767-15.346c11.091,1.579,31.125,6.817,40.677,24.161c9.554,17.344,3.275,37.075-1.319,47.293
	c-9.392,20.894-28.294,40.321-51.86,53.302C386.062,354.445,359.539,360.038,336.86,356.809z"/>
<path style="fill:#94CBED;" d="M479.725,296.36c6.122-13.618,14.339-40.189,0.596-65.14c-13.744-24.951-40.594-32.206-55.375-34.309
	c-5.102-0.727-10.423-1.095-15.812-1.095c-22.849,0-47.502,6.649-69.422,18.722c-27.284,15.029-49.317,37.853-60.449,62.618
	c-6.122,13.618-14.339,40.188-0.596,65.141c13.744,24.951,40.594,32.205,55.375,34.309c5.103,0.727,10.424,1.095,15.813,1.095
	c22.849,0,47.502-6.649,69.42-18.722C446.559,343.95,468.592,321.126,479.725,296.36z M409.626,341.464
	c-23.566,12.98-50.088,18.574-72.767,15.346c-11.091-1.579-31.125-6.817-40.677-24.161c-9.554-17.344-3.275-37.075,1.319-47.293
	c9.392-20.894,28.294-40.321,51.859-53.302s50.088-18.574,72.767-15.346c11.091,1.579,31.125,6.817,40.677,24.161
	c9.554,17.344,3.275,37.075-1.319,47.293C452.094,309.056,433.192,328.483,409.626,341.464z"/>
<path style="fill:#CAE7FC;" d="M127.628,288.446c0,0-69.405,14.998-82.848-39.882c-0.997-4.068-2.127-7.772-3.363-11.141
	c-4.097-11.172-17.911-15.076-27.251-7.702c0,0-9.692,7.115-5.664,20.671c1.902,6.401,3.879,13.973,3.396,23.648
	C9.877,314.45,22.001,401.335,141.214,386.18C141.214,385.17,127.628,288.446,127.628,288.446z"/>
<path style="fill:#94CBED;" d="M141.214,386.181c0-1.01-13.586-97.735-13.586-97.735s-58.096,12.544-78.274-27.357
	c-8.049,23.152-16.439,57.755-13.494,95.933C54.458,378.639,86.588,393.125,141.214,386.181z"/>
<path style="fill:#FF737D;" d="M274.696,103.461h-58.174V68.344c0-12.733,10.323-23.056,23.056-23.056h12.061
	c12.733,0,23.056,10.323,23.056,23.056v35.117H274.696z"/>
<path style="fill:#F44242;" d="M260.153,46.917c-2.635-1.048-5.504-1.63-8.513-1.63h-12.061c-12.733,0-23.056,10.323-23.056,23.056
	v35.117h29.087V68.344C245.609,58.618,251.634,50.304,260.153,46.917z"/>
<path style="fill:#E9F6FF;" d="M352.194,155.45c-13.075-43.89-55.841-76.071-106.585-76.071s-93.51,32.181-106.584,76.071H352.194z"
	/>
<path style="fill:#CAE7FC;" d="M291.702,88.849c-14.036-6.069-29.64-9.47-46.092-9.47c-50.744,0-93.51,32.181-106.584,76.071h92.186
	C240.046,125.791,262.45,101.497,291.702,88.849z"/>
<path style="fill:#E9F6FF;" d="M245.609,136.434c-94.574,0-171.241,73.878-171.241,165.011c0,52.537,25.479,99.336,65.179,129.556
	c17.782,13.536,39.567,20.765,61.915,20.765h88.293c22.348,0,44.133-7.23,61.915-20.765c39.7-30.219,65.179-77.019,65.179-129.556
	C416.85,210.312,340.182,136.434,245.609,136.434z"/>
<g>
	<path style="fill:#CAE7FC;" d="M161.97,301.446c0-76.543,54.087-140.905,127.44-159.554c-13.982-3.554-28.66-5.457-43.801-5.457
		c-94.574,0-171.241,73.878-171.241,165.011c0,52.537,25.479,99.336,65.179,129.556c17.782,13.536,39.567,20.765,61.915,20.765
		h87.602c-22.348,0-44.133-7.23-61.915-20.765C187.449,400.782,161.97,353.982,161.97,301.446z"/>
	<path style="fill:#CAE7FC;" d="M327.536,411.676c-2.509-3.296-1.871-8,1.425-10.509c18.644-14.192,32.983-32.775,41.464-53.74
		c1.554-3.839,5.925-5.691,9.765-4.139c3.838,1.554,5.692,5.925,4.139,9.765c-9.492,23.461-24.924,45.007-46.284,60.048
		C333.493,416.306,329.012,413.614,327.536,411.676z"/>
</g>
<path style="fill:#57565C;" d="M226.491,311.901l-28.946-18.225c-10.271-6.467-13.99-19.961-7.893-30.456
	c6.402-11.018,20.602-14.446,31.293-7.714l14.714,9.265c6.057,3.813,13.765,3.813,19.822,0l14.714-9.265
	c10.464-6.588,24.282-3.447,30.87,7.015c6.587,10.462,3.446,24.283-7.016,30.87l-29.4,18.511
	C252.991,319.243,238.152,319.243,226.491,311.901z"/>
<g>
	<path style="fill:#FF737D;" d="M278.392,303.254c-4.223-10.711-17.296-18.52-32.775-18.52c-15.498,0-28.583,7.828-32.79,18.558
		l13.672,8.609c11.66,7.342,26.499,7.342,38.161,0L278.392,303.254z"/>
	<path style="fill:#FF737D;" d="M138.401,295.491h-19.912c-6.514,0-11.844-5.33-11.844-11.844l0,0
		c0-6.514,5.33-11.844,11.844-11.844h19.912c6.514,0,11.844,5.33,11.844,11.844l0,0
		C150.245,290.162,144.916,295.491,138.401,295.491z"/>
	<path style="fill:#FF737D;" d="M372.73,295.491h-19.912c-6.514,0-11.844-5.33-11.844-11.844l0,0c0-6.514,5.33-11.844,11.844-11.844
		h19.912c6.514,0,11.844,5.33,11.844,11.844l0,0C384.574,290.162,379.244,295.491,372.73,295.491z"/>
	<path style="fill:#FF737D;" d="M349.882,175.382H141.336c-10.962,0-19.932-8.97-19.932-19.932l0,0
		c0-10.962,8.97-19.932,19.932-19.932h208.546c10.962,0,19.932,8.97,19.932,19.932l0,0
		C369.814,166.413,360.845,175.382,349.882,175.382z"/>
</g>
<path style="fill:#F44242;" d="M213.589,155.45L213.589,155.45c0-10.962,8.97-19.932,19.932-19.932h-92.186
	c-10.962,0-19.932,8.97-19.932,19.932l0,0c0,10.962,8.97,19.932,19.932,19.932h92.186
	C222.559,175.382,213.589,166.413,213.589,155.45z"/>
<path style="fill:#FF737D;" d="M339.401,466.716H151.816c-9.861,0-17.928-8.068-17.928-17.928l0,0
	c0-9.861,8.068-17.928,17.928-17.928h187.585c9.861,0,17.928,8.068,17.928,17.928l0,0
	C357.331,458.648,349.262,466.716,339.401,466.716z"/>
<path style="fill:#F44242;" d="M214.532,448.787L214.532,448.787c0-9.861,8.068-17.928,17.928-17.928h-80.645
	c-9.861,0-17.928,8.068-17.928,17.928l0,0c0,9.861,8.068,17.928,17.928,17.928h80.645
	C222.6,466.716,214.532,458.648,214.532,448.787z"/>
<path d="M326.254,240.18c-4.141,0-7.499,3.358-7.499,7.499v12.449c0,4.141,3.358,7.499,7.499,7.499c4.141,0,7.499-3.358,7.499-7.499
	v-12.449C333.753,243.538,330.396,240.18,326.254,240.18z"/>
<path d="M164.964,240.18c-4.141,0-7.499,3.358-7.499,7.499v12.449c0,4.141,3.358,7.499,7.499,7.499s7.499-3.358,7.499-7.499v-12.449
	C172.463,243.538,169.106,240.18,164.964,240.18z"/>
<path d="M266.202,249.16l-14.714,9.265c-3.593,2.264-8.238,2.264-11.831,0l-14.714-9.265c-6.925-4.361-15.117-5.687-23.065-3.729
	c-7.946,1.955-14.59,6.935-18.707,14.022c-7.983,13.74-3.326,31.938,10.382,40.569l28.945,18.225
	c7.009,4.413,15.042,6.62,23.076,6.62c8.034,0,16.067-2.207,23.076-6.62l29.4-18.511c13.944-8.78,18.145-27.267,9.366-41.211
	C298.631,244.582,280.144,240.381,266.202,249.16z M290.055,287.044l-29.4,18.511c-9.164,5.77-21.005,5.77-30.169,0l-28.945-18.225
	c-6.954-4.378-9.378-13.504-5.404-20.343c2.055-3.536,10.324-10.985,20.813-5.136l14.714,9.265c8.448,5.319,19.365,5.319,27.813,0
	l14.714-9.265c6.947-4.372,16.155-2.28,20.528,4.665C299.094,273.462,297.001,282.671,290.055,287.044z"/>
<path d="M501.474,219.568c-11.382-20.664-30.747-35.495-55.999-42.887c-23.299-6.82-49.582-6.722-76.207,0.218
	c-0.368-0.34-0.73-0.686-1.101-1.024c5.609-5.026,9.147-12.32,9.147-20.427c0-15.125-12.305-27.431-27.431-27.431H161.167
	c19.18-25.66,50.412-41.141,84.443-41.141c27.014,0,52.557,9.731,71.924,27.399c3.06,2.793,7.803,2.575,10.593-0.486
	c2.792-3.06,2.574-7.803-0.486-10.593c-13.076-11.929-28.594-20.69-45.445-25.865v-8.989c0-16.849-13.707-30.555-30.555-30.555
	H239.58c-16.848,0-30.555,13.706-30.555,30.555v8.993c-27.508,8.433-51.097,26.257-65.921,50.684c0,0-29.198,0.32-29.198,27.431
	c0,8.108,3.538,15.403,9.15,20.429c-28.616,26.006-47.363,60.064-53.749,97.083c-8.727-5.99-14.409-14.622-17.242-26.183
	c-1.032-4.214-2.246-8.231-3.605-11.939c-2.791-7.608-8.863-13.236-16.661-15.44c-7.796-2.206-15.917-0.588-22.278,4.434
	c-1.788,1.404-13.368,11.316-8.207,28.692c1.798,6.052,3.518,12.669,3.095,21.138c-1.029,20.584,0.534,59.782,25.759,88.257
	c4.562,5.149,9.16,2.012,10.575,0.793c3.14-2.702,3.494-7.436,0.793-10.576c-7.398-8.599-24.367-33.384-22.149-77.727
	c0.541-10.831-1.625-19.181-3.697-26.157c-2.273-7.653,1.924-11.671,2.961-12.522c0.087-0.06,0.037-0.028,0.163-0.128
	c2.543-2.008,14.276-4.792,18.683,14.742c4.049,17.952,14.418,30.913,29.836,38.858c-0.297,4.057-0.463,8.137-0.463,12.239
	c0,26.762,6.299,52.568,18.072,75.804c-7.533-1.753-14.462-4.221-20.703-7.392c-3.691-1.876-8.206-0.404-10.082,3.29
	c-1.876,3.692-0.403,8.207,3.29,10.082c10.898,5.537,23.465,9.202,37.356,10.96c9.792,14.789,21.997,28.216,36.373,39.777
	c-3.007,4.176-4.785,9.293-4.785,14.821c0,14.021,11.406,25.427,25.427,25.427h187.585c14.021,0,25.427-11.406,25.427-25.427
	c0-5.527-1.779-10.645-4.785-14.821c14.151-11.38,26.192-24.573,35.906-39.088c11.982-3.607,23.73-8.55,34.978-14.744
	c32.243-17.76,57.396-43.995,70.825-73.871C515.51,275.658,515.411,244.869,501.474,219.568z M224.022,68.344
	c0-8.578,6.979-15.557,15.557-15.557h12.061c8.578,0,15.557,6.979,15.557,15.557v5.402c-7.056-1.23-14.275-1.866-21.588-1.866
	c-7.333,0-14.55,0.647-21.588,1.874v-5.41H224.022z M141.336,143.017h208.546c6.856,0,12.433,5.577,12.433,12.433
	c0,6.855-5.577,12.433-12.433,12.433H141.336c-6.856,0-12.433-5.577-12.433-12.433S134.48,143.017,141.336,143.017z
	 M339.402,459.217H151.816c-5.751,0-10.43-4.678-10.43-10.43s4.678-10.43,10.43-10.43h187.585c5.751,0,10.43,4.678,10.43,10.43
	S345.153,459.217,339.402,459.217z M347.548,424.706c-2.56-0.868-5.297-1.346-8.147-1.346H151.816c-2.849,0-5.587,0.478-8.147,1.346
	c-39.281-30.099-61.803-74.99-61.803-123.26c0-45.69,20.448-88.789,56.203-118.766c1.072,0.128,214.005,0.128,215.076,0
	c35.75,29.975,56.205,73.096,56.205,118.765C409.35,349.714,386.83,394.606,347.548,424.706z M405.043,223.41
	c5.537-0.24,10.9-0.007,16.028,0.723c9.707,1.381,27.184,5.862,35.165,20.354c7.982,14.491,2.43,31.657-1.59,40.6
	c-6.386,14.208-17.586,27.718-31.798,38.734c0.983-7.36,1.501-14.828,1.501-22.376C424.348,273.94,417.597,247.29,405.043,223.41z
	 M423.691,366.997c-5.302,2.921-10.722,5.533-16.227,7.837c4.671-9.598,8.43-19.612,11.193-29.945
	c22.437-13.659,40.361-32.948,49.668-53.653c5.166-11.493,12.171-33.789,1.047-53.985c-11.124-20.197-33.714-26.19-46.188-27.966
	c-8.457-1.204-17.392-1.275-26.622-0.246c-4.494-6.83-9.491-13.377-14.981-19.578c20.906-4.147,41.738-3.637,59.681,1.616
	c21.367,6.254,37.646,18.609,47.075,35.729C512.709,271.048,483.708,333.938,423.691,366.997z"/>
<g>
</g>
<g>
</g>
<g>
</g>
<g>
</g>
<g>
</g>
<g>
</g>
<g>
</g>
<g>
</g>
<g>
</g>
<g>
</g>
<g>
</g>
<g>
</g>
<g>
</g>
<g>
</g>
<g>
</g>
</svg>
