<?xml version="1.0" encoding="iso-8859-1"?>
<!-- Generator: Adobe Illustrator 19.0.0, SVG Export Plug-In . SVG Version: 6.00 Build 0)  -->
<svg version="1.1" id="Capa_1" xmlns="http://www.w3.org/2000/svg" xmlns:xlink="http://www.w3.org/1999/xlink" x="0px" y="0px"
	 viewBox="0 0 511.999 511.999" style="enable-background:new 0 0 511.999 511.999;" xml:space="preserve">
<path style="fill:#D66E18;" d="M361.3,504.5H88.816c-36.351,0-65.82-29.468-65.82-65.82V73.32c0-36.351,29.468-65.82,65.82-65.82
	H361.3c36.351,0,65.82,29.468,65.82,65.82v365.36C427.12,475.032,397.651,504.5,361.3,504.5z"/>
<path style="fill:#C15C10;" d="M222.745,456.001V55.999c0-18.679,7.108-35.696,18.765-48.499H88.816
	c-36.351,0-65.82,29.468-65.82,65.82v365.361c0,36.351,29.468,65.819,65.82,65.819H241.51
	C229.853,491.697,222.745,474.68,222.745,456.001z"/>
<path style="fill:#87461A;" d="M88.816,7.5c-3.768,0-7.456,0.334-11.051,0.942V322.92c0,19.164,15.536,34.7,34.7,34.7l0,0
	c19.164,0,34.7-15.536,34.7-34.7V7.5H88.816z"/>
<g>
	<path style="fill:#A5531C;" d="M338.13,372.711L338.13,372.711c-19.164,0-34.7,15.536-34.7,34.7V504.5h57.87
		c3.936,0,7.784-0.365,11.53-1.027v-96.062C372.83,388.246,357.294,372.711,338.13,372.711z"/>
	<path style="fill:#A5531C;" d="M222.745,144.83L222.745,144.83c-19.164,0-34.7-15.536-34.7-34.7V93.594
		c0-19.164,15.536-34.7,34.7-34.7l0,0c19.164,0,34.7,15.536,34.7,34.7v16.536C257.445,129.294,241.91,144.83,222.745,144.83z"/>
	<path style="fill:#A5531C;" d="M257.446,504.5V230.697c0-19.164-15.536-34.7-34.7-34.7l0,0c-19.164,0-34.7,15.536-34.7,34.7V504.5
		H257.446z"/>
</g>
<g>
	<path style="fill:#87461A;" d="M188.045,93.594v16.536c0,19.164,15.536,34.7,34.7,34.7V58.893
		C203.581,58.893,188.045,74.429,188.045,93.594z"/>
	<path style="fill:#87461A;" d="M222.745,195.997c-19.164,0-34.7,15.536-34.7,34.7V504.5h53.465
		c-11.657-12.802-18.765-29.82-18.765-48.499V195.997z"/>
</g>
<path style="fill:#C15C10;" d="M427.12,195.997h-26.56l-88.712,90.038c0,0,30.581,57.882,115.272,66.48V195.997z"/>
<path style="fill:#EF943A;" d="M467.103,126.758c-6.667-7.219-17.225-9.351-26.146-5.231
	c-48.696,22.494-110.103,64.363-125.7,78.766c-24.618,22.735-26.145,61.123-3.41,85.742c22.735,24.618,61.123,26.145,85.742,3.41
	c15.596-14.403,62.209-72.292,88.499-119.048c4.816-8.565,3.529-19.26-3.138-26.478L467.103,126.758z"/>
<path style="fill:#E28027;" d="M482.951,143.918l-15.848-17.161c0,0-76.799,103.141-92.396,117.544
	c-22.291,20.586-55.871,21.279-78.899,2.95c0.541,13.928,5.841,27.741,16.039,38.783c22.735,24.618,61.123,26.145,85.742,3.41
	c15.596-14.403,62.209-72.292,88.499-119.048C490.904,161.832,489.617,151.137,482.951,143.918z"/>
<path d="M488.46,138.83l-15.848-17.161c-18.114-19.808-36.928-5.953-37.993-5.449V73.319C434.62,32.891,401.729,0,361.3,0H88.816
	c-4.221,0-73.32,2.634-73.32,73.319V438.68c0,40.428,32.891,73.319,73.32,73.319H361.3c40.428,0,73.319-32.891,73.319-73.319
	V258.368c19.326-24.351,42.153-56.101,58.006-84.295C499.05,162.647,497.376,148.484,488.46,138.83z M310.93,497v-89.589
	c0-14.998,12.202-27.2,27.2-27.2s27.2,12.202,27.2,27.2v89.435C363.997,496.937,310.93,497,310.93,497z M479.551,166.721
	c-25.309,45.011-71.602,102.948-87.05,117.214c-21.541,19.894-55.25,18.553-75.144-2.988c-19.893-21.541-18.553-55.25,2.988-75.144
	c5.221-4.821,16.301-13.188,29.64-22.384c3.41-2.351,4.269-7.021,1.918-10.432c-2.35-3.409-7.02-4.27-10.432-1.918
	c-14.096,9.717-25.505,18.36-31.303,23.714c-13.378,12.355-21.145,29.18-21.868,47.376c-0.724,18.196,5.682,35.585,18.037,48.963
	s29.18,21.145,47.376,21.868c0.927,0.037,26.922,2.847,48.963-18.037c3.889-3.685,9.856-10.028,16.942-18.323v162.05
	c0,25.495-16.451,47.206-39.29,55.114V407.41c0-23.269-18.931-42.2-42.2-42.2s-42.2,18.931-42.2,42.2V497h-30.985v-96.995
	c0-4.142-3.358-7.5-7.5-7.5s-7.5,3.358-7.5,7.5V497h-54.4V230.697c0-14.998,12.202-27.2,27.2-27.2s27.2,12.202,27.2,27.2v134.384
	c0,4.142,3.358,7.5,7.5,7.5s7.5-3.358,7.5-7.5V230.697c0-23.269-18.931-42.2-42.2-42.2s-42.2,18.931-42.2,42.2V497H88.816
	c-32.158,0-58.32-26.162-58.32-58.319V73.319c0-25.672,16.682-47.508,39.769-55.277V322.92c0,23.269,18.931,42.2,42.2,42.2
	s42.2-18.931,42.2-42.2V42.27c0-4.142-3.358-7.5-7.5-7.5s-7.5,3.358-7.5,7.5v280.65c0,14.998-12.202,27.2-27.2,27.2
	s-27.2-12.202-27.2-27.2V15.118C86.441,15.047,361.3,15,361.3,15c32.157,0,58.319,26.162,58.319,58.319v50.356
	c-19.303,10.028-37.788,21.167-51.203,29.636c-3.502,2.211-4.549,6.843-2.338,10.346c2.211,3.502,6.843,4.55,10.346,2.338
	c17.227-10.875,42.952-26.237,67.678-37.659c5.974-2.759,13.002-1.35,17.49,3.51l15.848,17.161
	C481.928,153.866,482.776,160.984,479.551,166.721z"/>
<path d="M222.745,51.394c-23.269,0-42.2,18.931-42.2,42.2v16.536c0,23.269,18.931,42.2,42.2,42.2s42.2-18.931,42.2-42.2V93.594
	C264.945,70.325,246.014,51.394,222.745,51.394z M249.945,110.129c0,14.998-12.202,27.2-27.2,27.2l0,0
	c-14.998,0-27.2-12.202-27.2-27.2V93.594c0-14.998,12.202-27.2,27.2-27.2s27.2,12.202,27.2,27.2V110.129z"/>
<g>
</g>
<g>
</g>
<g>
</g>
<g>
</g>
<g>
</g>
<g>
</g>
<g>
</g>
<g>
</g>
<g>
</g>
<g>
</g>
<g>
</g>
<g>
</g>
<g>
</g>
<g>
</g>
<g>
</g>
</svg>
