<?xml version="1.0" encoding="iso-8859-1"?>
<!-- Generator: Adobe Illustrator 19.0.0, SVG Export Plug-In . SVG Version: 6.00 Build 0)  -->
<svg version="1.1" id="Capa_1" xmlns="http://www.w3.org/2000/svg" xmlns:xlink="http://www.w3.org/1999/xlink" x="0px" y="0px"
	 viewBox="0 0 512 512" style="enable-background:new 0 0 512 512;" xml:space="preserve">
<path style="fill:#57565C;" d="M93.238,461.316l10.903,23.093c5.791,12.266,18.138,20.091,31.703,20.091h144.295
	c6.474,0,12.814-1.848,18.273-5.328l9.176-5.848c11.039-7.035,25.136-7.108,36.248-0.188l9.995,6.225
	c5.394,3.359,11.62,5.139,17.974,5.139h46.172c12.306,0,22.281-9.975,22.282-22.281v-14.055L93.238,461.316z"/>
<path style="fill:#3E3D42;" d="M240.61,464.224l-147.372-2.908l10.903,23.093c5.791,12.266,18.138,20.091,31.703,20.091h121.654
	C248.885,490.042,243.555,476.588,240.61,464.224z"/>
<path style="fill:#EF943A;" d="M206.303,73.666v166.053c0,29.508-25.148,52.755-54.565,50.44l-37.454-2.947
	c-34.298-2.699-63.618,24.405-63.618,58.809v68.629c0,29.555,23.959,53.514,53.514,53.514h336.08V73.666H206.303z"/>
<path style="fill:#D66E18;" d="M206.303,73.666v166.053c0,29.508-25.148,52.755-54.565,50.44l-37.454-2.947
	c-34.298-2.699-63.618,24.405-63.618,58.809v68.629c0,29.555,23.959,53.514,53.514,53.514h77.958l88.107-101.159
	c18.816-21.604,29.181-49.285,29.181-77.934V73.666H206.303z"/>
<g>
	<circle style="fill:#DB543E;" cx="331.55" cy="263.04" r="21.314"/>
	<circle style="fill:#DB543E;" cx="331.55" cy="206.76" r="21.314"/>
	<circle style="fill:#DB543E;" cx="331.55" cy="150.49" r="21.314"/>
</g>
<path style="fill:#B3DBF4;" d="M427.449,94.843h-4.469c-18.637,0-33.886-15.249-33.886-33.886V41.386
	c0-18.637,15.249-33.886,33.886-33.886h4.469c18.637,0,33.886,15.249,33.886,33.886v19.572
	C461.335,79.595,446.086,94.843,427.449,94.843z"/>
<path style="fill:#94CBED;" d="M422.98,7.5c-18.637,0-33.886,15.249-33.886,33.886v19.572c0,18.637,15.249,33.886,33.886,33.886
	c0,0,11.604-9.51,11.604-33.886V41.386C434.585,19,422.98,7.5,422.98,7.5z"/>
<path style="fill:#E9F6FF;" d="M370.698,94.843h-4.469c-18.637,0-33.886-15.249-33.886-33.886V41.386
	c0-18.637,15.249-33.886,33.886-33.886h4.469c18.637,0,33.886,15.249,33.886,33.886v19.572
	C404.585,79.595,389.335,94.843,370.698,94.843z"/>
<path style="fill:#CAE7FC;" d="M366.229,7.5c-18.637,0-33.886,15.249-33.886,33.886v19.572c0,18.637,15.249,33.886,33.886,33.886
	c0,0,11.604-15.177,11.604-33.886V41.386C377.833,21,366.229,7.5,366.229,7.5z"/>
<path style="fill:#B3DBF4;" d="M313.947,94.843h-4.469c-18.637,0-33.886-15.249-33.886-33.886V41.386
	c0-18.637,15.249-33.886,33.886-33.886h4.469c18.637,0,33.886,15.249,33.886,33.886v19.572
	C347.833,79.595,332.585,94.843,313.947,94.843z"/>
<path style="fill:#94CBED;" d="M309.478,7.5c-18.637,0-33.886,15.249-33.886,33.886v19.572c0,18.637,15.249,33.886,33.886,33.886
	c0,0,11.604-13.843,11.604-33.886V41.386C321.082,20,309.478,7.5,309.478,7.5z"/>
<path style="fill:#E9F6FF;" d="M257.197,94.843h-4.469c-18.637,0-33.886-15.249-33.886-33.886V41.386
	c0-18.637,15.249-33.886,33.886-33.886h4.469c18.637,0,33.886,15.249,33.886,33.886v19.572
	C291.082,79.595,275.833,94.843,257.197,94.843z"/>
<path style="fill:#CAE7FC;" d="M254.961,60.958V41.386c0-12.93,7.342-24.223,18.06-29.931C268.29,8.936,262.904,7.5,257.197,7.5
	h-4.469c-18.637,0-33.886,15.249-33.886,33.886v19.572c0,18.637,15.249,33.886,33.886,33.886h4.469
	c5.708,0,11.094-1.436,15.826-3.955C262.303,85.18,254.961,73.887,254.961,60.958z"/>
<path style="fill:#FFB864;" d="M206.303,239.719c0,29.508-25.148,52.755-54.565,50.44l-37.453-2.947
	c-34.298-2.699-63.618,24.405-63.618,58.809v68.629c0,29.555,23.959,53.514,53.514,53.514l130.27-125.514
	c17.952-17.296,28.094-41.152,28.094-66.08V85.733c0-13.138-7.184-25.224-18.725-31.502l-14.595-7.94
	c-10.335-5.622-22.922,1.859-22.922,13.625L206.303,239.719L206.303,239.719z"/>
<path style="fill:#806749;" d="M131.617,288.577L131.617,288.577l-17.334-1.364c-34.298-2.699-63.618,24.405-63.618,58.809v68.629
	c0,29.555,23.959,53.514,53.514,53.514H440.26V362.998C194.594,420.085,131.617,288.577,131.617,288.577z"/>
<path style="fill:#6A563D;" d="M265.734,372.183L265.734,372.183c-103.158-18.973-134.117-83.607-134.117-83.607l-17.334-1.364
	c-34.298-2.699-63.618,24.405-63.618,58.809v68.629c0,29.555,23.959,53.514,53.514,53.514h137.439
	C225.007,407.668,265.734,372.183,265.734,372.183z"/>
<path style="fill:#554431;" d="M80.666,371.036c-4.142,0-7.5-3.358-7.5-7.5v-17.514c0-20.124,16.334-36.495,36.411-36.495
	c4.142,0,7.5,3.358,7.5,7.5s-3.358,7.5-7.5,7.5c-11.806,0-21.411,9.643-21.411,21.495v17.514
	C88.166,367.678,84.808,371.036,80.666,371.036z"/>
<path style="fill:#57565C;" d="M315.56,166.471H209.53c-8.792,0-15.986-7.194-15.986-15.986l0,0c0-8.792,7.194-15.986,15.986-15.986
	h106.03c8.792,0,15.986,7.194,15.986,15.986l0,0C331.546,159.278,324.352,166.471,315.56,166.471z"/>
<path style="fill:#3E3D42;" d="M241.231,150.486L241.231,150.486c0-8.792,7.194-15.986,15.986-15.986H209.53
	c-8.792,0-15.986,7.193-15.986,15.986l0,0c0,8.792,7.194,15.986,15.986,15.986h47.687
	C248.424,166.471,241.231,159.278,241.231,150.486z"/>
<g>
	<path style="fill:#57565C;" d="M315.56,222.751H209.53c-8.792,0-15.986-7.194-15.986-15.986l0,0
		c0-8.792,7.194-15.986,15.986-15.986h106.03c8.792,0,15.986,7.194,15.986,15.986l0,0
		C331.546,215.557,324.352,222.751,315.56,222.751z"/>
	<path style="fill:#57565C;" d="M315.56,279.03H197.019c-8.792,0-15.986-7.194-15.986-15.986l0,0
		c0-8.792,7.194-15.986,15.986-15.986H315.56c8.792,0,15.986,7.194,15.986,15.986l0,0C331.546,271.836,324.352,279.03,315.56,279.03
		z"/>
</g>
<g>
	<path style="fill:#3E3D42;" d="M241.231,206.765L241.231,206.765c0-8.792,7.194-15.986,15.986-15.986H209.53
		c-8.792,0-15.986,7.193-15.986,15.986l0,0c0,8.792,7.194,15.986,15.986,15.986h47.687
		C248.424,222.75,241.231,215.557,241.231,206.765z"/>
	<path style="fill:#3E3D42;" d="M228.72,263.044L228.72,263.044c0-8.792,7.194-15.986,15.986-15.986h-47.687
		c-8.792,0-15.986,7.193-15.986,15.986l0,0c0,8.792,7.194,15.986,15.986,15.986h47.687
		C235.913,279.03,228.72,271.836,228.72,263.044z"/>
</g>
<path d="M427.449,0h-4.469c-9.62,0-18.789,3.345-26.12,9.346C389.724,3.509,380.615,0,370.698,0h-4.469
	c-9.576,0-18.778,3.349-26.12,9.346C332.973,3.509,323.863,0,313.947,0h-4.469c-9.62,0-18.789,3.345-26.12,9.346
	C276.222,3.509,267.112,0,257.197,0h-4.469c-22.154,0-40.294,17.498-41.335,39.398c-0.45,0.23-0.896,0.476-1.336,0.737
	c-7.046,4.188-11.253,11.583-11.253,19.78v69.688c-7.568,3.904-12.759,11.796-12.759,20.882s5.19,16.978,12.759,20.882v14.515
	c-7.568,3.904-12.759,11.796-12.759,20.882c0,9.087,5.19,16.979,12.759,20.882v11.912c0,0-23.758-2.132-25.27,23.485
	c-0.299,5.066,1.624,9.776,4.371,13.62c-7.645,4.61-16.534,6.733-25.579,6.018l-37.454-2.947c-18.426-1.45-36.778,4.914-50.35,17.46
	s-21.356,30.343-21.356,48.826v68.628c0,29.131,20.527,53.545,47.873,59.573l6.321,13.388C104.354,502.427,119.46,512,135.844,512
	h144.295c7.916,0,15.629-2.249,22.305-6.503l9.176-5.848c8.553-5.451,19.643-5.509,28.252-0.147l9.994,6.225
	c6.589,4.104,14.176,6.273,21.94,6.273h46.172c16.422,0,29.782-13.36,29.782-29.781V96.995
	c12.568-7.112,21.074-20.596,21.074-36.038V41.386C468.835,18.565,450.27,0,427.449,0z M313.947,15
	c14.549,0,26.386,11.836,26.386,26.386v19.572c0,14.549-11.836,26.386-26.386,26.386h-4.469c-6.03,0-11.804-2.081-16.453-5.817
	c3.535-6.11,5.557-13.154,5.557-20.569V41.386c0-7.5-2.015-14.533-5.518-20.606c4.639-3.714,10.391-5.78,16.414-5.78H313.947z
	 M252.727,15h4.469c14.549,0,26.386,11.836,26.386,26.386v19.572c0,9.737-5.45,18.484-13.595,23.05
	c-0.604-15.221-9.125-29.044-22.582-36.365l-14.595-7.939c-1.976-1.075-4.052-1.832-6.168-2.293
	C228.564,24.74,239.529,15,252.727,15z M209.53,215.25c-4.679,0-8.486-3.807-8.486-8.486c0-4.679,3.807-8.485,8.486-8.485h106.03
	c4.679,0,8.485,3.807,8.485,8.485c0,4.679-3.807,8.486-8.485,8.486H209.53z M255.045,173.971v9.308h-41.242v-9.308H255.045z
	 M314.86,173.971c3.165,2.25,6.74,3.829,10.513,4.656c-3.762,0.82-7.326,2.382-10.517,4.652h-44.812v-9.308H314.86z M314.886,230.25
	c3.184,2.257,6.796,3.832,10.596,4.654c-3.807,0.821-7.426,2.389-10.616,4.655h-44.82v-9.308h44.84V230.25z M334.829,249.641
	c6.035,1.479,10.531,6.919,10.531,13.403s-4.497,11.924-10.531,13.404c2.654-3.804,4.217-8.424,4.217-13.404
	C339.046,258.064,337.483,253.445,334.829,249.641z M334.829,193.361c6.035,1.479,10.531,6.919,10.531,13.403
	s-4.497,11.924-10.531,13.404c2.654-3.804,4.217-8.424,4.217-13.404C339.046,201.785,337.483,197.165,334.829,193.361z
	 M334.829,137.082c6.035,1.479,10.531,6.92,10.531,13.404s-4.497,11.924-10.531,13.403c2.654-3.804,4.217-8.424,4.217-13.404
	C339.046,145.505,337.483,140.886,334.829,137.082z M324.046,150.486c0,4.679-3.807,8.485-8.485,8.485H209.53
	c-4.679,0-8.486-3.807-8.486-8.486S204.852,142,209.53,142h106.03C320.24,142,324.046,145.807,324.046,150.486z M213.803,127V59.915
	c0-4.113,2.739-6.186,3.917-6.886c1.178-0.701,4.307-2.117,7.92-0.15l14.595,7.939c9.135,4.969,14.809,14.516,14.809,24.914V127
	H213.803z M213.803,230.25h41.242v9.308h-41.242V230.25z M197.019,254.559H315.56c4.679,0,8.485,3.807,8.485,8.485
	c0,4.679-3.807,8.486-8.485,8.486H197.019c-4.679,0-8.486-3.807-8.486-8.486C188.533,258.365,192.34,254.559,197.019,254.559z
	 M191.098,285.772c1.892,0.493,63.336,0.757,63.336,0.757c-2.279,19.295-11.071,37.119-25.187,50.72l-12.999,12.524
	c-41.203-17.013-68.573-50.435-70.151-52.534C146.097,297.239,173.598,300.545,191.098,285.772z M417.978,497h-46.172
	c-4.958,0-9.802-1.385-14.01-4.006l-9.995-6.225c-13.483-8.396-30.85-8.307-44.244,0.23l-9.176,5.848
	c-4.263,2.716-9.188,4.152-14.243,4.152H135.844c-10.609,0-20.392-6.199-24.921-15.792l-2.617-5.543h31.526
	c4.142,0,7.5-3.358,7.5-7.5s-3.358-7.5-7.5-7.5h-35.653c-25.372,0-46.014-20.642-46.014-46.014v-68.628
	c0-14.524,5.874-27.952,16.539-37.811c10.666-9.859,24.516-14.667,38.991-13.521l13.3,1.047c5.826,9.882,24.12,36.373,63.184,58.019
	c27.853,15.435,60.631,25.244,97.422,29.156c12.171,1.294,24.793,1.94,37.845,1.94c33.165,0,69.092-4.18,107.314-12.487v88.299
	H172.109c-4.142,0-7.5,3.358-7.5,7.5s3.358,7.5,7.5,7.5H432.76v6.555C432.76,490.369,426.129,497,417.978,497z M432.76,356.992
	c-52.568,11.707-100.559,15.456-142.698,11.095c-20.915-2.165-40.412-6.328-58.326-12.407l7.919-7.629
	c17.061-16.438,27.534-38.111,29.875-61.521h45.332c4.853,3.451,10.666,5.329,16.684,5.329c15.888,0,28.814-12.926,28.814-28.814
	c0-13.766-9.707-25.302-22.634-28.139c12.927-2.837,22.634-14.374,22.634-28.14s-9.707-25.302-22.634-28.139
	c12.927-2.837,22.634-14.373,22.634-28.139c0-15.888-12.926-28.814-28.814-28.814c-5.86,0-11.502,1.751-16.317,5.063l0.183,0.266
	h-45.366v-26.721c4.899-1.615,9.387-4.118,13.277-7.313c7.342,6.018,16.536,9.377,26.155,9.377h4.469
	c22.82,0,41.386-18.565,41.386-41.386V41.386c0-7.498-2.014-14.529-5.515-20.601C354.464,17.073,360.234,15,366.229,15h4.469
	c14.549,0,26.386,11.836,26.386,26.386v19.572c0,14.549-11.836,26.386-26.386,26.386h-4.469c-4.142,0-7.5,3.358-7.5,7.5
	s3.358,7.5,7.5,7.5h4.469c9.91,0,19.016-3.505,26.149-9.336c11.946,12.721,34.173,9.207,35.914,8.983L432.76,356.992L432.76,356.992
	z M453.835,60.958c0,14.549-11.836,26.386-26.386,26.386h-4.469c-6.049,0-11.788-2.056-16.419-5.771
	c3.506-6.075,5.523-13.111,5.523-20.615V41.386c0-7.5-2.015-14.533-5.518-20.606c4.639-3.715,10.391-5.78,16.414-5.78h4.469
	c14.549,0,26.386,11.836,26.386,26.386V60.958z"/>
<g>
</g>
<g>
</g>
<g>
</g>
<g>
</g>
<g>
</g>
<g>
</g>
<g>
</g>
<g>
</g>
<g>
</g>
<g>
</g>
<g>
</g>
<g>
</g>
<g>
</g>
<g>
</g>
<g>
</g>
</svg>
