<?xml version="1.0" encoding="iso-8859-1"?>
<!-- Generator: Adobe Illustrator 19.0.0, SVG Export Plug-In . SVG Version: 6.00 Build 0)  -->
<svg version="1.1" id="Capa_1" xmlns="http://www.w3.org/2000/svg" xmlns:xlink="http://www.w3.org/1999/xlink" x="0px" y="0px"
	 viewBox="0 0 512.001 512.001" style="enable-background:new 0 0 512.001 512.001;" xml:space="preserve">
<path style="fill:#FFC477;" d="M435.335,306.148c-10.112-2.174-16.55-12.126-14.391-22.237l0,0
	c0.205-0.972,20.019-97.953-29.626-159.212C363.424,90.28,317.897,72.828,256,72.828S148.575,90.28,120.681,124.7
	c-49.643,61.258-29.831,158.24-29.626,159.212c2.143,10.117-4.309,20.071-14.423,22.229c-10.108,2.158-20.06-4.266-22.233-14.378
	c-1.003-4.666-23.864-115.133,37.002-190.474C126.756,57.528,182.134,35.34,256,35.34s129.245,22.188,164.597,65.948
	c60.865,75.342,37.995,185.806,37.002,190.474C453.512,310.981,436.664,306.433,435.335,306.148z"/>
<path style="fill:#FFA733;" d="M391.323,124.699c49.644,61.258,29.831,158.24,29.626,159.212
	c-2.159,10.111,4.279,20.064,14.391,22.237c1.329,0.285,18.176,4.833,22.265-14.386c0.27-1.269,2.156-10.369,3.537-24.445
	c-9.604-12.57-17.795-27.225-18.326-41.094c-1.751-45.713-14.721-84.739-37.508-112.857
	c-31.479-38.843-81.712-58.539-149.304-58.539s-117.824,19.696-149.304,58.539c-22.788,28.119-35.757,67.144-37.508,112.857
	c-0.53,13.846-8.722,28.467-18.338,41.011c1.383,14.123,3.276,23.256,3.55,24.527c2.173,10.111,12.125,16.535,22.233,14.377
	c10.113-2.158,16.566-12.112,14.423-22.229c-0.205-0.972-20.019-97.953,29.626-159.212c27.895-34.419,73.422-51.872,135.319-51.872
	S363.429,90.279,391.323,124.699z"/>
<path style="fill:#FF737D;" d="M89.096,469.461L89.096,469.461c-35.487,4.635-68.316-20.608-72.951-56.096l-8.093-61.964
	c-4.635-35.487,20.608-68.316,56.096-72.951l0,0c35.487-4.635,68.316,20.608,72.951,56.096l8.093,61.964
	C149.827,431.999,124.585,464.827,89.096,469.461z"/>
<path style="fill:#85EDDB;" d="M8.469,331.883c-1.103,6.301-1.285,12.863-0.416,19.52l8.093,61.964
	c1.171,8.967,4.147,17.276,8.506,24.619c7.33-11.14,10.948-30.775,8.591-52.566C30.474,359.822,20.293,338.884,8.469,331.883z"/>
<path style="fill:#E9F6FF;" d="M231.759,356.539c0-21.918-12.597-40.884-30.943-50.076c-7.281-3.648-13.053-9.858-15.761-17.538
	c-3.803-10.788-11.033-20.525-21.481-27.438c-22.371-14.801-52.694-10.942-70.65,8.987c-7.928,8.799-12.442,19.328-13.74,30.089
	c-1.074,8.901-5.394,17.17-12.628,22.466c-13.912,10.184-22.949,26.63-22.949,45.192c0,22.917,13.77,42.606,33.485,51.269
	c8.546,3.755,15.15,10.765,18.201,19.587c2.797,8.089,7.515,15.688,14.193,22.107c19.83,19.059,51.135,20.744,72.886,3.911
	c14.468-11.196,21.825-27.765,21.815-44.402c-0.006-8.846,3.626-17.4,10.052-23.479
	C225.028,387.009,231.759,372.562,231.759,356.539z"/>
<g>
	<path style="fill:#CAE7FC;" d="M164.598,431.409c-3.222-8.761-9.655-15.832-18.201-19.587
		c-19.716-8.663-33.485-28.353-33.485-51.269c0-18.563,9.037-35.007,22.949-45.192c7.234-5.296,11.846-13.535,12.628-22.466
		c1.725-19.699,14.59-31,15.022-31.448c-22.365-14.752-52.647-10.883-70.586,9.027c-7.927,8.799-12.442,19.328-13.74,30.089
		c-1.073,8.901-5.394,17.17-12.628,22.466c-13.912,10.184-22.949,26.63-22.949,45.192c0,22.917,13.77,42.606,33.485,51.269
		c8.546,3.755,15.15,10.765,18.201,19.587c2.797,8.089,7.515,15.688,14.193,22.107c19.83,19.059,51.135,20.744,72.886,3.911
		c1.89-1.463,3.652-3.022,5.299-4.656C184.531,458.465,170.573,447.657,164.598,431.409z"/>
	<circle style="fill:#CAE7FC;" cx="160.677" cy="337.614" r="7.5"/>
	<circle style="fill:#CAE7FC;" cx="146.667" cy="379.023" r="7.5"/>
</g>
<path style="fill:#FF737D;" d="M422.903,469.461L422.903,469.461c35.487,4.635,68.316-20.608,72.951-56.096l8.093-61.964
	c4.635-35.487-20.608-68.316-56.096-72.951l0,0c-35.487-4.635-68.316,20.608-72.951,56.096l-8.093,61.964
	C362.172,431.999,387.416,464.827,422.903,469.461z"/>
<path style="fill:#85EDDB;" d="M503.532,331.883c1.103,6.301,1.285,12.863,0.416,19.52l-8.093,61.964
	c-1.171,8.967-4.147,17.276-8.506,24.619c-7.33-11.14-10.948-30.775-8.591-52.566C481.525,359.822,491.707,338.884,503.532,331.883z
	"/>
<path style="fill:#E9F6FF;" d="M280.241,356.539c0-21.918,12.597-40.884,30.943-50.076c7.281-3.648,13.053-9.858,15.761-17.538
	c3.803-10.788,11.033-20.525,21.481-27.438c22.371-14.801,52.694-10.942,70.65,8.987c7.928,8.799,12.442,19.328,13.74,30.089
	c1.074,8.901,5.394,17.17,12.628,22.466c13.912,10.184,22.949,26.63,22.949,45.192c0,22.917-13.77,42.606-33.485,51.269
	c-8.546,3.755-15.15,10.765-18.201,19.587c-2.797,8.089-7.515,15.688-14.193,22.107c-19.83,19.059-51.135,20.744-72.886,3.911
	c-14.468-11.196-21.825-27.765-21.815-44.402c0.006-8.846-3.626-17.4-10.052-23.479
	C286.972,387.009,280.241,372.562,280.241,356.539z"/>
<g>
	<path style="fill:#CAE7FC;" d="M347.402,431.409c3.765-8.542,9.655-15.832,18.201-19.587c19.716-8.663,33.485-28.353,33.485-51.269
		c0-18.563-9.037-35.007-22.949-45.192c-7.234-5.296-10.992-13.651-12.628-22.466c-4.195-22.597-14.59-31-15.022-31.448
		c22.365-14.752,52.647-10.883,70.586,9.027c7.927,8.799,12.442,19.328,13.74,30.089c1.073,8.901,5.394,17.17,12.628,22.466
		c13.912,10.184,22.949,26.63,22.949,45.192c0,22.917-13.77,42.606-33.485,51.269c-8.546,3.755-15.15,10.765-18.201,19.587
		c-2.797,8.089-7.515,15.688-14.193,22.107c-19.83,19.059-51.135,20.744-72.886,3.911c-1.89-1.463-3.652-3.022-5.299-4.656
		C327.47,458.465,338.399,451.832,347.402,431.409z"/>
	<circle style="fill:#CAE7FC;" cx="366.814" cy="379.023" r="7.5"/>
	<circle style="fill:#CAE7FC;" cx="194.017" cy="366.923" r="7.5"/>
	<circle style="fill:#CAE7FC;" cx="335.074" cy="349.413" r="7.5"/>
</g>
<path d="M467.697,276.151c3.61-28.809,6.722-88.803-18.569-143.011c-1.751-3.754-6.213-5.375-9.968-3.626
	c-3.754,1.751-5.377,6.214-3.626,9.968c22.986,49.266,20.861,104.097,17.588,132.238c-1.419-0.272-11.529-2.381-22.619-0.755
	c1.663-13.879,3.332-37.215,0.417-63.03c-4.028-35.68-15.392-65.273-33.774-87.958c-29.389-36.263-76.877-54.65-141.146-54.65
	s-111.758,18.387-141.146,54.65c-18.385,22.686-29.748,52.28-33.775,87.963c-2.914,25.819-1.244,49.154,0.42,63.032
	c-6.069-0.76-12.215-0.755-18.321,0.043c-39.68,5.181-67.745,41.678-62.562,81.358l8.094,61.964
	c2.501,19.15,12.522,36.017,27.771,48.068c30.06,23.758,67.11,11.72,73.402,8.938c11.215,8.491,24.78,12.815,38.385,12.815
	c13.648,0,27.331-4.335,38.696-13.132c15.726-12.169,24.737-30.518,24.725-50.338c-0.005-6.818,2.805-13.389,7.706-18.026
	c12.811-12.118,19.865-28.498,19.865-46.122c0-24.183-13.443-45.939-35.083-56.781c-5.756-2.884-10.034-7.616-12.047-13.327
	c-4.524-12.835-12.968-23.624-24.416-31.199c-22.355-14.789-51.77-13.164-72.413,2.848c-0.998-12.922-1.398-30.029,0.682-48.459
	c3.702-32.791,13.972-59.775,30.525-80.201c26.4-32.576,69.968-49.094,129.492-49.094s103.092,16.518,129.492,49.094
	c16.553,20.425,26.822,47.406,30.523,80.196c2.081,18.432,1.682,35.541,0.684,48.465c-20.644-16.013-50.06-17.638-72.413-2.849
	c-11.448,7.575-19.892,18.364-24.416,31.2c-2.013,5.71-6.291,10.442-12.047,13.326c-3.46,1.733-6.783,3.799-9.878,6.141
	c-3.303,2.5-3.955,7.203-1.455,10.506c2.499,3.303,7.204,3.956,10.506,1.456c2.364-1.789,4.903-3.368,7.546-4.691
	c9.248-4.633,16.164-12.358,19.475-21.75c3.431-9.731,9.844-17.918,18.547-23.677c19.271-12.751,45.469-9.417,60.939,7.752
	c6.597,7.322,10.699,16.302,11.865,25.967c1.359,11.269,7.061,21.335,15.645,27.62c12.447,9.112,19.879,23.744,19.879,39.14
	c0,19.232-11.385,36.661-29.003,44.403c-10.47,4.6-18.587,13.348-22.272,24.002c-2.519,7.282-6.657,13.725-12.303,19.151
	c-17.158,16.491-44.284,17.946-63.099,3.387c-12.023-9.305-18.914-23.326-18.904-38.466c0.007-10.926-4.512-21.472-12.397-28.932
	c-9.785-9.256-15.174-21.767-15.174-35.226c0-6.721,1.347-13.222,4.004-19.323c1.653-3.798-0.085-8.217-3.883-9.871
	c-3.798-1.652-8.218,0.085-9.87,3.882c-3.484,8.002-5.251,16.518-5.251,25.312c0,17.625,7.055,34.004,19.865,46.122
	c4.901,4.637,7.711,11.208,7.706,18.026c-0.013,19.822,8.999,38.169,24.725,50.338c11.367,8.797,25.047,13.132,38.696,13.132
	c13.605-0.001,27.17-4.324,38.384-12.815c6.292,2.781,40.837,15.127,73.403-8.938c15.631-11.551,25.27-28.918,27.771-48.068
	l8.094-61.964C515.697,319.351,496.971,288.549,467.697,276.151z M88.124,462.025c-15.175,1.983-30.271-2.105-42.501-11.51
	s-20.059-22.943-22.041-38.12l-8.094-61.964c-4.11-31.479,18.153-60.432,49.63-64.543c3.352-0.438,6.718-0.57,10.067-0.416
	c-1.694,4.548-2.857,9.302-3.447,14.193c-0.863,7.162-4.367,13.472-9.611,17.312c-16.293,11.926-26.02,31.083-26.02,51.243
	c0,25.182,14.904,48,37.969,58.136c6.754,2.967,11.771,8.356,14.13,15.172c2.301,6.656,5.653,12.757,9.957,18.252
	C94.907,460.822,91.553,461.578,88.124,462.025z M133.588,260.016c8.969,0,17.987,2.525,25.849,7.727
	c8.703,5.758,15.116,13.945,18.547,23.676c3.311,9.393,10.227,17.118,19.475,21.751c16.532,8.283,26.803,24.901,26.803,43.37
	c0,13.46-5.389,25.97-15.174,35.226c-7.886,7.46-12.404,18.006-12.397,28.932c0.01,15.141-6.881,29.162-18.904,38.466
	c-18.815,14.56-45.941,13.104-63.099-3.387c-5.646-5.426-9.784-11.87-12.303-19.152c-3.686-10.654-11.803-19.402-22.271-24.002
	c-17.621-7.741-29.005-25.171-29.005-44.402c0-15.396,7.432-30.027,19.88-39.14c8.583-6.284,14.284-16.351,15.644-27.619
	c1.166-9.665,5.269-18.645,11.865-25.966C107.656,265.331,120.572,260.016,133.588,260.016z M496.511,350.431l-8.094,61.964
	c-1.982,15.177-9.81,28.715-22.041,38.12c-12.231,9.406-27.326,13.493-42.501,11.51c-3.429-0.448-6.782-1.203-10.04-2.245
	c4.304-5.495,7.655-11.596,9.957-18.252c2.358-6.816,7.376-12.205,14.13-15.173c23.065-10.135,37.969-32.954,37.969-58.135
	c0-20.161-9.727-39.317-26.019-51.243c-5.245-3.84-8.749-10.15-9.612-17.313c-0.59-4.894-1.755-9.65-3.45-14.201
	c3.347-0.154,6.711-0.017,10.069,0.423C478.358,289.999,500.621,318.953,496.511,350.431z"/>
<path d="M49.541,254.836c0.085,0,7.805,0.051,7.501-7.75c-1.557-40.005,4.556-96.97,40.193-141.084
	C131.094,64.091,184.51,42.84,256,42.84s124.905,21.251,158.764,63.161c2.1,2.599,4.145,5.306,6.078,8.047
	c2.388,3.384,7.066,4.193,10.453,1.803c3.384-2.388,4.19-7.068,1.803-10.452c-2.121-3.004-4.362-5.973-6.665-8.823
	C389.585,50.967,332.244,27.841,256,27.841S122.415,50.965,85.568,96.575C47.03,144.28,40.631,205.026,42.05,247.586
	C42.186,251.64,45.515,254.836,49.541,254.836z"/>
<g>
</g>
<g>
</g>
<g>
</g>
<g>
</g>
<g>
</g>
<g>
</g>
<g>
</g>
<g>
</g>
<g>
</g>
<g>
</g>
<g>
</g>
<g>
</g>
<g>
</g>
<g>
</g>
<g>
</g>
</svg>
