<?xml version="1.0" encoding="iso-8859-1"?>
<!-- Generator: Adobe Illustrator 19.0.0, SVG Export Plug-In . SVG Version: 6.00 Build 0)  -->
<svg version="1.1" id="Capa_1" xmlns="http://www.w3.org/2000/svg" xmlns:xlink="http://www.w3.org/1999/xlink" x="0px" y="0px"
	 viewBox="0 0 512.002 512.002" style="enable-background:new 0 0 512.002 512.002;" xml:space="preserve">
<path style="fill:#F44242;" d="M341.576,167.571v169.798c0,15.712,12.737,28.45,28.45,28.45H476.05
	c15.712,0,28.45-12.737,28.45-28.45V167.571H341.576z"/>
<path style="fill:#C93939;" d="M341.576,309.559c81.54-14.9,131.926-43.706,162.924-72.016v-69.972H341.576V309.559z"/>
<path style="fill:#94CBED;" d="M341.576,306.516v30.852c0,15.712,12.737,28.45,28.45,28.45H476.05
	c15.712,0,28.45-12.737,28.45-28.45v-30.852H341.576z"/>
<path style="fill:#FF5555;" d="M467.299,213.673H44.701c-20.46,0-37.201-16.74-37.201-37.201V87.949
	c0-20.46,16.74-37.201,37.201-37.201H467.3c20.46,0,37.201,16.74,37.201,37.201v88.522
	C504.5,196.932,487.76,213.673,467.299,213.673z"/>
<path style="fill:#F44242;" d="M230.477,213.673H467.3c20.46,0,37.201-16.74,37.201-37.201V87.949
	c0-20.46-16.74-37.201-37.201-37.201H233.5c-1.955,7.017-3.023,14.401-3.023,22.033V213.673z"/>
<path style="fill:#B3DBF4;" d="M467.299,50.749H44.701C24.24,50.749,7.5,67.488,7.5,87.949v32.972
	c22.52,4.529,25.923,23.547,54.418,23.547c32.346,0,32.346-24.514,64.692-24.514c32.344,0,32.344,24.514,64.689,24.514
	s32.345-24.514,64.69-24.514c32.346,0,32.346,24.514,64.693,24.514c32.345,0,32.345-24.514,64.691-24.514
	c32.35,0,32.35,24.514,64.7,24.514c28.5,0,31.903-19.019,54.428-23.547V87.949C504.5,67.488,487.76,50.749,467.299,50.749z"/>
<path style="fill:#94CBED;" d="M230.477,127.294c6.309-4.111,13.779-7.342,25.512-7.342c32.346,0,32.346,24.514,64.693,24.514
	c32.345,0,32.345-24.514,64.691-24.514c32.35,0,32.35,24.514,64.7,24.514c28.5,0,31.903-19.019,54.428-23.547v-32.97
	c0-20.46-16.74-37.201-37.201-37.201H233.5c-1.955,7.017-3.023,14.401-3.023,22.033V127.294z"/>
<g>
	<circle style="fill:#FFEB99;" cx="125.39" cy="167.571" r="13.413"/>
	<circle style="fill:#FFEB99;" cx="256" cy="167.571" r="13.413"/>
</g>
<path style="fill:#FF737D;" d="M438.4,385.443V72.781c0-20.46-16.74-37.201-37.201-37.201h-88.522
	c-20.46,0-37.201,16.74-37.201,37.201v312.662c0,15.712,12.737,28.45,28.45,28.45H409.95
	C425.663,413.893,438.4,401.155,438.4,385.443z"/>
<g>
	<path style="fill:#FF5555;" d="M356.938,385.443V72.781c0-20.46,16.74-37.201,37.201-37.201h-81.462
		c-20.46,0-37.201,16.74-37.201,37.201v312.662c0,15.712,12.737,28.45,28.45,28.45h81.462
		C369.676,413.893,356.938,401.155,356.938,385.443z"/>
	<circle style="fill:#FF5555;" cx="398.65" cy="152.23" r="7.5"/>
	<circle style="fill:#FF5555;" cx="398.65" cy="224.741" r="7.5"/>
	<circle style="fill:#FF5555;" cx="373.34" cy="188.48" r="7.5"/>
</g>
<path style="fill:#B3DBF4;" d="M275.476,354.591v30.852c0,15.712,12.737,28.45,28.45,28.45H409.95
	c15.712,0,28.45-12.737,28.45-28.45v-30.852H275.476z"/>
<path style="fill:#94CBED;" d="M275.476,385.443c0,15.712,12.738,28.45,28.45,28.45h81.462c-15.712,0-28.45-12.737-28.45-28.45
	v-30.852h-81.462V385.443z"/>
<path d="M467.299,43.249h-32.586c-8.197-9.291-20.179-15.167-33.514-15.167h-88.522c-13.335,0-25.316,5.877-33.513,15.167h-67.727
	c-4.142,0-7.5,3.358-7.5,7.5s3.358,7.5,7.5,7.5h58.978c-1.573,4.56-2.439,9.446-2.439,14.533v40.84
	c-3.758-0.774-7.729-1.168-11.988-1.168c-18.693,0-28.353,7.321-36.875,13.78c-7.6,5.76-14.163,10.734-27.814,10.734
	s-20.214-4.974-27.814-10.734c-8.522-6.459-18.182-13.78-36.875-13.78c-18.694,0-28.354,7.321-36.876,13.78
	c-7.6,5.76-14.164,10.734-27.816,10.734c-13.654,0-20.222-4.973-27.826-10.732c-5.212-3.948-10.99-8.322-19.093-11.057V87.949
	c0-16.377,13.324-29.701,29.701-29.701H178c4.142,0,7.5-3.358,7.5-7.5s-3.358-7.5-7.5-7.5H44.701C20.053,43.249,0,63.3,0,87.949
	v88.522c0,24.648,20.053,44.701,44.701,44.701h223.276v164.271c0,18.575,14.161,33.904,32.253,35.76v55.217
	c0,4.142,3.357,7.5,7.5,7.5s7.5-3.358,7.5-7.5v-55.027h17.806v55.027c0,4.142,3.357,7.5,7.5,7.5s7.5-3.358,7.5-7.5v-55.027h17.806
	v55.027c0,4.142,3.357,7.5,7.5,7.5s7.5-3.358,7.5-7.5v-55.027h17.806v55.027c0,4.142,3.357,7.5,7.5,7.5s7.5-3.358,7.5-7.5v-55.217
	c6.413-0.658,12.326-3.015,17.295-6.603v13.745c0,4.142,3.357,7.5,7.5,7.5s7.5-3.358,7.5-7.5v-55.027h18.806v55.027
	c0,4.142,3.357,7.5,7.5,7.5s7.5-3.358,7.5-7.5v-55.217c18.092-1.856,32.253-17.186,32.253-35.76V176.471v-8.901V87.949
	C512,63.3,491.947,43.249,467.299,43.249z M467.299,58.249C483.676,58.249,497,71.572,497,87.95v27.228
	c-8.105,2.735-14.37,6.54-19.098,11.058c-14.549,13.907-30.664,10.662-32.002,10.551V72.781c0-5.087-0.866-9.973-2.439-14.533
	C443.461,58.248,467.299,58.248,467.299,58.249z M445.9,221.172h21.398c11.393,0,21.798-4.29,29.701-11.332v89.177h-51.1v-77.845
	H445.9z M44.701,206.172c-16.377,0-29.701-13.323-29.701-29.7v-45.03c3.556,1.849,6.666,4.199,10.037,6.752
	c8.525,6.456,18.188,13.774,36.881,13.774c18.694,0,28.354-7.321,36.876-13.78c7.6-5.76,14.164-10.734,27.815-10.734
	s20.215,4.975,27.814,10.734c8.522,6.459,18.182,13.78,36.875,13.78s28.353-7.321,36.875-13.78
	c7.6-5.76,14.163-10.734,27.814-10.734c4.5,0,8.394,0.516,11.988,1.606v21.394c-3.396-2.383-7.522-3.795-11.977-3.795
	c-11.531,0-20.913,9.381-20.913,20.913s9.381,20.913,20.913,20.913c4.455,0,8.58-1.411,11.977-3.795v21.484H44.701V206.172z
	 M261.913,167.571c0,3.26-2.652,5.913-5.913,5.913c-3.26,0-5.913-2.652-5.913-5.913s2.652-5.913,5.913-5.913
	C259.261,161.658,261.913,164.311,261.913,167.571z M430.9,385.443c0,10.289-7.462,18.85-17.254,20.603v-7.415
	c0-4.142-3.357-7.5-7.5-7.5s-7.5,3.358-7.5,7.5v7.761H380.84v-7.761c0-4.142-3.357-7.5-7.5-7.5s-7.5,3.358-7.5,7.5v7.761h-17.806
	v-7.761c0-4.142-3.357-7.5-7.5-7.5s-7.5,3.358-7.5,7.5v7.761h-17.806v-7.761c0-4.142-3.357-7.5-7.5-7.5s-7.5,3.358-7.5,7.5v7.415
	c-9.792-1.753-17.253-10.314-17.253-20.603v-23.352h123.17c4.143,0,7.5-3.358,7.5-7.5s-3.357-7.5-7.5-7.5h-123.17V72.781
	c0-6.406,2.045-12.339,5.507-17.196c0.214-0.253,0.408-0.521,0.587-0.801c5.432-7.107,13.99-11.704,23.606-11.704h88.522
	c16.377,0,29.701,13.324,29.701,29.701v312.662H430.9z M479.747,357.971v-7.415c0-4.142-3.357-7.5-7.5-7.5s-7.5,3.358-7.5,7.5v7.761
	h-18.806l-0.041-44.302H497v23.352C497,347.658,489.539,356.218,479.747,357.971z M497,176.471
	c0,16.377-13.324,29.701-29.701,29.701H445.9v-54.346c1.359,0.084,20.389,4.272,41.057-13.632c3.198-2.77,6.484-4.906,10.043-6.755
	v36.131V176.471z"/>
<path d="M125.386,146.658c-11.531,0-20.913,9.381-20.913,20.913s9.381,20.913,20.913,20.913s20.913-9.381,20.913-20.913
	S136.917,146.658,125.386,146.658z M125.386,173.482c-3.26,0-5.913-2.652-5.913-5.913s2.652-5.913,5.913-5.913
	s5.913,2.652,5.913,5.913S128.646,173.482,125.386,173.482z"/>
<g>
</g>
<g>
</g>
<g>
</g>
<g>
</g>
<g>
</g>
<g>
</g>
<g>
</g>
<g>
</g>
<g>
</g>
<g>
</g>
<g>
</g>
<g>
</g>
<g>
</g>
<g>
</g>
<g>
</g>
</svg>
